<?xml version="1.0" standalone="no"?>
<!DOCTYPE svg PUBLIC "-//W3C//DTD SVG 1.1//EN" "http://www.w3.org/Graphics/SVG/1.1/DTD/svg11.dtd" >
<svg xmlns="http://www.w3.org/2000/svg" xmlns:xlink="http://www.w3.org/1999/xlink" version="1.1">
<metadata></metadata>
<defs>
<font id="nerislight" horiz-adv-x="1138" >
<font-face units-per-em="2048" ascent="1546" descent="-502" />
<missing-glyph horiz-adv-x="440" />
<glyph unicode="&#xcf;&#xcf;" horiz-adv-x="991" d="M201 1765q40 0 64 -23t24 -63q0 -39 -24 -61.5t-64 -22.5q-43 0 -66.5 22t-23.5 62t24 63t66 23zM504 1765q41 0 64.5 -23t23.5 -63t-23.5 -62t-64.5 -22q-43 0 -66.5 22t-23.5 62t24 63t66 23zM811 1765q40 0 64 -23t24 -63q0 -39 -24 -61.5t-64 -22.5q-44 0 -67 22 t-23 62t23 63t67 23zM297 0h-98q-19 0 -19 18v1373q0 18 19 18h98q18 0 18 -18v-1373q0 -18 -18 -18zM793 0h-99q-18 0 -18 18v1373q0 18 18 18h99q18 0 18 -18v-1373q0 -18 -18 -18z" />
<glyph unicode="&#xef;&#xef;" horiz-adv-x="1019" d="M236 1458q40 0 63 -23.5t23 -64.5q0 -42 -23 -65t-63 -23t-62 23t-22 65q0 41 22 64.5t62 23.5zM514 1458q39 0 62.5 -23.5t23.5 -64.5t-23.5 -64.5t-62.5 -23.5q-40 0 -63 23.5t-23 64.5t23 64.5t63 23.5zM791 1458q40 0 63 -23.5t23 -64.5q0 -42 -23 -65t-63 -23 t-63 23t-23 65q0 41 23 64.5t63 23.5zM352 0h-96q-18 0 -18 18v842h-95q-18 0 -18 19v84q0 18 18 18h209q19 0 19 -18v-945q0 -18 -19 -18zM848 0h-96q-19 0 -19 18v842h-94q-18 0 -18 19v84q0 18 18 18h209q18 0 18 -18v-945q0 -18 -18 -18z" />
<glyph unicode="&#x21b;i" horiz-adv-x="1189" d="M942 1278q-42 0 -66 24t-24 66t24 66t66 24q41 0 64.5 -23.5t23.5 -66.5t-23.5 -66.5t-64.5 -23.5zM354 981h658q18 0 18 -18v-945q0 -18 -18 -18h-97q-18 0 -18 18v842h-543v-620q0 -66 28.5 -102t80.5 -36q20 0 53 11q15 6 25 -11l34 -75q8 -19 -8 -25 q-46 -22 -104 -22q-114 0 -178 67.5t-64 190.5v622h-94q-18 0 -18 19v84q0 18 18 18h94v246q0 17 15 20l98 33q20 7 20 -16v-283zM313 -436l41 76q16 32 -12 41q-24 6 -38.5 27t-14.5 50q0 38 23.5 59t62.5 21q40 0 63 -24t23 -66q0 -52 -41 -127l-37 -67q-7 -13 -21 -13 h-36q-11 0 -15 6.5t2 16.5z" />
<glyph unicode="t&#xee;" horiz-adv-x="1323" d="M1010 1436l141 -232q6 -9 3 -15.5t-15 -6.5h-74q-14 0 -23 12l-102 143l-102 -143q-9 -12 -23 -12h-72q-12 0 -15 6.5t3 15.5l139 232q9 12 23 12h94q14 0 23 -12zM354 981h658q18 0 18 -18v-945q0 -18 -18 -18h-97q-18 0 -18 18v842h-543v-620q0 -66 28.5 -102t80.5 -36 q20 0 53 11q15 6 25 -11l34 -75q8 -19 -8 -25q-46 -22 -104 -22q-114 0 -178 67.5t-64 190.5v622h-94q-18 0 -18 19v84q0 18 18 18h94v246q0 17 15 20l98 33q20 7 20 -16v-283z" />
<glyph unicode="ff&#xfe;" horiz-adv-x="2420" d="M1579 1430v-377q0 -115 -18 -209q-3 -14 5.5 -17.5t20.5 9.5q52 78 130.5 121.5t176.5 43.5q200 0 311 -135.5t111 -373.5t-117.5 -375t-324.5 -137q-131 0 -234 49l-61 28v-473q0 -18 -18 -18h-97q-18 0 -18 18v1741h-330q-71 0 -110 -47t-39 -133v-164h227q18 0 18 -18 v-84q0 -19 -18 -19h-227v-842q0 -18 -19 -18h-96q-18 0 -18 18v842h-480v-842q0 -18 -18 -18h-96q-19 0 -19 18v842h-94q-18 0 -18 19v84q0 18 18 18h94v182q0 141 74.5 223t204.5 82q41 0 94 -16l18 -6q19 -6 13 -25l-27 -80q-6 -16 -25 -10l-12 4q-24 8 -61 8 q-68 0 -107 -48.5t-39 -131.5v-182h480v164q0 144 74.5 223.5t207.5 79.5h445q18 0 18 -18zM1577 186l84 -41q90 -43 209 -43q148 0 230.5 103.5t82.5 286.5q0 182 -79 284.5t-220 102.5q-147 0 -227 -114t-80 -296v-283z" />
<glyph unicode="f&#x12b;" horiz-adv-x="1126" d="M221 981v182q0 141 74 223t203 82q37 0 96 -16l35 -10q15 -6 12 -23l-23 -86q-3 -18 -22 -12l-31 10q-30 12 -67 12q-66 0 -105 -48.5t-39 -131.5v-182h594q19 0 19 -18v-945q0 -18 -19 -18h-96q-18 0 -18 18v842h-480v-842q0 -18 -18 -18h-96q-19 0 -19 18v842h-94 q-18 0 -18 19v84q0 18 18 18h94zM748 1364h286q19 0 19 -18v-66q0 -18 -19 -18h-286q-19 0 -19 18v66q0 18 19 18z" />
<glyph unicode="t&#x12b;" horiz-adv-x="1273" d="M760 1364h338q18 0 18 -18v-66q0 -18 -18 -18h-338q-19 0 -19 18v66q0 18 19 18zM354 981h658q18 0 18 -18v-945q0 -18 -18 -18h-97q-18 0 -18 18v842h-543v-620q0 -66 28.5 -102t80.5 -36q20 0 53 11q15 6 25 -11l34 -75q8 -19 -8 -25q-46 -22 -104 -22 q-114 0 -178 67.5t-64 190.5v622h-94q-18 0 -18 19v84q0 18 18 18h94v246q0 17 15 20l98 33q20 7 20 -16v-283z" />
<glyph unicode="t&#x12f;" horiz-adv-x="1214" d="M942 1278q-42 0 -66 24t-24 66t24 66t66 24q41 0 64.5 -23.5t23.5 -66.5t-23.5 -66.5t-64.5 -23.5zM1028 -338l21 -63q6 -19 -13 -25l-30 -10q-52 -19 -93 -19q-80 0 -127 42.5t-47 115.5q0 76 60 139l78 84q43 49 24 74q-4 0 -4 18v842h-543v-620q0 -66 28.5 -102 t80.5 -36q20 0 53 11q15 6 25 -11l34 -75q8 -19 -8 -25q-46 -22 -104 -22q-114 0 -178 67.5t-64 190.5v622h-94q-18 0 -18 19v84q0 18 18 18h94v246q0 17 15 20l98 33q20 7 20 -16v-283h658q18 0 18 -18v-951q0 -12 -12 -12q10 0 10 -18q-6 -48 -55 -97l-90 -96 q-31 -34 -31 -72q0 -61 63 -61q19 0 64 10l25 8q18 6 24 -12z" />
<glyph unicode="f&#xed;" horiz-adv-x="1126" d="M221 981v182q0 141 74 223t203 82q37 0 96 -16l35 -10q15 -6 12 -23l-23 -86q-3 -18 -22 -12l-31 10q-30 12 -67 12q-66 0 -105 -48.5t-39 -131.5v-182h594q19 0 19 -18v-945q0 -18 -19 -18h-96q-18 0 -18 18v842h-480v-842q0 -18 -18 -18h-96q-19 0 -19 18v842h-94 q-18 0 -18 19v84q0 18 18 18h94zM1040 1425l-112 -229q-6 -14 -21 -14h-76q-11 0 -14.5 5.5t0.5 14.5l82 232q6 14 23 14h104q11 0 14.5 -6t-0.5 -17z" />
<glyph unicode="f&#x13e;" horiz-adv-x="1212" d="M967 1430v-1254q0 -74 53 -74q12 0 18 2q16 7 23 -10l35 -80q7 -17 -11 -24q-33 -10 -65 -10q-88 0 -137 51.5t-49 144.5v1149h-330q-71 0 -110.5 -47t-39.5 -133v-164h228q18 0 18 -18v-84q0 -19 -18 -19h-228v-842q0 -18 -18 -18h-96q-19 0 -19 18v842h-94 q-18 0 -18 19v84q0 18 18 18h94v164q0 144 75 223.5t208 79.5h444q19 0 19 -18zM1141 1448h78q18 0 18 -18v-62q0 -63 -39 -151l-10 -21q-6 -14 -21 -14h-57q-23 0 -16 20l10 35q18 67 18 133v60q0 18 19 18z" />
<glyph unicode="t&#xed;" horiz-adv-x="1273" d="M1104 1425l-113 -229q-6 -14 -20 -14h-76q-11 0 -14.5 5.5t0.5 14.5l82 232q6 14 22 14h105q11 0 14.5 -6t-0.5 -17zM354 981h658q18 0 18 -18v-945q0 -18 -18 -18h-97q-18 0 -18 18v842h-543v-620q0 -66 28.5 -102t80.5 -36q20 0 53 11q15 6 25 -11l34 -75q8 -19 -8 -25 q-46 -22 -104 -22q-114 0 -178 67.5t-64 190.5v622h-94q-18 0 -18 19v84q0 18 18 18h94v246q0 17 15 20l98 33q20 7 20 -16v-283z" />
<glyph unicode="t&#xec;" horiz-adv-x="1187" d="M987 1182h-76q-14 0 -20 14l-113 229q-4 10 0 16.5t15 6.5h104q17 0 23 -14l81 -232q4 -9 0.5 -14.5t-14.5 -5.5zM354 981h658q18 0 18 -18v-945q0 -18 -18 -18h-97q-18 0 -18 18v842h-543v-620q0 -66 28.5 -102t80.5 -36q20 0 53 11q15 6 25 -11l34 -75q8 -19 -8 -25 q-46 -22 -104 -22q-114 0 -178 67.5t-64 190.5v622h-94q-18 0 -18 19v84q0 18 18 18h94v246q0 17 15 20l98 33q20 7 20 -16v-283z" />
<glyph unicode="&#x165;j" horiz-adv-x="1189" d="M944 1278q-41 0 -64.5 23.5t-23.5 66.5t23.5 66.5t64.5 23.5q43 0 65.5 -23.5t22.5 -66.5t-22.5 -66.5t-65.5 -23.5zM578 1217l-11 -21q-6 -14 -20 -14h-58q-23 0 -16 20l10 35q19 71 19 133v60q0 18 18 18h78q18 0 18 -18v-62q0 -65 -38 -151zM354 981h660q18 0 18 -18 v-1082q0 -93 -36.5 -161.5t-114.5 -122.5l-62 -46q-16 -12 -26 5l-48 75q-7 17 7 25l59 45q88 62 88 180v979h-545v-620q0 -66 28.5 -102t80.5 -36q20 0 53 11q15 6 25 -11l34 -75q8 -19 -8 -25q-46 -22 -104 -22q-114 0 -178 67.5t-64 190.5v622h-94q-18 0 -18 19v84 q0 18 18 18h94v246q0 17 15 20l98 33q20 7 20 -16v-283z" />
<glyph unicode="&#x165;t" horiz-adv-x="1361" d="M578 1217l-11 -21q-6 -14 -20 -14h-58q-23 0 -16 20l10 35q19 71 19 133v60q0 18 18 18h78q18 0 18 -18v-62q0 -65 -38 -151zM1018 860v-620q0 -66 28 -102t80 -36q21 0 54 11q14 6 24 -11l35 -75q8 -19 -8 -25q-46 -22 -105 -22q-114 0 -177.5 67.5t-63.5 190.5v622 h-531v-620q0 -66 28.5 -102t80.5 -36q20 0 53 11q15 6 25 -11l34 -75q8 -19 -8 -25q-46 -22 -104 -22q-114 0 -178 67.5t-64 190.5v622h-94q-18 0 -18 19v84q0 18 18 18h94v246q0 17 15 20l98 33q20 7 20 -16v-283h531v246q0 17 14 20l98 33q9 3 15 -1.5t6 -14.5v-283h227 q19 0 19 -18v-84q0 -19 -19 -19h-227z" />
<glyph unicode="ffti" horiz-adv-x="2408" d="M1573 981h657q19 0 19 -18v-945q0 -18 -19 -18h-96q-18 0 -18 18v842h-543v-620q0 -66 28 -102t80 -36q21 0 54 11q14 6 24 -11l35 -75q8 -19 -8 -25q-46 -22 -105 -22q-114 0 -177.5 67.5t-63.5 190.5v622h-475v-842q0 -18 -19 -18h-96q-19 0 -19 18v842h-477v-842 q0 -18 -18 -18h-96q-19 0 -19 18v842h-94q-18 0 -18 19v84q0 18 18 18h94v182q0 141 74.5 223t204.5 82q41 0 94 -16l18 -6q19 -6 13 -25l-27 -80q-6 -16 -25 -10l-12 4q-24 8 -61 8q-68 0 -107 -48.5t-39 -131.5v-182h477v182q0 141 74.5 223t204.5 82q41 0 94 -16l19 -6 q18 -6 12 -25l-27 -80q-6 -16 -24 -10l-13 4q-24 8 -61 8q-67 0 -106 -48.5t-39 -131.5v-182h475v246q0 17 14 20l98 33q9 3 15 -1.5t6 -14.5v-283zM2161 1278q-42 0 -66 24t-24 66t24 66t66 24q41 0 64.5 -23.5t23.5 -66.5t-23.5 -66.5t-64.5 -23.5z" />
<glyph unicode="ftti" horiz-adv-x="2463" d="M1628 981h658q18 0 18 -18v-945q0 -18 -18 -18h-97q-18 0 -18 18v842h-543v-620q0 -66 28.5 -102t80.5 -36q20 0 53 11q15 6 25 -11l34 -75q8 -19 -8 -25q-46 -22 -104 -22q-114 0 -178 67.5t-64 190.5v622h-530v-620q0 -66 28 -102t80 -36q20 0 53 11q15 6 25 -11 l35 -75q8 -19 -8 -25q-46 -22 -105 -22q-114 0 -178 67.5t-64 190.5v622h-477v-842q0 -18 -18 -18h-96q-19 0 -19 18v842h-94q-18 0 -18 19v84q0 18 18 18h94v182q0 141 74.5 223t204.5 82q41 0 94 -16l18 -6q19 -6 13 -25l-27 -80q-6 -16 -25 -10l-12 4q-24 8 -61 8 q-68 0 -107 -48.5t-39 -131.5v-182h477v246q0 17 15 20l98 33q9 3 15 -1.5t6 -14.5v-283h530v246q0 17 14 20l99 33q20 7 20 -16v-283zM2216 1278q-42 0 -66 24t-24 66t24 66t66 24q41 0 64.5 -23.5t23.5 -66.5t-23.5 -66.5t-64.5 -23.5z" />
<glyph unicode="f&#xfe;" horiz-adv-x="1806" d="M967 1430v-377q0 -109 -19 -209q-3 -14 6 -17.5t21 9.5q52 78 130.5 121.5t176.5 43.5q200 0 311 -135.5t111 -373.5t-117.5 -375t-324.5 -137q-131 0 -234 49l-61 28v-473q0 -18 -19 -18h-96q-18 0 -18 18v1741h-330q-71 0 -110.5 -47t-39.5 -133v-164h228q18 0 18 -18 v-84q0 -19 -18 -19h-228v-842q0 -18 -18 -18h-96q-19 0 -19 18v842h-94q-18 0 -18 19v84q0 18 18 18h94v164q0 144 75 223.5t208 79.5h444q19 0 19 -18zM965 186l84 -41q90 -43 208 -43q148 0 231 103.5t83 286.5q0 182 -79 284.5t-220 102.5q-147 0 -227 -114t-80 -296 v-283z" />
<glyph unicode="ffb" horiz-adv-x="2420" d="M1579 1430v-377q0 -123 -16 -207q-5 -17 4.5 -21t19.5 11q110 165 311 165q196 0 307 -136t111 -373q0 -238 -118.5 -375t-327.5 -137q-143 0 -262 53l-148 63q-14 6 -14 21v1208h-330q-71 0 -110 -47t-39 -133v-164h227q18 0 18 -18v-84q0 -19 -18 -19h-227v-842 q0 -18 -19 -18h-96q-18 0 -18 18v842h-480v-842q0 -18 -18 -18h-96q-19 0 -19 18v842h-94q-18 0 -18 19v84q0 18 18 18h94v182q0 141 74.5 223t204.5 82q41 0 94 -16l18 -6q19 -6 13 -25l-27 -80q-6 -16 -25 -10l-12 4q-24 8 -61 8q-68 0 -107 -48.5t-39 -131.5v-182h480 v164q0 144 74.5 223.5t207.5 79.5h445q18 0 18 -18zM1577 188l84 -43q95 -43 209 -43q148 0 230.5 103.5t82.5 286.5q0 182 -79 284.5t-218 102.5q-150 0 -229.5 -114.5t-79.5 -295.5v-281z" />
<glyph unicode="ffh" horiz-adv-x="2424" d="M1579 1430v-377q0 -115 -18 -209q-3 -14 5.5 -17.5t20.5 9.5q113 165 326 165q169 0 265.5 -106t96.5 -291v-586q0 -18 -18 -18h-96q-19 0 -19 18v576q0 134 -63.5 209.5t-177.5 75.5q-85 0 -149 -33t-101 -91.5t-54.5 -130t-17.5 -157.5v-449q0 -18 -18 -18h-97 q-18 0 -18 18v1307h-330q-71 0 -110 -47t-39 -133v-164h227q18 0 18 -18v-84q0 -19 -18 -19h-227v-842q0 -18 -19 -18h-96q-18 0 -18 18v842h-480v-842q0 -18 -18 -18h-96q-19 0 -19 18v842h-94q-18 0 -18 19v84q0 18 18 18h94v182q0 141 74.5 223t204.5 82q41 0 94 -16 l18 -6q19 -6 13 -25l-27 -80q-6 -16 -25 -10l-12 4q-24 8 -61 8q-68 0 -107 -48.5t-39 -131.5v-182h480v164q0 144 74.5 223.5t207.5 79.5h445q18 0 18 -18z" />
<glyph unicode="ffi" horiz-adv-x="1740" d="M967 981h594q18 0 18 -18v-945q0 -18 -18 -18h-97q-18 0 -18 18v842h-479v-842q0 -18 -19 -18h-96q-18 0 -18 18v842h-480v-842q0 -18 -18 -18h-96q-19 0 -19 18v842h-94q-18 0 -18 19v84q0 18 18 18h94v182q0 141 74.5 223t204.5 82q41 0 94 -16l18 -6q19 -6 13 -25 l-27 -80q-6 -16 -25 -10l-12 4q-24 8 -61 8q-68 0 -107 -48.5t-39 -131.5v-182h480v182q0 141 73.5 223t202.5 82q37 0 96 -16l35 -10q15 -6 12 -23l-22 -86q-3 -19 -23 -12l-30 10q-30 12 -68 12q-66 0 -104.5 -48.5t-38.5 -131.5v-182zM1495 1278q-41 0 -64.5 23.5 t-23.5 66.5t23.5 66.5t64.5 23.5t64.5 -23.5t23.5 -66.5t-23.5 -66.5t-64.5 -23.5z" />
<glyph unicode="ffj" horiz-adv-x="1742" d="M967 981h594q18 0 18 -18v-1082q0 -182 -149 -284l-62 -46q-16 -13 -27 5l-45 73q-10 17 4 25l58 47q88 59 88 180v979h-479v-842q0 -18 -19 -18h-96q-18 0 -18 18v842h-480v-842q0 -18 -18 -18h-96q-19 0 -19 18v842h-94q-18 0 -18 19v84q0 18 18 18h94v182 q0 141 74.5 223t204.5 82q41 0 94 -16l18 -6q19 -6 13 -25l-27 -80q-6 -16 -25 -10l-12 4q-24 8 -61 8q-68 0 -107 -48.5t-39 -131.5v-182h480v182q0 141 73.5 223t202.5 82q37 0 96 -16l35 -10q15 -6 12 -23l-24 -86q-3 -19 -23 -12l-28 10q-30 12 -68 12q-67 0 -105 -48 t-38 -132v-182zM1497 1278q-42 0 -66 24t-24 66t24 66t66 24q41 0 64.5 -23.5t23.5 -66.5t-23.5 -66.5t-64.5 -23.5z" />
<glyph unicode="ffk" horiz-adv-x="2316" d="M2017 299l205 -276q6 -9 3 -16t-15 -7h-113q-12 0 -22 10l-179 236q-31 40 -45.5 58t-44.5 48.5t-53.5 44.5t-58 25.5t-72.5 11.5h-43v-416q0 -18 -18 -18h-97q-18 0 -18 18v1307h-330q-71 0 -110 -47t-39 -133v-164h227q18 0 18 -18v-84q0 -19 -18 -19h-227v-842 q0 -18 -19 -18h-96q-18 0 -18 18v842h-480v-842q0 -18 -18 -18h-96q-19 0 -19 18v842h-94q-18 0 -18 19v84q0 18 18 18h94v182q0 141 74.5 223t204.5 82q41 0 94 -16l18 -6q19 -6 13 -25l-27 -80q-6 -16 -25 -10l-12 4q-24 8 -61 8q-68 0 -107 -48.5t-39 -131.5v-182h480 v164q0 144 74.5 223.5t207.5 79.5h445q18 0 18 -18v-873h39q39 0 75 15t69.5 45t57 56t56.5 66q3 4 4.5 5.5t3.5 4.5t4 5l170 217q10 10 23 10h112q12 0 15.5 -7t-2.5 -16l-201 -262q-118 -154 -203 -186q-19 -10 0 -18q94 -37 215 -193z" />
<glyph unicode="ffl" horiz-adv-x="1806" d="M1673 94l35 -80q7 -17 -10 -24q-33 -10 -66 -10q-88 0 -137 51.5t-49 144.5v1149h-330q-71 0 -110 -47t-39 -133v-164h227q18 0 18 -18v-84q0 -19 -18 -19h-227v-842q0 -18 -19 -18h-96q-18 0 -18 18v842h-480v-842q0 -18 -18 -18h-96q-19 0 -19 18v842h-94q-18 0 -18 19 v84q0 18 18 18h94v182q0 141 74.5 223t204.5 82q41 0 94 -16l18 -6q19 -6 13 -25l-27 -80q-6 -16 -25 -10l-12 4q-24 8 -61 8q-68 0 -107 -48.5t-39 -131.5v-182h480v164q0 144 74.5 223.5t207.5 79.5h445q18 0 18 -18v-1254q0 -74 53 -74q13 0 19 2q16 6 22 -10z" />
<glyph unicode="fft" horiz-adv-x="1921" d="M1577 860v-620q0 -66 28.5 -102t80.5 -36q20 0 53 11q14 6 24 -11l35 -75q8 -19 -8 -25q-46 -22 -104 -22q-114 0 -178 67.5t-64 190.5v622h-477v-842q0 -18 -19 -18h-96q-18 0 -18 18v842h-480v-842q0 -18 -18 -18h-96q-19 0 -19 18v842h-94q-18 0 -18 19v84q0 18 18 18 h94v182q0 141 74.5 223t204.5 82q41 0 94 -16l18 -6q19 -6 13 -25l-27 -80q-6 -16 -25 -10l-12 4q-24 8 -61 8q-68 0 -107 -48.5t-39 -131.5v-182h480v182q0 142 74 223.5t204 81.5q41 0 94 -16l19 -6q18 -6 12 -25l-27 -80q-6 -16 -24 -10l-12 4q-24 8 -62 8 q-67 0 -106 -48.5t-39 -131.5v-182h477v246q0 17 14 20l98 33q9 3 15 -1.5t6 -14.5v-283h227q19 0 19 -18v-84q0 -19 -19 -19h-227z" />
<glyph unicode="fti" horiz-adv-x="1798" d="M963 981h657q18 0 18 -18v-945q0 -18 -18 -18h-96q-19 0 -19 18v842h-542v-620q0 -66 28 -102t80 -36q20 0 53 11q15 6 25 -11l35 -75q8 -19 -8 -25q-46 -22 -105 -22q-114 0 -178 67.5t-64 190.5v622h-475v-842q0 -18 -18 -18h-96q-19 0 -19 18v842h-94q-18 0 -18 19v84 q0 18 18 18h94v182q0 141 74.5 223t204.5 82q41 0 94 -16l18 -6q19 -6 13 -25l-27 -80q-6 -16 -25 -10l-12 4q-24 8 -61 8q-68 0 -107 -48.5t-39 -131.5v-182h475v246q0 17 15 20l98 33q9 3 15 -1.5t6 -14.5v-283zM1550 1278q-42 0 -66 24t-24 66t24 66t66 24 q41 0 64.5 -23.5t23.5 -66.5t-23.5 -66.5t-64.5 -23.5z" />
<glyph unicode="ftt" horiz-adv-x="1972" d="M1628 860v-620q0 -66 28.5 -102t80.5 -36q20 0 53 11q15 6 25 -11l34 -75q8 -19 -8 -25q-46 -22 -104 -22q-114 0 -178 67.5t-64 190.5v622h-530v-620q0 -66 28 -102t80 -36q20 0 53 11q15 6 25 -11l35 -75q8 -19 -8 -25q-46 -22 -105 -22q-114 0 -178 67.5t-64 190.5 v622h-477v-842q0 -18 -18 -18h-96q-19 0 -19 18v842h-94q-18 0 -18 19v84q0 18 18 18h94v182q0 141 74.5 223t204.5 82q41 0 94 -16l18 -6q19 -6 13 -25l-27 -80q-6 -16 -25 -10l-12 4q-24 8 -61 8q-68 0 -107 -48.5t-39 -131.5v-182h477v246q0 17 15 20l98 33q9 3 15 -1.5 t6 -14.5v-283h530v246q0 17 14 20l99 33q20 7 20 -16v-283h227q19 0 19 -18v-84q0 -19 -19 -19h-227z" />
<glyph unicode="tti" horiz-adv-x="1853" d="M1606 1278q-42 0 -66 24t-24 66t24 66t66 24q41 0 64.5 -23.5t23.5 -66.5t-23.5 -66.5t-64.5 -23.5zM1018 981h657q19 0 19 -18v-945q0 -18 -19 -18h-96q-18 0 -18 18v842h-543v-620q0 -66 28 -102t80 -36q21 0 54 11q14 6 24 -11l35 -75q8 -19 -8 -25q-46 -22 -105 -22 q-114 0 -177.5 67.5t-63.5 190.5v622h-531v-620q0 -66 28.5 -102t80.5 -36q20 0 53 11q15 6 25 -11l34 -75q8 -19 -8 -25q-46 -22 -104 -22q-114 0 -178 67.5t-64 190.5v622h-94q-18 0 -18 19v84q0 18 18 18h94v246q0 17 15 20l98 33q20 7 20 -16v-283h531v246q0 17 14 20 l98 33q9 3 15 -1.5t6 -14.5v-283z" />
<glyph unicode="ttj" horiz-adv-x="1853" d="M1608 1278q-41 0 -64.5 23.5t-23.5 66.5t23.5 66.5t64.5 23.5q43 0 65.5 -23.5t22.5 -66.5t-22.5 -66.5t-65.5 -23.5zM1018 981h659q19 0 19 -18v-1082q0 -93 -37 -161.5t-115 -122.5l-61 -46q-16 -13 -27 5l-47 75q-7 17 6 25l60 45q88 62 88 180v979h-545v-620 q0 -66 28 -102t80 -36q21 0 54 11q14 6 24 -11l35 -75q8 -19 -8 -25q-46 -22 -105 -22q-114 0 -177.5 67.5t-63.5 190.5v622h-531v-620q0 -66 28.5 -102t80.5 -36q20 0 53 11q15 6 25 -11l34 -75q8 -19 -8 -25q-46 -22 -104 -22q-114 0 -178 67.5t-64 190.5v622h-94 q-18 0 -18 19v84q0 18 18 18h94v246q0 17 15 20l98 33q20 7 20 -16v-283h531v246q0 17 14 20l98 33q9 3 15 -1.5t6 -14.5v-283z" />
<glyph unicode="fb" horiz-adv-x="1806" d="M967 1430v-377q0 -118 -17 -207q-5 -17 5 -21t20 11q110 165 311 165q196 0 307 -136t111 -373q0 -238 -119 -375t-328 -137q-143 0 -262 53l-147 63q-14 6 -14 21v1208h-330q-71 0 -110.5 -47t-39.5 -133v-164h228q18 0 18 -18v-84q0 -19 -18 -19h-228v-842 q0 -18 -18 -18h-96q-19 0 -19 18v842h-94q-18 0 -18 19v84q0 18 18 18h94v164q0 144 75 223.5t208 79.5h444q19 0 19 -18zM965 188l84 -43q95 -43 208 -43q148 0 231 103.5t83 286.5q0 182 -79 284.5t-218 102.5q-150 0 -229.5 -114.5t-79.5 -295.5v-281z" />
<glyph unicode="ff" horiz-adv-x="1302" d="M1214 1319l-26 10q-35 14 -72 14q-70 0 -109.5 -49t-39.5 -135v-178h227q18 0 18 -18v-84q0 -19 -18 -19h-227v-842q0 -18 -19 -18h-96q-18 0 -18 18v842h-480v-842q0 -18 -18 -18h-96q-19 0 -19 18v842h-94q-18 0 -18 19v84q0 18 18 18h94v182q0 141 74.5 223t204.5 82 q41 0 94 -16l18 -6q19 -6 13 -25l-27 -80q-6 -16 -25 -10l-12 4q-24 8 -61 8q-68 0 -107 -48.5t-39 -131.5v-182h480v178q0 145 75 227t207 82q55 0 109 -22l32 -12q17 -7 11 -23l-31 -82q-7 -17 -23 -10z" />
<glyph unicode="fh" horiz-adv-x="1812" d="M967 1430v-377q0 -109 -19 -209q-3 -14 6 -17.5t21 9.5q113 165 325 165q169 0 266 -106t97 -291v-586q0 -18 -18 -18h-97q-18 0 -18 18v576q0 134 -64 209.5t-178 75.5q-85 0 -149 -33t-100.5 -91.5t-54 -130t-17.5 -157.5v-449q0 -18 -19 -18h-96q-18 0 -18 18v1307 h-330q-71 0 -110.5 -47t-39.5 -133v-164h228q18 0 18 -18v-84q0 -19 -18 -19h-228v-842q0 -18 -18 -18h-96q-19 0 -19 18v842h-94q-18 0 -18 19v84q0 18 18 18h94v164q0 144 75 223.5t208 79.5h444q19 0 19 -18z" />
<glyph unicode="fi" horiz-adv-x="1128" d="M221 981v182q0 141 74 223t203 82q37 0 96 -16l35 -10q15 -6 12 -23l-23 -86q-3 -18 -22 -12l-31 10q-30 12 -67 12q-66 0 -105 -48.5t-39 -131.5v-182h594q19 0 19 -18v-945q0 -18 -19 -18h-96q-18 0 -18 18v842h-480v-842q0 -18 -18 -18h-96q-19 0 -19 18v842h-94 q-18 0 -18 19v84q0 18 18 18h94zM883 1458q41 0 64.5 -23.5t23.5 -66.5t-23.5 -66.5t-64.5 -23.5t-64.5 23.5t-23.5 66.5t23.5 66.5t64.5 23.5z" />
<glyph unicode="fj" horiz-adv-x="1130" d="M221 981v182q0 141 74 223t203 82q37 0 96 -16l35 -10q15 -6 12 -23l-25 -86q-3 -18 -22 -12l-29 10q-30 12 -67 12q-67 0 -105.5 -48t-38.5 -132v-182h594q19 0 19 -18v-1082q0 -181 -150 -284l-61 -46q-16 -13 -27 5l-45 73q-10 17 4 25l57 47q89 60 89 180v979h-480 v-842q0 -18 -18 -18h-96q-19 0 -19 18v842h-94q-18 0 -18 19v84q0 18 18 18h94zM885 1458q41 0 64.5 -23.5t23.5 -66.5t-23.5 -66.5t-64.5 -23.5q-42 0 -66 24t-24 66t24 66t66 24z" />
<glyph unicode="fk" horiz-adv-x="1701" d="M1405 299l205 -276q6 -9 2.5 -16t-15.5 -7h-112q-13 0 -23 10l-178 236q-31 40 -45.5 58t-44.5 48.5t-53.5 44.5t-58 25.5t-72.5 11.5h-43v-416q0 -18 -19 -18h-96q-18 0 -18 18v1307h-330q-71 0 -110.5 -47t-39.5 -133v-164h228q18 0 18 -18v-84q0 -19 -18 -19h-228 v-842q0 -18 -18 -18h-96q-19 0 -19 18v842h-94q-18 0 -18 19v84q0 18 18 18h94v164q0 144 75 223.5t208 79.5h444q19 0 19 -18v-873h39q39 0 75 15t69.5 45t57 56t56.5 66q3 4 4.5 5.5t3.5 4.5t4 5l170 217q10 10 22 10h113q12 0 15 -7t-3 -16l-200 -262 q-118 -154 -203 -186q-19 -10 0 -18q94 -37 215 -193z" />
<glyph unicode="fl" horiz-adv-x="1193" d="M1061 94l35 -80q7 -17 -11 -24q-33 -10 -65 -10q-88 0 -137 51.5t-49 144.5v1149h-330q-71 0 -110.5 -47t-39.5 -133v-164h228q18 0 18 -18v-84q0 -19 -18 -19h-228v-842q0 -18 -18 -18h-96q-19 0 -19 18v842h-94q-18 0 -18 19v84q0 18 18 18h94v164q0 144 75 223.5 t208 79.5h444q19 0 19 -18v-1254q0 -74 53 -74q12 0 18 2q16 7 23 -10z" />
<glyph unicode="ft" horiz-adv-x="1308" d="M965 860v-620q0 -66 28 -102t80 -36q20 0 53 11q15 6 25 -11l35 -75q8 -19 -8 -25q-46 -22 -105 -22q-114 0 -178 67.5t-64 190.5v622h-477v-842q0 -18 -18 -18h-96q-19 0 -19 18v842h-94q-18 0 -18 19v84q0 18 18 18h94v182q0 141 74.5 223t204.5 82q41 0 94 -16l18 -6 q19 -6 13 -25l-27 -80q-6 -16 -25 -10l-12 4q-24 8 -61 8q-68 0 -107 -48.5t-39 -131.5v-182h477v246q0 17 15 20l98 33q9 3 15 -1.5t6 -14.5v-283h227q18 0 18 -18v-84q0 -19 -18 -19h-227z" />
<glyph unicode="ti" horiz-adv-x="1189" d="M942 1278q-42 0 -66 24t-24 66t24 66t66 24q41 0 64.5 -23.5t23.5 -66.5t-23.5 -66.5t-64.5 -23.5zM354 981h658q18 0 18 -18v-945q0 -18 -18 -18h-97q-18 0 -18 18v842h-543v-620q0 -66 28.5 -102t80.5 -36q20 0 53 11q15 6 25 -11l34 -75q8 -19 -8 -25 q-46 -22 -104 -22q-114 0 -178 67.5t-64 190.5v622h-94q-18 0 -18 19v84q0 18 18 18h94v246q0 17 15 20l98 33q20 7 20 -16v-283z" />
<glyph unicode="tj" horiz-adv-x="1189" d="M944 1278q-41 0 -64.5 23.5t-23.5 66.5t23.5 66.5t64.5 23.5q43 0 65.5 -23.5t22.5 -66.5t-22.5 -66.5t-65.5 -23.5zM354 981h660q18 0 18 -18v-1082q0 -93 -36.5 -161.5t-114.5 -122.5l-62 -46q-16 -12 -26 5l-48 75q-7 17 7 25l59 45q88 62 88 180v979h-545v-620 q0 -66 28.5 -102t80.5 -36q20 0 53 11q15 6 25 -11l34 -75q8 -19 -8 -25q-46 -22 -104 -22q-114 0 -178 67.5t-64 190.5v622h-94q-18 0 -18 19v84q0 18 18 18h94v246q0 17 15 20l98 33q20 7 20 -16v-283z" />
<glyph unicode="tt" horiz-adv-x="1361" d="M1018 860v-620q0 -66 28 -102t80 -36q21 0 54 11q14 6 24 -11l35 -75q8 -19 -8 -25q-46 -22 -105 -22q-114 0 -177.5 67.5t-63.5 190.5v622h-531v-620q0 -66 28.5 -102t80.5 -36q20 0 53 11q15 6 25 -11l34 -75q8 -19 -8 -25q-46 -22 -104 -22q-114 0 -178 67.5 t-64 190.5v622h-94q-18 0 -18 19v84q0 18 18 18h94v246q0 17 15 20l98 33q20 7 20 -16v-283h531v246q0 17 14 20l98 33q9 3 15 -1.5t6 -14.5v-283h227q19 0 19 -18v-84q0 -19 -19 -19h-227z" />
<glyph unicode="&#x407;&#x407;" horiz-adv-x="991" d="M201 1765q40 0 64 -23t24 -63q0 -39 -24 -61.5t-64 -22.5q-43 0 -66.5 22t-23.5 62t24 63t66 23zM504 1765q41 0 64.5 -23t23.5 -63t-23.5 -62t-64.5 -22q-43 0 -66.5 22t-23.5 62t24 63t66 23zM811 1765q40 0 64 -23t24 -63q0 -39 -24 -61.5t-64 -22.5q-44 0 -67 22 t-23 62t23 63t67 23zM180 18v1373q0 18 19 18h98q18 0 18 -18v-1373q0 -18 -18 -18h-98q-19 0 -19 18zM676 18v1373q0 18 18 18h99q18 0 18 -18v-1373q0 -18 -18 -18h-99q-18 0 -18 18z" />
<glyph unicode="&#x457;&#x457;" horiz-adv-x="1019" d="M236 1458q40 0 63 -23.5t23 -64.5q0 -42 -23 -65t-63 -23t-62 23t-22 65q0 41 22 64.5t62 23.5zM514 1458q39 0 62.5 -23.5t23.5 -64.5t-23.5 -64.5t-62.5 -23.5q-40 0 -63 23.5t-23 64.5t23 64.5t63 23.5zM791 1458q40 0 63 -23.5t23 -64.5q0 -42 -23 -65t-63 -23 t-63 23t-23 65q0 41 23 64.5t63 23.5zM238 860h-95q-18 0 -18 19v84q0 18 18 18h209q19 0 19 -18v-945q0 -18 -19 -18h-96q-18 0 -18 18v842zM733 860h-94q-18 0 -18 19v84q0 18 18 18h209q18 0 18 -18v-945q0 -18 -18 -18h-96q-19 0 -19 18v842z" />
<glyph unicode="&#xd;" horiz-adv-x="806" />
<glyph unicode=" "  horiz-adv-x="440" />
<glyph unicode="&#x09;" horiz-adv-x="440" />
<glyph unicode="&#xa0;" horiz-adv-x="440" />
<glyph unicode="!" horiz-adv-x="485" d="M311 1393v-607q0 -79 -8.5 -237.5t-9.5 -208.5q0 -18 -19 -18h-63q-18 0 -18 18q-1 53 -10 210.5t-9 235.5v607q0 18 19 18h100q18 0 18 -18zM252 184q47 0 73.5 -27.5t26.5 -74.5t-26.5 -74.5t-73.5 -27.5t-72.5 27t-25.5 75t25.5 75t72.5 27z" />
<glyph unicode="&#x22;" horiz-adv-x="636" d="M256 1430v-91q0 -31 -9 -106t-11 -100q-3 -19 -21 -19h-55q-18 0 -21 16q-2 17 -12 97t-10 112v91q0 18 18 18h103q18 0 18 -18zM520 1430v-91q0 -31 -9 -106t-11 -100q-3 -19 -21 -19h-55q-18 0 -21 16q-2 17 -12 97t-10 112v91q0 18 18 18h103q18 0 18 -18z" />
<glyph unicode="#" horiz-adv-x="1488" d="M1133 983l-80 -555h217q18 0 18 -20l-14 -84q-3 -17 -19 -17h-219l-41 -291q-3 -16 -18 -16h-90q-9 0 -14.5 5.5t-4.5 14.5l41 287h-444l-41 -291q-3 -16 -18 -16h-91q-21 0 -18 20l41 287h-211q-18 0 -18 21l14 84q3 16 18 16h213l80 555h-213q-19 0 -16 18l8 84 q3 19 20 19h218l41 289q3 16 18 16h88q21 0 18 -20l-41 -285h447l41 289q3 16 18 16h90q9 0 14.5 -5.5t4.5 -14.5l-41 -285h213q19 0 16 -19l-8 -84q-3 -18 -20 -18h-217zM1006 983h-447l-78 -555h445z" />
<glyph unicode="$" horiz-adv-x="1218" d="M680 760l108 -41q155 -58 232.5 -139.5t77.5 -214.5q0 -162 -114.5 -262.5t-303.5 -118.5v-177q0 -18 -18 -18h-99q-18 0 -18 18v175q-167 8 -326 67l-82 31q-16 6 -10 22l31 84q6 19 22 13l82 -31q139 -51 283 -59v563l-92 35q-166 62 -236 148t-70 218q0 157 107 251.5 t291 105.5v167q0 19 18 19h99q18 0 18 -19v-170q116 -13 221 -47l103 -32q18 -6 12 -25l-29 -84q-6 -16 -22 -10l-99 31q-87 29 -186 38v-538zM545 811v489q-120 -11 -190 -71t-70 -156q0 -79 48.5 -140.5t172.5 -107.5zM680 621v-510q124 18 201 84.5t77 169.5 q0 150 -221 235z" />
<glyph unicode="%" horiz-adv-x="1546" d="M418 1411q138 0 216.5 -79.5t78.5 -221.5q0 -141 -78.5 -222t-216.5 -81q-137 0 -216 81t-79 222q0 142 79 221.5t216 79.5zM1305 1370l-940 -1358q-9 -12 -23 -12h-92q-11 0 -14 7t4 16l940 1357q10 13 22 13h92q11 0 14.5 -7t-3.5 -16zM418 1305q-86 0 -134 -51.5 t-48 -143.5q0 -91 48 -143t134 -52t134 52t48 143q0 92 -48 143.5t-134 51.5zM1128 582q137 0 215 -79.5t78 -221.5q0 -141 -78 -221t-215 -80q-138 0 -217.5 80t-79.5 221q0 142 79 221.5t218 79.5zM1128 475q-86 0 -134 -51t-48 -143q0 -90 48 -141.5t134 -51.5 q84 0 132.5 51.5t48.5 141.5q0 92 -48 143t-133 51z" />
<glyph unicode="&#x26;" horiz-adv-x="1398" d="M1270 0h-123q-15 0 -25 10l-223 236l-137 -123q-85 -81 -162.5 -112t-177.5 -31q-148 0 -233 80.5t-85 218.5q0 89 36 159.5t132 155.5l156 147q-80 88 -113.5 165.5t-33.5 168.5q0 161 111.5 259t291.5 98q78 0 129.5 -10t136.5 -38l80 -26q18 -6 12 -25l-28 -82 q-7 -17 -23 -10l-80 25q-67 22 -112.5 30.5t-114.5 8.5q-123 0 -197.5 -62.5t-74.5 -167.5q0 -71 26.5 -129t98.5 -135l366 -389l27 22q47 46 66.5 67t42 51.5t29.5 58t7 63.5v61h-131q-18 0 -18 19v84q0 18 18 18h242q18 0 18 -18v-164q0 -100 -41 -166.5t-153 -171.5 l-19 -16l289 -307q8 -9 5 -16t-15 -7zM811 338l-299 313l-168 -155q-63 -61 -84.5 -109t-21.5 -108q0 -80 48.5 -126.5t135.5 -46.5q79 0 137 24.5t125 90.5z" />
<glyph unicode="'" horiz-adv-x="372" d="M256 1430v-91q0 -31 -9 -106t-11 -100q-3 -19 -21 -19h-55q-18 0 -21 16q-2 17 -12 97t-10 112v91q0 18 18 18h103q18 0 18 -18z" />
<glyph unicode="(" horiz-adv-x="688" d="M510 -203h-92q-15 0 -21 15q-182 403 -182 847q0 448 182 848q6 15 21 15h92q9 0 13 -6t1 -15q-86 -207 -134 -407t-48 -435t48 -434.5t134 -406.5q3 -9 -1 -15t-13 -6z" />
<glyph unicode=")" horiz-adv-x="688" d="M270 -203h-92q-9 0 -13 6t-1 15q86 207 134 406.5t48 434.5t-48 435t-134 407q-3 9 1 15t13 6h92q15 0 21 -15q182 -400 182 -848q0 -444 -182 -847q-6 -15 -21 -15z" />
<glyph unicode="*" horiz-adv-x="802" d="M690 1104h-127q-11 0 -84 10q-6 2 -8 -2t2 -10q43 -48 51 -64l86 -153q5 -9 1.5 -16t-13.5 -7h-76q-13 0 -22 12l-62 111q-14 22 -26 66q-1 2 -3.5 9.5t-5.5 10.5q-7 3 -10 -10q-17 -58 -28 -76l-62 -111q-9 -12 -22 -12h-76q-10 0 -13.5 7t1.5 16l83 147q5 12 13 23.5 t22 28t17 20.5q4 6 1.5 10t-7.5 2q-62 -12 -97 -12h-112q-19 0 -19 18v66q0 18 19 18h112q5 0 86 -6q16 -4 19 0q0 4 -2 8q-36 40 -49 62l-86 155q-6 9 -2.5 16t14.5 7h76q13 0 22 -12l62 -111q20 -38 28 -78q3 -9 9 -8t8 10q10 46 26 72l64 115q9 12 22 12h76q10 0 13.5 -7 t-1.5 -16l-88 -155q-16 -31 -47 -62q-4 -6 -2 -9t8 -1q58 8 82 8h127q19 0 19 -18v-66q0 -18 -19 -18z" />
<glyph unicode="+" horiz-adv-x="1298" d="M1133 580v-86q0 -19 -19 -19h-401v-438q0 -19 -19 -19h-90q-18 0 -18 19v438h-402q-18 0 -18 19v86q0 18 18 18h402v438q0 19 18 19h90q19 0 19 -19v-438h401q19 0 19 -18z" />
<glyph unicode="," horiz-adv-x="450" d="M211 -240l72 146q45 87 45 166q0 52 -28 83t-73 31q-48 0 -76 -27.5t-28 -76.5q0 -35 17.5 -60.5t43.5 -33.5q20 -6 23.5 -16t-8.5 -33l-88 -179h100z" />
<glyph unicode="-" horiz-adv-x="901" d="M184 598h533q18 0 18 -18v-84q0 -19 -18 -19h-533q-18 0 -18 19v84q0 18 18 18z" />
<glyph unicode="." horiz-adv-x="464" d="M231 184q47 0 74 -27.5t27 -74.5t-27 -74.5t-74 -27.5t-72.5 27t-25.5 75t25.5 75t72.5 27z" />
<glyph unicode="/" horiz-adv-x="964" d="M797 1522h96q9 0 13 -6t1 -15l-696 -1689q-6 -15 -23 -15h-96q-9 0 -13 6t-1 15l696 1689q6 15 23 15z" />
<glyph unicode="0" horiz-adv-x="1288" d="M645 1432q243 0 381.5 -194t138.5 -533q0 -338 -138.5 -531.5t-381.5 -193.5q-244 0 -383 193t-139 532t139 533t383 194zM645 1307q-183 0 -285 -159.5t-102 -442.5q0 -284 102 -443.5t285 -159.5q180 0 282.5 159.5t102.5 443.5q0 282 -102.5 442t-282.5 160z" />
<glyph unicode="1" horiz-adv-x="653" d="M455 0h-97q-18 0 -18 18v1092q0 14 6 113q0 20 -12 20q-5 0 -17 -6l-161 -84q-17 -7 -25 10l-35 82q-6 15 10 25l320 155q16 6 27 -2l10 -8q10 -10 10 -22v-1375q0 -18 -18 -18z" />
<glyph unicode="2" horiz-adv-x="1167" d="M174 1348l102 32q173 52 312 52q203 0 322.5 -97t119.5 -264q0 -94 -54.5 -175t-170.5 -161l-344 -246q-182 -127 -182 -368h716q19 0 19 -19v-84q0 -18 -19 -18h-833q-19 0 -19 18v72q0 332 248 504l346 244q158 113 158 233q0 107 -83.5 171.5t-223.5 64.5 q-155 0 -273 -43l-102 -33q-19 -6 -25 10l-26 82q-6 19 12 25z" />
<glyph unicode="3" horiz-adv-x="1150" d="M174 1358l90 26q156 48 293 48q196 0 311 -99.5t115 -271.5q0 -222 -192 -301q-15 -6 -15 -13.5t15 -13.5q115 -39 175 -131t60 -223q0 -184 -128 -291.5t-345 -107.5q-147 0 -313 51l-107 30q-18 6 -12 25l31 82q6 16 22 10l102 -31q153 -45 277 -45q153 0 245.5 78.5 t92.5 208.5q0 138 -90.5 214.5t-251.5 76.5h-78q-18 0 -18 18v86q0 19 18 19h78q141 0 221 67t80 183q0 118 -80 186t-213 68q-129 0 -254 -39l-92 -27q-16 -7 -23 10l-26 82q-6 19 12 25z" />
<glyph unicode="4" horiz-adv-x="1232" d="M1114 504v-86q0 -19 -18 -19h-127v-381q0 -18 -19 -18h-96q-18 0 -18 18v381h-719q-19 0 -19 19v96q0 12 8 23q19 20 134 159l467 572q53 63 90 129q9 12 22 12h131q19 0 19 -18v-869h127q18 0 18 -18zM836 522v531q0 78 10 153q2 15 -7.5 18t-19.5 -10l-454 -552 q-89 -107 -99 -115q-9 -11 -6 -18t14 -7h562z" />
<glyph unicode="5" horiz-adv-x="1206" d="M983 1389l-25 -84q-3 -17 -20 -17h-602v-311q0 -72 -4 -105q-3 -15 2.5 -19t21.5 -1l58 8q117 19 198 19q219 0 341 -117t122 -326q0 -215 -134.5 -335.5t-373.5 -120.5q-138 0 -313 51l-104 32q-19 6 -13 25l31 82q6 16 22 10l103 -33q140 -45 274 -45q174 0 273.5 89 t99.5 245q2 150 -87 234t-255 84q-96 0 -209 -17l-133 -18q-13 -3 -25 6l-18 18q-10 7 -10 23v625q0 18 18 18h746q23 0 16 -20z" />
<glyph unicode="6" horiz-adv-x="1230" d="M780 1386l-327 -438q-50 -70 -97 -125q-11 -15 -3.5 -22.5t26.5 2.5q117 74 268 74q216 0 342.5 -119.5t126.5 -329.5q0 -212 -131 -330t-367 -118q-239 0 -367 121t-128 345q0 159 51.5 283.5t167.5 282.5l285 385q9 12 22 12h119q12 0 15 -7t-3 -16zM618 102 q172 0 267.5 86.5t95.5 239.5q0 154 -95 240t-268 86q-171 0 -265.5 -86t-94.5 -240q0 -153 94.5 -239.5t265.5 -86.5z" />
<glyph unicode="7" horiz-adv-x="1171" d="M1067 1397l8 -17q6 -13 -2 -24q-33 -54 -104 -203l-504 -1139q-6 -14 -21 -14h-104q-11 0 -14.5 6t0.5 17l499 1124q24 56 66 115q8 15 3 20.5t-24 5.5h-751q-19 0 -19 19v84q0 18 19 18h925q14 0 23 -12z" />
<glyph unicode="8" horiz-adv-x="1253" d="M627 1432q213 0 334.5 -99.5t121.5 -269.5q0 -108 -55 -187t-168 -116q-11 -4 -15 -9.5t0 -11t15 -8.5q122 -41 195 -137.5t73 -218.5q0 -184 -133.5 -289.5t-367.5 -105.5t-368 106t-134 289q0 123 72 219t194 137q11 3 15 8.5t0 11t-15 9.5q-112 37 -167.5 116 t-55.5 187q0 170 122.5 269.5t336.5 99.5zM627 1307q-152 0 -238 -68t-86 -188q0 -115 86.5 -180.5t237.5 -65.5q147 0 234 65.5t87 180.5q0 120 -85.5 188t-235.5 68zM627 680q-158 0 -261.5 -81t-103.5 -216q0 -131 98 -206t267 -75q171 0 268.5 74.5t97.5 206.5 q0 135 -104 216t-262 81z" />
<glyph unicode="9" horiz-adv-x="1230" d="M449 23l327 438q56 78 96 125q11 15 3.5 22.5t-25.5 -2.5q-117 -74 -268 -74q-216 0 -342.5 119.5t-126.5 329.5q0 213 130.5 331t366.5 118q239 0 367.5 -121.5t128.5 -345.5q0 -159 -51.5 -283.5t-167.5 -282.5l-285 -385q-9 -12 -22 -12h-119q-12 0 -15 7t3 16z M610 1307q-172 0 -267 -86.5t-95 -239.5q0 -154 94.5 -240t267.5 -86q171 0 266 86t95 240q0 153 -95 239.5t-266 86.5z" />
<glyph unicode=":" horiz-adv-x="444" d="M231 1001q47 0 74 -27.5t27 -74.5t-27 -74.5t-74 -27.5t-72.5 27t-25.5 75t25.5 75t72.5 27zM231 184q47 0 74 -27.5t27 -74.5t-27 -74.5t-74 -27.5t-72.5 27t-25.5 75t25.5 75t72.5 27z" />
<glyph unicode=";" horiz-adv-x="464" d="M246 1001q47 0 73.5 -27.5t26.5 -74.5t-26.5 -74.5t-73.5 -27.5t-73 27t-26 75t26 75t73 27zM225 -231l72 145q45 87 45 166q0 52 -27.5 83.5t-72.5 31.5q-48 0 -76.5 -28t-28.5 -77q0 -35 18 -60.5t44 -33.5q20 -6 23 -16t-9 -33l-88 -178h100z" />
<glyph unicode="&#x3c;" horiz-adv-x="1298" d="M180 578l930 430q10 4 16.5 0t6.5 -15v-98q0 -15 -15 -21l-780 -354l780 -356q15 -6 15 -21v-98q0 -11 -6.5 -14.5t-16.5 0.5l-930 432q-14 6 -14 20v74q0 15 14 21z" />
<glyph unicode="=" horiz-adv-x="1239" d="M184 819h873q18 0 18 -18v-84q0 -19 -18 -19h-873q-18 0 -18 19v84q0 18 18 18zM184 377h873q18 0 18 -19v-84q0 -18 -18 -18h-873q-18 0 -18 18v84q0 19 18 19z" />
<glyph unicode="&#x3e;" horiz-adv-x="1298" d="M188 1008l930 -430q15 -6 15 -21v-74q0 -14 -15 -20l-930 -432q-22 -9 -22 14v98q0 15 14 21l781 356l-781 354q-14 6 -14 21v98q0 24 22 15z" />
<glyph unicode="?" horiz-adv-x="1126" d="M121 1348l106 32q183 52 316 52q210 0 329 -91.5t119 -250.5q0 -99 -51 -180.5t-162 -159.5l-90 -64q-55 -39 -90 -93.5t-35 -117.5v-139q0 -19 -18 -19h-96q-19 0 -19 19v139q0 187 180 313l92 64q80 53 117 109.5t37 128.5q0 95 -86 152.5t-227 57.5q-123 0 -275 -40 l-106 -33q-16 -7 -23 10l-30 86q-6 19 12 25zM508 184q47 0 73.5 -27.5t26.5 -74.5t-26.5 -74.5t-73.5 -27.5t-72.5 27t-25.5 75t25.5 75t72.5 27z" />
<glyph unicode="@" horiz-adv-x="1773" d="M1395 -117l-135 -39q-193 -59 -394 -59q-325 0 -523 199.5t-198 525.5q0 325 201.5 525t530.5 200q167 0 308 -50.5t238 -141t151 -217.5t54 -277q0 -130 -63.5 -199t-169.5 -69q-99 0 -158.5 54.5t-122.5 201.5q-43 100 -96.5 143t-136.5 43q-98 0 -154.5 -55 t-56.5 -152q0 -103 61 -160t170 -57q68 0 160 25l24 6q15 3 23 -8q34 -48 61 -68q11 -6 10.5 -13t-12.5 -10l-73 -22q-98 -31 -193 -31q-167 0 -260.5 89.5t-93.5 248.5q0 153 88 239.5t244 86.5q112 0 188 -50t135 -169q70 -137 94 -168q44 -52 99 -54q48 0 78 37.5 t30 110.5q0 251 -173.5 408t-452.5 157q-272 0 -439.5 -166.5t-167.5 -437.5t164.5 -437.5t431.5 -166.5q177 0 361 57l133 37q16 3 22 -12l25 -80q6 -19 -12 -25z" />
<glyph unicode="A" horiz-adv-x="1425" d="M1053 358h-680l-140 -344q-6 -14 -22 -14h-107q-9 0 -13 5.5t-1 14.5l422 1020q71 179 119 353q3 16 20 16h121q18 0 21 -16q43 -155 120 -353l420 -1020q3 -9 -1 -14.5t-13 -5.5h-105q-16 0 -22 14zM424 483h577l-188 453q-62 153 -88 272q-2 9 -7.5 12t-11.5 0t-8 -12 q-22 -113 -88 -272z" />
<glyph unicode="B" horiz-adv-x="1323" d="M199 1409h544q197 0 308.5 -90.5t111.5 -251.5q0 -118 -57.5 -202.5t-157.5 -121.5q-12 -3 -16.5 -8.5t0 -11.5t16.5 -10q121 -30 191.5 -118.5t70.5 -225.5q0 -175 -115.5 -272t-322.5 -97h-573q-19 0 -19 18v1373q0 18 19 18zM315 1286v-502h338q179 0 276 73t97 200 q0 106 -76 167.5t-207 61.5h-428zM315 662v-539h457q140 0 219.5 67t79.5 187q0 141 -104 213t-305 72h-347z" />
<glyph unicode="C" horiz-adv-x="1234" d="M1092 63l-84 -30q-83 -30 -146.5 -41.5t-148.5 -11.5q-279 0 -438.5 194.5t-159.5 530.5q0 338 159.5 532.5t438.5 194.5q87 0 149 -11t142 -41l86 -30q17 -7 10 -23l-29 -84q-6 -18 -24 -12l-86 33q-61 23 -115 31t-133 8q-218 0 -338.5 -157.5t-120.5 -440.5 q0 -282 120.5 -440.5t338.5 -158.5q127 0 252 46l84 28q16 6 22 -10l31 -84q7 -16 -10 -23z" />
<glyph unicode="D" horiz-adv-x="1359" d="M199 1409h452q276 0 434 -188t158 -516q0 -326 -158.5 -515.5t-433.5 -189.5h-452q-19 0 -19 18v1373q0 18 19 18zM315 1286v-1163h336q215 0 335 154t120 428q0 275 -120 428t-335 153h-336z" />
<glyph unicode="E" horiz-adv-x="1228" d="M315 784h637q19 0 19 -18v-86q0 -18 -19 -18h-637v-539h787q18 0 18 -19v-86q0 -18 -18 -18h-903q-19 0 -19 18v1373q0 18 19 18h895q23 0 16 -20l-27 -86q-3 -17 -20 -17h-748v-502z" />
<glyph unicode="F" horiz-adv-x="1202" d="M315 739h643q19 0 19 -18v-86q0 -19 -19 -19h-643v-598q0 -18 -18 -18h-98q-19 0 -19 18v1373q0 18 19 18h880q11 0 15.5 -5.5t1.5 -14.5l-25 -86q-3 -17 -20 -17h-736v-547z" />
<glyph unicode="G" horiz-adv-x="1335" d="M801 696h364q19 0 19 -18v-567q0 -18 -15 -21l-34 -12l-131 -47q-84 -30 -144.5 -40.5t-148.5 -10.5q-279 0 -437.5 193.5t-158.5 531.5q0 336 159 531.5t437 195.5q84 0 146.5 -12t148.5 -42l86 -30q17 -7 10 -23l-31 -86q-6 -16 -22 -10l-86 31q-122 43 -252 43 q-216 0 -336.5 -158t-120.5 -440t120.5 -440.5t336.5 -158.5q141 3 247 41l93 33v393h-279q-10 0 -14.5 6t-1.5 15l24 86q3 16 21 16z" />
<glyph unicode="H" horiz-adv-x="1413" d="M1233 1391v-1373q0 -18 -19 -18h-100q-18 0 -18 18v644h-781v-644q0 -18 -18 -18h-98q-19 0 -19 18v1373q0 18 19 18h98q18 0 18 -18v-607h781v607q0 18 18 18h100q19 0 19 -18z" />
<glyph unicode="I" horiz-adv-x="495" d="M315 1391v-1373q0 -18 -18 -18h-98q-19 0 -19 18v1373q0 18 19 18h98q18 0 18 -18z" />
<glyph unicode="J" horiz-adv-x="870" d="M686 1391v-1014q0 -184 -95 -290.5t-259 -106.5q-93 0 -166 24l-55 19q-19 6 -13 24l29 84q7 17 23 10l53 -16q58 -19 129 -19q102 0 159.5 70t57.5 201v1014q0 18 18 18h101q18 0 18 -18z" />
<glyph unicode="K" horiz-adv-x="1296" d="M1176 1386l-263 -370q-67 -95 -155.5 -171t-161.5 -106q-27 -12 0 -24q169 -67 334 -297l274 -395q7 -9 4 -16t-14 -7h-117q-13 0 -22 12l-238 338q-91 134 -207 223t-243 89h-52v-644q0 -18 -18 -18h-98q-19 0 -19 18v1373q0 18 19 18h98q18 0 18 -18v-607h47 q85 0 171 46.5t148.5 109t117.5 141.5l231 316q9 12 23 12h112q11 0 14.5 -7t-3.5 -16z" />
<glyph unicode="L" horiz-adv-x="1150" d="M315 123h701q18 0 18 -19v-86q0 -18 -18 -18h-817q-19 0 -19 18v1373q0 18 19 18h98q18 0 18 -18v-1268z" />
<glyph unicode="M" horiz-adv-x="1644" d="M1464 1391v-1373q0 -18 -18 -18h-100q-19 0 -19 18v893q0 158 14 273q2 19 -9 22.5t-17 -16.5q-26 -72 -68 -164l-278 -606q-35 -81 -78 -203q-3 -14 -21 -14h-96q-17 0 -20 14q-48 138 -80 203l-275 604q-14 28 -71 166q-4 13 -10.5 16t-11 -3.5t-3.5 -18.5 q12 -123 12 -273v-893q0 -18 -18 -18h-98q-19 0 -19 18v1373q0 18 19 18h161q18 0 21 -16q26 -84 63 -162l304 -670q37 -90 59 -168q5 -15 15 -15t14 15q31 100 59 166l305 672q42 90 62 162q3 16 20 16h164q18 0 18 -18z" />
<glyph unicode="N" horiz-adv-x="1439" d="M1260 1391v-1373q0 -18 -19 -18h-127q-14 0 -20 14q-39 82 -115 201l-584 856q-44 70 -67 121q-6 14 -17 10.5t-8 -18.5q14 -89 14 -195v-971q0 -18 -18 -18h-100q-19 0 -19 18v1373q0 18 19 18h129q14 0 20 -14q64 -122 115 -199l584 -856q40 -59 67 -123q6 -13 17 -9.5 t8 17.5q-15 76 -15 195v971q0 18 19 18h98q19 0 19 -18z" />
<glyph unicode="O" horiz-adv-x="1415" d="M709 1432q274 0 432.5 -196t158.5 -531t-158 -530t-433 -195q-276 0 -435 195t-159 530q0 336 159 531.5t435 195.5zM709 1303q-215 0 -335 -158t-120 -440t120 -440.5t335 -158.5t333.5 158.5t118.5 440.5t-118.5 440t-333.5 158z" />
<glyph unicode="P" horiz-adv-x="1269" d="M199 1409h495q221 0 344 -112t123 -312q0 -216 -147 -329t-434 -113h-265v-525q0 -18 -18 -18h-98q-19 0 -19 18v1373q0 18 19 18zM315 1286v-620h265q221 0 331.5 81t110.5 238q0 142 -87 221.5t-241 79.5h-379z" />
<glyph unicode="Q" horiz-adv-x="1417" d="M1350 -289l-74 -57q-15 -12 -27 2l-88 115q-80 107 -187.5 158t-264.5 51q-277 0 -435.5 194t-158.5 531q0 336 159 531.5t435 195.5q274 0 432.5 -196t158.5 -531q0 -241 -84.5 -406.5t-214.5 -224.5q-13 -6 -18 -11.5t0 -10t18 -7.5q69 -21 139.5 -72t127.5 -125 l86 -112q10 -17 -4 -25zM254 705q0 -282 120 -440.5t335 -158.5t333.5 158.5t118.5 440.5t-118.5 440t-333.5 158t-335 -158t-120 -440z" />
<glyph unicode="R" horiz-adv-x="1345" d="M199 1409h536q204 0 319 -100.5t115 -280.5q0 -137 -78.5 -230.5t-222.5 -140.5q-41 -13 -2 -32q131 -64 211 -252l150 -350q4 -11 0 -17t-13 -6h-106q-15 0 -21 14l-133 308q-60 146 -156 213t-247 67h-236v-584q0 -18 -18 -18h-98q-19 0 -19 18v1373q0 18 19 18z M315 725h295q201 0 311.5 78t110.5 219q0 124 -79 194t-218 70h-420v-561z" />
<glyph unicode="S" horiz-adv-x="1218" d="M737 600l-284 107q-166 62 -236 148t-70 218q0 167 120.5 263t324.5 96q145 0 309 -52l103 -32q18 -6 12 -25l-29 -84q-6 -16 -22 -10l-99 31q-133 43 -274 43q-139 0 -223 -62.5t-84 -167.5q0 -79 48.5 -140.5t172.5 -107.5l282 -106q155 -58 232.5 -139.5t77.5 -214.5 q0 -179 -137 -282t-357 -103q-197 0 -385 69l-82 31q-16 6 -10 22l31 84q6 19 22 13l82 -31q174 -62 342 -62q151 0 252.5 69.5t101.5 189.5q0 150 -221 235z" />
<glyph unicode="T" horiz-adv-x="1280" d="M1192 1391v-86q0 -19 -18 -19h-465v-1268q0 -18 -19 -18h-100q-19 0 -19 18v1268h-465q-18 0 -18 19v86q0 18 18 18h1068q18 0 18 -18z" />
<glyph unicode="U" horiz-adv-x="1363" d="M1204 1391v-838q0 -270 -137.5 -421.5t-384.5 -151.5t-384.5 151.5t-137.5 421.5v838q0 18 18 18h98q19 0 19 -18v-838q0 -212 101.5 -329.5t285.5 -117.5t285.5 117.5t101.5 329.5v838q0 18 18 18h99q18 0 18 -18z" />
<glyph unicode="V" horiz-adv-x="1388" d="M1309 1389l-422 -1012q-65 -164 -115 -361q-3 -16 -20 -16h-117q-18 0 -21 16q-55 217 -112 361l-422 1012q-3 9 1 14.5t13 5.5h107q16 0 22 -14l383 -924q53 -134 76 -256q1 -9 6.5 -12t11.5 0t7 12q24 127 75 256l383 924q6 14 23 14h106q9 0 13.5 -5.5t1.5 -14.5z" />
<glyph unicode="W" horiz-adv-x="1988" d="M1890 1389l-313 -1061q-52 -186 -78 -312q-3 -16 -18 -16h-121q-15 0 -21 16q-32 169 -73 295l-230 707q-23 96 -28 125q-3 15 -12.5 15t-12.5 -15q-3 -16 -29 -125l-229 -707q-43 -134 -74 -295q-6 -16 -20 -16h-121q-18 0 -21 16q-34 165 -75 312l-316 1061 q-3 9 1.5 14.5t15.5 5.5h100q18 0 21 -16l276 -920q30 -105 49 -242q1 -9 6 -12t10.5 0t6.5 12q11 103 53 242l299 922q3 14 20 14h76q18 0 21 -14l299 -922q43 -134 55 -242q0 -9 5.5 -12t11 0t6.5 12q13 125 49 242l274 920q3 16 21 16h100q23 0 16 -20z" />
<glyph unicode="X" horiz-adv-x="1353" d="M1212 1386l-370 -575q-44 -67 -76 -86q-8 -4 -8 -12.5t8 -12.5q39 -21 76 -86l381 -591q6 -9 2 -16t-15 -7h-112q-14 0 -23 12l-381 596q-16 25 -35 0l-383 -596q-9 -12 -22 -12h-113q-11 0 -14.5 7t2.5 16l383 591q36 65 76 86q6 5 6.5 12.5t-6.5 12.5q-38 21 -74 86 l-373 575q-6 9 -2 16t15 7h110q14 0 23 -12l372 -576q7 -13 17 -13t18 13l371 576q9 12 22 12h113q11 0 14.5 -7t-2.5 -16z" />
<glyph unicode="Y" horiz-adv-x="1337" d="M1251 1386l-350 -542q-95 -154 -130.5 -244.5t-35.5 -220.5v-361q0 -18 -18 -18h-99q-18 0 -18 18v361q0 131 -35 222t-129 243l-350 542q-6 9 -2.5 16t14.5 7h113q13 0 22 -12l302 -465q67 -111 116 -223q3 -13 11 -21q4 -4 10.5 -1t9.5 11q47 115 119 234l303 465 q9 12 22 12h113q11 0 14.5 -7t-2.5 -16z" />
<glyph unicode="Z" horiz-adv-x="1241" d="M158 1305v86q0 18 18 18h911q15 0 21 -12l8 -15q9 -15 -2 -26q-66 -85 -133 -201l-567 -887q-44 -65 -84 -118q-12 -15 -8.5 -23.5t20.5 -7.5q102 4 141 4h607q10 0 14.5 -6t1.5 -15l-25 -86q-3 -16 -20 -16h-907q-15 0 -21 14l-8 15q-6 15 2 26q64 87 139 215l559 873 q2 4 22 35t33.5 50t28.5 34q23 30 -10 30q-80 -6 -139 -6h-584q-18 0 -18 19z" />
<glyph unicode="[" horiz-adv-x="675" d="M346 -80h162q18 0 18 -18v-86q0 -19 -18 -19h-268q-19 0 -19 19v1687q0 19 19 19h268q18 0 18 -19v-86q0 -18 -18 -18h-162v-1479z" />
<glyph unicode="\" horiz-adv-x="964" d="M190 1507l697 -1689q3 -9 -1.5 -15t-13.5 -6h-96q-16 0 -22 15l-697 1689q-3 9 1.5 15t13.5 6h96q16 0 22 -15z" />
<glyph unicode="]" horiz-adv-x="675" d="M330 1399h-162q-18 0 -18 18v86q0 19 18 19h268q19 0 19 -19v-1687q0 -19 -19 -19h-268q-18 0 -18 19v86q0 18 18 18h162v1479z" />
<glyph unicode="^" horiz-adv-x="989" d="M842 707h-103q-14 0 -20 14l-225 514l-224 -514q-6 -14 -20 -14h-103q-23 0 -14 22l297 651q6 15 21 15h88q14 0 20 -15l297 -651q9 -22 -14 -22z" />
<glyph unicode="_" horiz-adv-x="997" d="M-6 -311h1007q19 0 19 -19v-84q0 -18 -19 -18h-1007q-19 0 -19 18v84q0 19 19 19z" />
<glyph unicode="`" horiz-adv-x="530" d="M127 1448h113q13 0 22 -12l156 -232q6 -9 2.5 -15.5t-14.5 -6.5h-84q-13 0 -23 10l-182 233q-8 9 -5 16t15 7z" />
<glyph unicode="a" horiz-adv-x="1036" d="M195 948l75 23q98 30 219 30q188 0 297 -106t109 -291v-586q0 -18 -18 -18h-64q-17 0 -20 18l-7 93q-9 39 -41 2q-106 -133 -325 -133q-155 0 -241.5 78.5t-86.5 215.5t94 218.5t267 82.5h309v27q0 131 -71.5 203t-203.5 72q-106 0 -186 -25l-72 -21q-18 -6 -24 13 l-23 80q-6 18 13 24zM762 461h-309q-113 0 -170.5 -47.5t-57.5 -130.5q0 -87 53.5 -135t151.5 -48q158 0 245 87t87 247v27z" />
<glyph unicode="b" horiz-adv-x="1132" d="M293 1430v-377q0 -118 -17 -207q-5 -17 5 -21t20 11q110 165 311 165q196 0 307 -136t111 -373q0 -238 -118.5 -375t-327.5 -137q-143 0 -262 53l-148 63q-14 6 -14 21v1313q0 18 18 18h96q19 0 19 -18zM291 188l84 -43q95 -43 209 -43q148 0 230.5 103.5t82.5 286.5 q0 182 -79 284.5t-218 102.5q-150 0 -229.5 -114.5t-79.5 -295.5v-281z" />
<glyph unicode="c" horiz-adv-x="956" d="M834 31l-66 -19q-106 -32 -203 -32q-222 0 -342.5 136.5t-120.5 375.5q0 238 120.5 373.5t344.5 135.5q89 0 191 -30l63 -19q19 -3 13 -22l-27 -82q-6 -15 -23 -12l-57 16q-80 27 -158 27q-165 0 -249 -101.5t-84 -285.5q0 -185 84 -287.5t245 -102.5q76 0 174 29l58 16 q18 6 24 -12l25 -80q6 -18 -12 -24z" />
<glyph unicode="d" horiz-adv-x="1132" d="M973 1430v-1412q0 -18 -19 -18h-63q-18 0 -21 18l-8 123q-1 9 -5 13t-10 1.5t-13 -12.5q-118 -163 -314 -163q-194 0 -306 137.5t-112 374.5t118 372t325 137q130 0 233 -49l64 -28v506q0 18 18 18h94q19 0 19 -18zM842 795l-84 39q-89 45 -209 45q-148 -2 -231 -104 t-82 -283q2 -182 81 -286t218 -104q148 0 227.5 114.5t79.5 295.5v283z" />
<glyph unicode="e" horiz-adv-x="1024" d="M840 29l-66 -19q-94 -30 -221 -30q-211 0 -331 137.5t-120 374.5q0 235 120 372t329 137q174 0 272.5 -80.5t98.5 -222.5q0 -212 -275 -258l-399 -65q20 -130 100 -201.5t205 -71.5q105 0 190 27l62 18q18 3 24 -14l25 -82q3 -19 -14 -22zM238 487l387 66q163 27 163 143 q0 87 -62.5 135t-176.5 48q-145 0 -226 -99t-85 -293z" />
<glyph unicode="f" horiz-adv-x="690" d="M221 981v178q0 145 75.5 227t207.5 82q54 0 108 -22l33 -12q17 -7 10 -23l-30 -82q-7 -17 -23 -10l-27 10q-35 14 -71 14q-70 0 -110 -49t-40 -135v-178h228q18 0 18 -18v-84q0 -19 -18 -19h-228v-842q0 -18 -18 -18h-96q-19 0 -19 18v842h-94q-18 0 -18 19v84 q0 18 18 18h94z" />
<glyph unicode="g" horiz-adv-x="1124" d="M238 -281l79 -22q85 -25 203 -25q152 0 238 70.5t96 210.5q2 85 8 188q2 13 -6.5 15t-17.5 -11q-119 -165 -318 -165q-193 0 -305.5 137t-112.5 372q0 240 120 376t335 136q134 0 256 -53l148 -65q14 -6 14 -21v-893q0 -201 -116 -311.5t-335 -110.5q-126 0 -233 31 l-90 25q-19 6 -13 24l27 82q7 17 23 10zM842 795l-84 39q-85 45 -205 45q-151 -2 -234 -102.5t-83 -284.5q0 -176 77.5 -283t218.5 -107q149 0 229.5 113t80.5 299v281z" />
<glyph unicode="h" d="M293 1430v-377q0 -109 -19 -209q-3 -14 6 -17.5t21 9.5q113 165 326 165q169 0 265.5 -106t96.5 -291v-586q0 -18 -18 -18h-97q-18 0 -18 18v576q0 134 -64 209.5t-178 75.5q-85 0 -149 -33t-100.5 -91.5t-54 -130t-17.5 -157.5v-449q0 -18 -19 -18h-96q-18 0 -18 18 v1412q0 18 18 18h96q19 0 19 -18z" />
<glyph unicode="i" horiz-adv-x="514" d="M266 1458q41 0 64.5 -23.5t23.5 -66.5t-23.5 -66.5t-64.5 -23.5q-42 0 -66 24t-24 66t24 66t66 24zM354 963v-945q0 -18 -18 -18h-96q-19 0 -19 18v842h-94q-18 0 -18 19v84q0 18 18 18h209q18 0 18 -18z" />
<glyph unicode="j" horiz-adv-x="514" d="M266 1458q43 0 65.5 -23.5t22.5 -66.5t-22.5 -66.5t-65.5 -23.5q-41 0 -64.5 23.5t-23.5 66.5t23.5 66.5t64.5 23.5zM354 963v-1082q0 -93 -36.5 -161.5t-114.5 -122.5l-62 -46q-16 -12 -26 5l-47 75q-7 17 6 25l59 45q88 62 88 180v979h-94q-18 0 -18 19v84q0 18 18 18 h209q18 0 18 -18z" />
<glyph unicode="k" horiz-adv-x="1028" d="M731 299l205 -276q6 -9 3 -16t-15 -7h-113q-13 0 -23 10l-178 236q-31 40 -45.5 58t-44.5 48.5t-53.5 44.5t-58 25.5t-72.5 11.5h-43v-416q0 -18 -19 -18h-96q-18 0 -18 18v1412q0 18 18 18h96q19 0 19 -18v-873h39q39 0 75 15t69.5 45t57 56t56.5 66l12 15l170 217 q10 10 23 10h112q12 0 15.5 -7t-2.5 -16l-201 -262q-118 -154 -203 -186q-19 -10 0 -18q94 -37 215 -193z" />
<glyph unicode="l" horiz-adv-x="520" d="M293 1430v-1254q0 -74 53 -74q13 0 19 2q16 6 22 -10l35 -80q7 -17 -10 -24q-33 -10 -66 -10q-88 0 -137 51.5t-49 144.5v1254q0 18 18 18h96q19 0 19 -18z" />
<glyph unicode="m" horiz-adv-x="1751" d="M262 963l6 -121q9 -31 33 -4q60 84 133 123.5t176 39.5q102 0 173 -51t108 -133q19 -32 45 -2q63 98 144 142t186 44q158 0 247 -106t89 -291v-586q0 -18 -19 -18h-96q-19 0 -19 18v576q0 135 -56 210t-159 75q-104 0 -174 -54t-100.5 -144t-30.5 -214v-449 q0 -18 -18 -18h-96q-19 0 -19 18v578q0 132 -57.5 207.5t-159.5 75.5q-104 0 -174 -54t-100.5 -144t-30.5 -214v-449q0 -18 -19 -18h-96q-18 0 -18 18v945q0 18 18 18h64q17 0 20 -18z" />
<glyph unicode="n" d="M260 963l8 -125q3 -9 8 -12t11 -0.5t12 10.5q116 165 328 165q169 0 265.5 -106t96.5 -291v-586q0 -18 -18 -18h-97q-18 0 -18 18v576q0 134 -64 209.5t-178 75.5q-152 0 -236.5 -108.5t-84.5 -303.5v-449q0 -18 -19 -18h-96q-18 0 -18 18v945q0 18 18 18h64q18 0 18 -18 z" />
<glyph unicode="o" horiz-adv-x="1099" d="M549 1001q207 0 326.5 -137t119.5 -372q0 -237 -119.5 -374.5t-326.5 -137.5t-327 138t-120 374q0 235 120 372t327 137zM549 879q-148 0 -230.5 -102.5t-82.5 -284.5q0 -183 82.5 -286.5t230.5 -103.5t231.5 103.5t83.5 286.5q0 182 -83.5 284.5t-231.5 102.5z" />
<glyph unicode="p" horiz-adv-x="1132" d="M262 963l8 -123q3 -14 11.5 -14.5t17.5 12.5q117 163 313 163t307 -136t111 -373q0 -239 -117 -375.5t-325 -136.5q-131 0 -234 49l-61 28v-471q0 -18 -19 -18h-96q-18 0 -18 18v1377q0 18 18 18h64q17 0 20 -18zM291 186l84 -41q90 -43 209 -43q148 0 230.5 103.5 t82.5 286.5q0 181 -79 284t-220 103q-147 0 -227 -114t-80 -296v-283z" />
<glyph unicode="q" horiz-adv-x="1122" d="M842 -416v344q0 128 16 207q3 15 -6 19t-21 -9q-110 -165 -311 -165q-196 0 -307 137t-111 375q0 237 118.5 373t328.5 136q145 0 264 -55l145 -63q15 -6 15 -21v-1278q0 -18 -19 -18h-94q-18 0 -18 18zM842 795l-82 39q-95 45 -211 45q-148 0 -230.5 -103t-82.5 -284 q0 -184 78 -287t218 -103q149 0 229.5 113t80.5 297v283z" />
<glyph unicode="r" horiz-adv-x="763" d="M655 983v-86q0 -18 -18 -18q-166 -8 -255 -146t-89 -395v-320q0 -18 -19 -18h-96q-18 0 -18 18v945q0 18 18 18h64q17 0 20 -18l14 -154q3 -12 11 -14t16 10q60 95 140 143.5t194 52.5q18 0 18 -18z" />
<glyph unicode="s" horiz-adv-x="960" d="M590 414l-240 67q-114 29 -167.5 91t-53.5 163q0 125 92.5 195.5t257.5 70.5q138 0 240 -30l80 -25q18 -6 12 -24l-23 -80q-6 -19 -24 -13l-78 23q-93 27 -205 27q-103 0 -161 -39.5t-58 -104.5q0 -54 31 -88.5t100 -54.5l238 -68q118 -30 173.5 -94.5t55.5 -165.5 q0 -134 -98 -209t-275 -75q-182 0 -309 47l-55 18q-18 6 -12 25l28 82q7 17 23 10l53 -19q115 -41 272 -41q113 0 176.5 43.5t63.5 118.5q0 57 -33 92.5t-104 57.5z" />
<glyph unicode="t" horiz-adv-x="698" d="M354 981h228q18 0 18 -18v-84q0 -19 -18 -19h-228v-620q0 -66 28.5 -102t80.5 -36q20 0 53 11q15 6 25 -11l34 -75q8 -19 -8 -25q-46 -22 -104 -22q-114 0 -178 67.5t-64 190.5v622h-94q-18 0 -18 19v84q0 18 18 18h94v246q0 17 15 20l98 33q20 7 20 -16v-283z" />
<glyph unicode="u" d="M879 18l-9 125q-10 29 -30 2q-116 -165 -328 -165q-169 0 -265.5 106t-96.5 291v586q0 18 18 18h96q19 0 19 -18v-576q0 -134 63.5 -209.5t177.5 -75.5q152 0 237 108.5t85 303.5v449q0 18 18 18h97q18 0 18 -18v-945q0 -18 -18 -18h-64q-18 0 -18 18z" />
<glyph unicode="v" horiz-adv-x="1093" d="M1012 958l-267 -591q-70 -169 -122 -351q-3 -16 -21 -16h-110q-18 0 -21 16q-46 173 -123 351l-266 591q-4 10 -0.5 16.5t14.5 6.5h103q14 0 20 -14l232 -514q54 -126 81 -246q4 -13 14 -13t15 13q20 104 82 246l231 514q6 14 21 14h102q11 0 15 -6.5t0 -16.5z" />
<glyph unicode="w" horiz-adv-x="1564" d="M1473 961l-197 -625q-58 -186 -92 -320q-3 -16 -21 -16h-114q-18 0 -21 16q-18 71 -80 254l-123 346q-22 69 -28 113q-5 18 -14.5 18t-14.5 -18q-11 -60 -29 -113l-123 -346q-50 -143 -79 -254q-3 -16 -21 -16h-115q-17 0 -20 16q-27 106 -90 320l-201 625q-7 20 16 20 h99q17 0 20 -14l164 -521q47 -159 62 -241q2 -9 7.5 -12t11 0t7.5 12q20 83 76 256l178 506q6 14 23 14h57q17 0 23 -14l178 -506q55 -175 75 -256q2 -9 7.5 -12t11.5 0t8 12q14 78 60 241l165 521q3 14 21 14h96q11 0 15.5 -5.5t1.5 -14.5z" />
<glyph unicode="x" horiz-adv-x="1060" d="M942 958l-270 -393q-34 -49 -56 -61q-6 -3 -6 -6q-1 -2 0 -4t3 -3.5t4 -2.5t5.5 -2.5t4.5 -2.5q25 -22 45 -55l278 -405q7 -9 4 -16t-14 -7h-111q-13 0 -22 12l-264 381q-12 18 -27 0l-264 -381q-9 -12 -23 -12h-110q-11 0 -14 7t4 16l278 405q24 38 47 55q15 10 15 13 q0 4 -7 8q-27 20 -55 61l-270 393q-7 9 -4 16t14 7h111q13 0 22 -12l256 -371q9 -16 21 -8q2 2 12 16l252 363q9 12 22 12h109q11 0 14 -7t-4 -16z" />
<glyph unicode="y" horiz-adv-x="1105" d="M1024 958l-602 -1376q-6 -14 -21 -14h-100q-23 0 -14 22l141 318q57 135 -29 340l-317 710q-4 10 -0.5 16.5t14.5 6.5h103q14 0 20 -14l244 -539q55 -129 76 -225q2 -9 7 -12t10.5 0t8.5 12q22 85 82 225l240 539q6 14 20 14h105q9 0 12.5 -6.5t-0.5 -16.5z" />
<glyph unicode="z" horiz-adv-x="958" d="M852 969l4 -6q8 -14 -2 -27q-43 -51 -86 -121l-395 -598q-13 -19 -60 -78q-8 -9 -4.5 -15t15.5 -5q35 2 96 2h407q10 0 15 -6t2 -15l-25 -84q-3 -16 -20 -16h-664q-13 0 -22 12l-4 6q-8 14 2 27q50 62 92 133l389 584q33 52 59 80q8 9 6 15t-14 5q-37 -2 -98 -2h-400 q-18 0 -18 19v84q0 18 18 18h684q14 0 23 -12z" />
<glyph unicode="{" horiz-adv-x="710" d="M565 1520v-86q0 -19 -18 -19q-75 -4 -116.5 -44.5t-41.5 -106.5v-424q0 -62 -17 -101t-57 -63q-12 -6 -15.5 -11t0 -9.5t15.5 -10.5q74 -44 74 -166v-420q0 -68 41.5 -108.5t116.5 -44.5q18 0 18 -19v-84q0 -18 -18 -18q-135 5 -210 76.5t-75 197.5v420q0 56 -28.5 87.5 t-75.5 31.5h-11q-18 0 -18 18v89q0 18 18 18h11q47 0 75.5 31t28.5 86v424q0 125 75 197.5t210 76.5q18 0 18 -18z" />
<glyph unicode="|" horiz-adv-x="567" d="M348 1505v-1921q0 -18 -18 -18h-92q-19 0 -19 18v1921q0 19 19 19h92q18 0 18 -19z" />
<glyph unicode="}" horiz-adv-x="710" d="M145 1434v86q0 18 19 18q135 -4 210 -76.5t75 -197.5v-424q0 -55 28.5 -86t75.5 -31h10q19 0 19 -18v-89q0 -18 -19 -18h-10q-47 0 -75.5 -31.5t-28.5 -87.5v-420q0 -126 -75 -197.5t-210 -76.5q-19 0 -19 18v84q0 19 19 19q75 4 116.5 44.5t41.5 108.5v420 q0 62 16.5 102t56.5 64q12 6 15.5 10.5t0 9.5t-15.5 11q-40 24 -56.5 63t-16.5 101v424q0 66 -41.5 106.5t-116.5 44.5q-19 0 -19 19z" />
<glyph unicode="~" horiz-adv-x="1067" d="M119 592l71 119q74 116 197 116q73 0 139 -51l80 -61q40 -27 76 -27q62 0 94 55l39 68q9 12 23 12h96q12 0 15.5 -6.5t-1.5 -15.5l-71 -121q-68 -115 -193 -115q-74 0 -139 49l-84 64q-33 24 -74 24q-67 0 -94 -53l-41 -67q-10 -13 -23 -13h-96q-12 0 -15.5 7t1.5 16z " />
<glyph unicode="&#xa1;" horiz-adv-x="485" d="M233 793q-47 0 -73.5 27.5t-26.5 74.5t26.5 74.5t73.5 27.5t73 -27t26 -75t-26 -75t-73 -27zM174 -416v606q0 78 9 236.5t10 210.5q0 18 18 18h63q19 0 19 -18q1 -50 9.5 -209t8.5 -238v-606q0 -18 -18 -18h-100q-19 0 -19 18z" />
<glyph unicode="&#xa2;" horiz-adv-x="956" d="M834 461l-66 -19q-76 -24 -158 -30v-170q0 -19 -18 -19h-96q-19 0 -19 19v174q-181 26 -278 159t-97 347q0 213 96 344.5t279 158.5v172q0 19 19 19h96q18 0 18 -19v-167q76 -6 148 -29l63 -19q19 -3 13 -22l-27 -82q-6 -15 -23 -12l-57 16q-68 22 -117 25v-772 q50 5 129 26l58 17q18 6 24 -13l25 -80q6 -18 -12 -24zM477 541v757q-120 -26 -180.5 -123t-60.5 -253q0 -158 61 -255.5t180 -125.5z" />
<glyph unicode="&#xa3;" horiz-adv-x="1167" d="M477 123h574q18 0 18 -19v-86q0 -18 -18 -18h-885q-15 0 -21 12l-10 19q-6 13 2 24l41 70q88 128 88 309v178h-178q-18 0 -18 19v86q0 18 18 18h178v285q0 191 111 301.5t303 110.5q91 0 199 -33l61 -21q18 -6 12 -24l-30 -82q-7 -17 -23 -10l-61 18q-90 23 -158 23 q-130 0 -204.5 -75t-74.5 -208v-285h353q18 0 18 -18v-86q0 -19 -18 -19h-353v-168q0 -169 -86 -299q-7 -17 -1.5 -25t20.5 -5q55 8 143 8z" />
<glyph unicode="&#xa4;" horiz-adv-x="1222" d="M266 1094l154 -156q82 63 192 63q102 0 193 -61l151 152q12 12 25 0l63 -64q12 -12 0 -24l-153 -152q63 -86 63 -193q0 -106 -63 -192l153 -154q12 -12 0 -24l-63 -64q-13 -13 -25 0l-151 154q-85 -60 -193 -60q-112 0 -192 62l-154 -156q-12 -12 -24 0l-64 64 q-12 12 0 24l152 154q-60 86 -60 192t60 195l-152 152q-12 12 0 24l64 64q12 12 24 0zM612 885q-95 0 -159 -66t-64 -160t64 -158.5t159 -64.5q94 0 159 64.5t65 158.5t-65 160t-159 66z" />
<glyph unicode="&#xa5;" horiz-adv-x="1357" d="M1262 1386l-351 -542q-65 -108 -92 -160h252q19 0 19 -18v-72q0 -19 -19 -19h-299q-22 -81 -24 -143h323q19 0 19 -18v-72q0 -18 -19 -18h-326v-306q0 -18 -18 -18h-98q-19 0 -19 18v306h-323q-19 0 -19 18v72q0 18 19 18h321q-3 75 -24 143h-297q-19 0 -19 19v72 q0 18 19 18h252q-21 42 -93 160l-350 542q-6 9 -2 16t15 7h112q14 0 23 -12l301 -465q71 -117 117 -223q4 -15 10 -21q4 -4 10.5 -1t9.5 11q47 115 119 234l303 465q9 12 23 12h112q11 0 15 -7t-2 -16z" />
<glyph unicode="&#xa6;" horiz-adv-x="569" d="M350 1505v-725q0 -18 -18 -18h-94q-19 0 -19 18v725q0 19 19 19h94q18 0 18 -19zM350 313v-729q0 -18 -18 -18h-94q-19 0 -19 18v729q0 19 19 19h94q18 0 18 -19z" />
<glyph unicode="&#xa7;" horiz-adv-x="1216" d="M494 903l315 -121q289 -112 289 -358q0 -55 -13.5 -100t-38 -76.5t-51 -52.5t-61.5 -39q-14 -8 -15.5 -13t11.5 -14q73 -50 112 -105t39 -147q0 -157 -128.5 -244.5t-358.5 -87.5q-180 0 -381 72l-80 29q-18 6 -12 24l31 80q6 16 22 10l82 -28q169 -62 336 -62 q166 0 260 54.5t94 152.5q0 134 -196 207l-326 123q-150 58 -217.5 146t-65.5 206q1 47 13.5 88.5t28.5 68t42.5 52t42.5 36.5t41 27q12 8 13 13.5t-11 15.5q-33 24 -55 43.5t-47.5 50.5t-38 71t-12.5 89q0 149 116.5 233.5t323.5 84.5q155 0 307 -52l103 -32q18 -6 12 -25 l-29 -82q-6 -16 -22 -10l-99 31q-131 45 -268 45q-145 0 -227 -51t-82 -142q0 -71 49 -121.5t152 -89.5zM752 674l-215 80q-95 35 -180 -24t-85 -171q0 -162 224 -246l204 -77q70 -22 129.5 -5t98.5 70t39 119q0 88 -60.5 153.5t-154.5 100.5z" />
<glyph unicode="&#xa8;" horiz-adv-x="657" d="M176 1458q39 0 62.5 -23.5t23.5 -64.5t-23.5 -64.5t-62.5 -23.5q-40 0 -63 23.5t-23 64.5t23 64.5t63 23.5zM487 1458q39 0 62.5 -23.5t23.5 -64.5t-23.5 -64.5t-62.5 -23.5q-40 0 -63 23.5t-23 64.5t23 64.5t63 23.5z" />
<glyph unicode="&#xa9;" horiz-adv-x="1615" d="M807 1432q210 0 371 -91t249.5 -256t88.5 -380q0 -325 -195.5 -525t-513.5 -200q-210 0 -370.5 90.5t-248.5 255t-88 379.5t88 380t248.5 256t370.5 91zM807 1335q-275 0 -443.5 -173t-168.5 -457q0 -283 168.5 -456t443.5 -173q276 0 444 173t168 456q0 284 -167.5 457 t-444.5 173zM1022 346l-43 -12q-79 -27 -170 -27q-161 0 -253.5 107.5t-92.5 292.5q0 184 92.5 291.5t253.5 107.5q84 0 172 -29l43 -14q16 -6 10 -25l-18 -55q-7 -17 -23 -10l-43 12q-71 25 -141 25q-115 0 -181.5 -80.5t-66.5 -222.5q0 -144 66.5 -225t181.5 -81 q68 0 139 23l43 14q19 6 25 -12l18 -55q6 -19 -12 -25z" />
<glyph unicode="&#xaa;" horiz-adv-x="815" d="M621 653l-5 60q-6 32 -28 6q-84 -101 -252 -101q-120 0 -187 64.5t-67 171.5t72 169t206 62h234v19q0 97 -54 152t-153 55q-76 0 -141 -21l-53 -16q-19 -3 -25 14l-18 64q-6 18 12 24l55 17q74 22 172 22q148 0 233 -82.5t85 -226.5v-453q0 -18 -19 -18h-49q-18 0 -18 18 zM594 987h-234q-165 0 -165 -125q0 -65 39 -102t112 -37q248 0 248 246v18zM111 426h579q19 0 19 -18v-68q0 -18 -19 -18h-579q-19 0 -19 18v68q0 18 19 18z" />
<glyph unicode="&#xab;" horiz-adv-x="1101" d="M303 492l270 -347q8 -9 5 -15.5t-15 -6.5h-108q-13 0 -23 10l-262 328q-8 11 -8 22v15q0 11 8 22l260 328q10 10 23 10h110q12 0 15 -6.5t-5 -15.5zM653 492l271 -347q8 -9 4.5 -15.5t-15.5 -6.5h-108q-13 0 -23 10l-262 328q-8 11 -8 22v15q0 11 8 22l260 328 q10 10 23 10h110q12 0 15.5 -6.5t-4.5 -15.5z" />
<glyph unicode="&#xad;" horiz-adv-x="901" d="M184 598h533q18 0 18 -18v-84q0 -19 -18 -19h-533q-18 0 -18 19v84q0 18 18 18z" />
<glyph unicode="&#xae;" horiz-adv-x="1615" d="M807 1432q210 0 371 -91t249.5 -256t88.5 -380q0 -325 -195.5 -525t-513.5 -200q-210 0 -370.5 90.5t-248.5 255t-88 379.5t88 380t248.5 256t370.5 91zM807 1335q-275 0 -443.5 -173t-168.5 -457q0 -283 168.5 -456t443.5 -173q276 0 444 173t168 456q0 284 -167.5 457 t-444.5 173zM571 1075h285q112 0 176 -56.5t64 -154.5q0 -70 -40.5 -118.5t-109.5 -71.5q-3 -1 -10 -3t-10 -5q-7 -4 8 -13q78 -41 108 -123l76 -170q9 -22 -14 -22h-60q-14 0 -20 14l-63 146q-32 69 -79 100t-130 31h-103v-273q0 -18 -18 -18h-60q-18 0 -18 18v701 q0 18 18 18zM649 981v-262h146q206 0 206 139q0 123 -145 123h-207z" />
<glyph unicode="&#xaf;" horiz-adv-x="720" d="M127 1364h467q18 0 18 -18v-66q0 -18 -18 -18h-467q-18 0 -18 18v66q0 18 18 18z" />
<glyph unicode="&#xb0;" horiz-adv-x="548" d="M274 1438q104 0 164 -60t60 -164q0 -105 -59.5 -164t-164.5 -59q-106 0 -164.5 58.5t-58.5 164.5q0 105 59 164.5t164 59.5zM274 1331q-52 0 -81 -30.5t-29 -86.5q0 -57 28.5 -87.5t81.5 -30.5t82 30.5t29 87.5q0 55 -29 86t-82 31z" />
<glyph unicode="&#xb1;" horiz-adv-x="1298" d="M713 592v-438q0 -19 -19 -19h-90q-18 0 -18 19v438h-402q-18 0 -18 18v86q0 19 18 19h402v438q0 18 18 18h90q19 0 19 -18v-438h401q19 0 19 -19v-86q0 -18 -19 -18h-401zM1104 -43v-84q0 -18 -19 -18h-872q-18 0 -18 18v84q0 18 18 18h872q19 0 19 -18z" />
<glyph unicode="&#xb4;" horiz-adv-x="530" d="M291 1448h112q12 0 15.5 -7t-4.5 -16l-183 -233q-10 -10 -22 -10h-84q-11 0 -14.5 6.5t2.5 15.5l155 232q9 12 23 12z" />
<glyph unicode="&#xb5;" horiz-adv-x="1159" d="M885 981h96q18 0 18 -18v-945q0 -18 -18 -18h-63q-19 0 -19 18l-8 125q-3 9 -8 12t-11 0.5t-12 -10.5q-116 -165 -328 -165q-146 0 -239 81v-475q0 -18 -19 -18h-96q-18 0 -18 18v951q0 18 18 18q-8 0 -8 18v390q0 18 18 18h97q18 0 18 -18v-576q0 -134 64 -209.5 t178 -75.5q152 0 236.5 108.5t84.5 303.5v449q0 18 19 18z" />
<glyph unicode="&#xb6;" horiz-adv-x="1271" d="M1092 1391v-1373q0 -18 -19 -18h-72q-18 0 -18 18v1287h-180v-1287q0 -18 -19 -18h-71q-19 0 -19 18v617q-223 0 -361 101t-138 288q0 182 103.5 283.5t287.5 101.5h487q19 0 19 -18z" />
<glyph unicode="&#xb7;" horiz-adv-x="444" d="M231 612q47 0 74 -27.5t27 -74.5t-27 -74.5t-74 -27.5t-72.5 27t-25.5 75t25.5 75t72.5 27z" />
<glyph unicode="&#xb8;" horiz-adv-x="567" d="M262 -106h14q82 0 130.5 -44.5t48.5 -123.5q0 -84 -53 -132.5t-148 -48.5q-42 0 -92 17l-31 10q-18 6 -12 25l20 63q7 17 23 10l31 -8q31 -10 61 -10q46 0 73 21.5t27 60.5t-27 59.5t-75 20.5h-66q-12 0 -22 10l-4 4q-7 10 -4 27l49 143q6 14 22 14h60q21 0 14 -20z" />
<glyph unicode="&#xba;" horiz-adv-x="851" d="M424 1417q162 0 257 -108t95 -291q0 -185 -94.5 -292.5t-257.5 -107.5q-161 0 -254.5 107.5t-93.5 292.5q0 183 93.5 291t254.5 108zM424 1313q-111 0 -174.5 -78.5t-63.5 -216.5t63.5 -216.5t174.5 -78.5q114 0 177 78t63 217t-63 217t-177 78zM135 426h580q18 0 18 -18 v-68q0 -18 -18 -18h-580q-18 0 -18 18v68q0 18 18 18z" />
<glyph unicode="&#xbb;" horiz-adv-x="1101" d="M449 492l-271 344q-8 9 -5 15.5t15 6.5h111q13 0 23 -10l260 -328q8 -11 8 -22v-15q0 -11 -8 -22l-263 -328q-10 -10 -22 -10h-109q-12 0 -15 6.5t5 15.5zM799 492l-271 344q-8 9 -4.5 15.5t15.5 6.5h110q13 0 23 -10l260 -328q8 -11 8 -22v-15q0 -11 -8 -22l-262 -328 q-10 -10 -23 -10h-108q-12 0 -15.5 6.5t4.5 15.5z" />
<glyph unicode="&#xbc;" horiz-adv-x="1527" d="M201 643v537q0 51 4 71q3 20 -15 11l-79 -37q-15 -9 -25 8l-27 65q-9 14 9 25l206 88q16 7 27 -4q8 -5 8 -21v-743q0 -18 -18 -18h-72q-18 0 -18 18zM1104 1409h86q11 0 14.5 -7t-2.5 -16l-915 -1374q-9 -12 -23 -12h-86q-11 0 -14.5 7t2.5 16l915 1374q9 12 23 12z M1448 289v-62q0 -18 -18 -18h-66v-189q0 -18 -18 -18h-74q-19 0 -19 18v189h-374q-19 0 -19 18v74q0 12 8 23q20 20 70 82l231 294q42 57 50 72q9 12 22 12h105q18 0 18 -18v-459h66q18 0 18 -18zM1253 307v223q0 52 9 101q2 11 -5 13t-14 -7l-203 -254q-30 -43 -51 -64 q-7 -6 -4.5 -9t10.5 -3h258z" />
<glyph unicode="&#xbd;" horiz-adv-x="1622" d="M299 1409q10 -7 10 -23v-743q0 -18 -18 -18h-72q-18 0 -18 18v537q0 51 4 71q3 20 -15 11l-79 -37q-15 -9 -25 8l-27 65q-9 14 9 25l206 88q16 7 25 -2zM1202 1386l-915 -1374q-9 -12 -23 -12h-86q-11 0 -14.5 7t2.5 16l915 1374q9 12 23 12h86q11 0 14.5 -7t-2.5 -16z M1053 745l55 19q95 29 180 29q119 0 187.5 -56t68.5 -155q0 -111 -129 -195l-184 -121q-86 -56 -86 -162h371q18 0 18 -18v-66q0 -18 -18 -18h-465q-19 0 -19 18v50q0 191 144 286l182 119q74 52 74 107q0 47 -40 76.5t-104 29.5q-71 0 -145 -24l-58 -17q-16 -6 -22 10 l-23 64q-6 18 13 24z" />
<glyph unicode="&#xbe;" horiz-adv-x="1759" d="M104 1376l50 17q71 24 163 24q116 0 184 -56t68 -155q0 -118 -102 -166q-9 -3 -9 -7t9 -7q62 -24 93.5 -74t31.5 -116q0 -103 -73.5 -160.5t-201.5 -57.5q-68 0 -178 29l-57 19q-18 6 -12 24l22 64q6 15 23 12l55 -16q79 -27 147 -27q74 0 119 32.5t45 88.5 q0 61 -46.5 98t-115.5 37h-43q-18 0 -18 18v68q0 18 18 18h41q65 0 102.5 29.5t37.5 83.5q0 55 -38 86t-102 31q-69 0 -131 -21l-51 -14q-16 -6 -22 10l-21 64q-6 18 12 24zM1335 1409h86q11 0 15 -7t-2 -16l-916 -1374q-9 -12 -22 -12h-86q-11 0 -15 7t2 16l916 1374 q9 12 22 12zM1679 289v-62q0 -18 -18 -18h-66v-189q0 -18 -18 -18h-74q-18 0 -18 18v189h-375q-18 0 -18 18v74q0 12 8 23q15 15 69 82l232 294q39 53 49 72q9 12 23 12h104q18 0 18 -18v-459h66q18 0 18 -18zM1485 307v223q0 57 8 101q2 11 -4.5 13t-13.5 -7l-203 -254 q-30 -43 -51 -64q-7 -6 -4.5 -9t10.5 -3h258z" />
<glyph unicode="&#xbf;" horiz-adv-x="1028" d="M596 793q-47 0 -73.5 27.5t-26.5 74.5t26.5 74.5t73.5 27.5t72.5 -27t25.5 -75t-25.5 -75t-72.5 -27zM983 -371l-106 -32q-183 -52 -316 -52q-210 0 -329 91.5t-119 250.5q0 99 51 180.5t162 159.5l90 64q55 39 90 93.5t35 117.5v139q0 18 18 18h96q19 0 19 -18v-139 q0 -188 -180 -314l-93 -63q-80 -53 -116.5 -109.5t-36.5 -128.5q0 -95 86 -153t227 -58q119 0 275 41l106 33q16 7 23 -10l30 -86q6 -19 -12 -25z" />
<glyph unicode="&#xc0;" horiz-adv-x="1425" d="M629 1782l159 -187q7 -9 4 -15.5t-14 -6.5h-98q-12 0 -23 8l-198 188q-9 9 -6.5 16t14.5 7h139q16 0 23 -10zM373 358l-140 -344q-6 -14 -22 -14h-107q-9 0 -13 5.5t-1 14.5l422 1020q71 179 119 353q3 16 20 16h121q18 0 21 -16q43 -155 120 -353l420 -1020 q3 -9 -1 -14.5t-13 -5.5h-105q-16 0 -22 14l-139 344h-680zM1001 483l-188 453q-62 153 -88 272q-2 9 -7.5 12t-11.5 0t-8 -12q-22 -113 -88 -272l-186 -453h577z" />
<glyph unicode="&#xc1;" horiz-adv-x="1425" d="M813 1792h139q12 0 15 -7t-6 -16l-199 -188q-11 -8 -23 -8h-98q-11 0 -14 6.5t4 15.5l160 187q7 10 22 10zM373 358l-140 -344q-6 -14 -22 -14h-107q-9 0 -13 5.5t-1 14.5l422 1020q71 179 119 353q3 16 20 16h121q18 0 21 -16q43 -155 120 -353l420 -1020q3 -9 -1 -14.5 t-13 -5.5h-105q-16 0 -22 14l-139 344h-680zM1001 483l-188 453q-62 153 -88 272q-2 9 -7.5 12t-11.5 0t-8 -12q-22 -113 -88 -272l-186 -453h577z" />
<glyph unicode="&#xc2;" horiz-adv-x="1425" d="M711 1700l-144 -119q-11 -8 -22 -8h-88q-12 0 -14.5 6.5t6.5 15.5l178 187q10 10 24 10h117q15 0 25 -10l182 -187q9 -9 6 -15.5t-16 -6.5h-88q-12 0 -23 8zM913 1040l420 -1020q3 -9 -1 -14.5t-13 -5.5h-105q-16 0 -22 14l-139 344h-680l-140 -344q-6 -14 -22 -14h-107 q-9 0 -13 5.5t-1 14.5l422 1020q71 179 119 353q3 16 20 16h121q18 0 21 -16q43 -155 120 -353zM1001 483l-188 453q-62 153 -88 272q-2 9 -7.5 12t-11.5 0t-8 -12q-22 -113 -88 -272l-186 -453h577z" />
<glyph unicode="&#xc3;" horiz-adv-x="1425" d="M371 1616l43 74q44 84 151 84q50 0 111 -27l119 -47q40 -14 61 -14q44 0 66 36l20 33q9 12 23 12h75q12 0 15.5 -6.5t-2.5 -15.5l-43 -72q-48 -86 -152 -86q-39 0 -110 31l-117 43q-37 16 -64 16q-43 0 -63 -35l-25 -36q-10 -13 -22 -13h-74q-10 0 -13.5 7t1.5 16z M373 358l-140 -344q-6 -14 -22 -14h-107q-9 0 -13 5.5t-1 14.5l422 1020q71 179 119 353q3 16 20 16h121q18 0 21 -16q43 -155 120 -353l420 -1020q3 -9 -1 -14.5t-13 -5.5h-105q-16 0 -22 14l-139 344h-680zM1001 483l-188 453q-62 153 -88 272q-2 9 -7.5 12t-11.5 0 t-8 -12q-22 -113 -88 -272l-186 -453h577z" />
<glyph unicode="&#xc4;" horiz-adv-x="1425" d="M561 1765q40 0 64 -23t24 -63q0 -39 -24 -61.5t-64 -22.5q-43 0 -66.5 22t-23.5 62t24 63t66 23zM866 1765q40 0 64 -23t24 -63q0 -39 -24 -61.5t-64 -22.5q-43 0 -66.5 22t-23.5 62t24 63t66 23zM373 358l-140 -344q-6 -14 -22 -14h-107q-9 0 -13 5.5t-1 14.5l422 1020 q71 179 119 353q3 16 20 16h121q18 0 21 -16q43 -155 120 -353l420 -1020q3 -9 -1 -14.5t-13 -5.5h-105q-16 0 -22 14l-139 344h-680zM1001 483l-188 453q-62 153 -88 272q-2 9 -7.5 12t-11.5 0t-8 -12q-22 -113 -88 -272l-186 -453h577z" />
<glyph unicode="&#xc5;" horiz-adv-x="1425" d="M711 1819q78 0 120.5 -37t42.5 -103q0 -65 -42.5 -101t-120.5 -36q-76 0 -119 36t-43 101q0 66 43 103t119 37zM711 1741q-35 0 -54.5 -16.5t-19.5 -45.5q0 -28 19.5 -44.5t54.5 -16.5t54 16.5t19 44.5q0 29 -19 45.5t-54 16.5zM373 358l-140 -344q-6 -14 -22 -14h-107 q-9 0 -13 5.5t-1 14.5l422 1020q71 179 119 353q3 16 20 16h121q18 0 21 -16q43 -155 120 -353l420 -1020q3 -9 -1 -14.5t-13 -5.5h-105q-16 0 -22 14l-139 344h-680zM1001 483l-188 453q-62 153 -88 272q-2 9 -7.5 12t-11.5 0t-8 -12q-22 -113 -88 -272l-186 -453h577z" />
<glyph unicode="&#xc6;" horiz-adv-x="1869" d="M1294 123h449q18 0 18 -19v-86q0 -18 -18 -18h-529q-16 0 -22 14l-139 344h-680l-140 -344q-6 -14 -22 -14h-107q-9 0 -13 5.5t-1 14.5l414 1000q86 216 127 373q3 16 20 16h1082q23 0 16 -20l-25 -86q-3 -17 -20 -17h-842q-16 0 -19 -7t-1 -24q13 -68 63 -186l117 -285 h567q19 0 19 -18v-86q0 -18 -19 -18h-518zM424 483h577l-194 469q-58 142 -80 256q-5 14 -15.5 14t-13.5 -14q-26 -121 -82 -254z" />
<glyph unicode="&#xc7;" horiz-adv-x="1234" d="M1092 63l-84 -30q-83 -30 -146.5 -41.5t-148.5 -11.5l-35 -86h14q82 0 130 -44.5t48 -123.5q0 -84 -53 -132.5t-147 -48.5q-42 0 -92 17l-31 10q-18 6 -12 25l20 63q7 17 23 10l30 -8q31 -10 62 -10q46 0 73 21.5t27 60.5t-27 59.5t-75 20.5h-66q-12 0 -22 10l-5 4 q-7 10 -4 27l47 131q-238 34 -370.5 223.5t-132.5 495.5q0 338 159.5 532.5t438.5 194.5q87 0 149 -11t142 -41l86 -30q17 -7 10 -23l-29 -84q-6 -18 -24 -12l-86 33q-61 23 -115 31t-133 8q-218 0 -338.5 -157.5t-120.5 -440.5q0 -282 120.5 -440.5t338.5 -158.5 q127 0 252 46l84 28q16 6 22 -10l31 -84q7 -16 -10 -23z" />
<glyph unicode="&#xc8;" horiz-adv-x="1228" d="M567 1782l160 -187q7 -9 4 -15.5t-14 -6.5h-99q-11 0 -22 8l-199 188q-9 9 -6 16t15 7h139q15 0 22 -10zM315 784h637q19 0 19 -18v-86q0 -18 -19 -18h-637v-539h787q18 0 18 -19v-86q0 -18 -18 -18h-903q-19 0 -19 18v1373q0 18 19 18h895q23 0 16 -20l-27 -86 q-3 -17 -20 -17h-748v-502z" />
<glyph unicode="&#xc9;" horiz-adv-x="1228" d="M752 1792h139q12 0 14.5 -7t-6.5 -16l-199 -188q-11 -8 -22 -8h-98q-11 0 -14.5 6.5t3.5 15.5l160 187q7 10 23 10zM315 784h637q19 0 19 -18v-86q0 -18 -19 -18h-637v-539h787q18 0 18 -19v-86q0 -18 -18 -18h-903q-19 0 -19 18v1373q0 18 19 18h895q23 0 16 -20 l-27 -86q-3 -17 -20 -17h-748v-502z" />
<glyph unicode="&#xca;" horiz-adv-x="1228" d="M649 1700l-143 -119q-11 -8 -23 -8h-88q-12 0 -14.5 6.5t6.5 15.5l178 187q10 10 25 10h117q14 0 24 -10l182 -187q9 -9 6 -15.5t-16 -6.5h-88q-11 0 -22 8zM315 123h787q18 0 18 -19v-86q0 -18 -18 -18h-903q-19 0 -19 18v1373q0 18 19 18h895q23 0 16 -20l-27 -86 q-3 -17 -20 -17h-748v-502h637q19 0 19 -18v-86q0 -18 -19 -18h-637v-539z" />
<glyph unicode="&#xcb;" horiz-adv-x="1228" d="M500 1765q40 0 64 -23t24 -63q0 -39 -24 -61.5t-64 -22.5q-43 0 -66.5 22t-23.5 62t24 63t66 23zM805 1765q40 0 64 -23t24 -63q0 -39 -24 -61.5t-64 -22.5q-43 0 -66.5 22t-23.5 62t24 63t66 23zM315 784h637q19 0 19 -18v-86q0 -18 -19 -18h-637v-539h787q18 0 18 -19 v-86q0 -18 -18 -18h-903q-19 0 -19 18v1373q0 18 19 18h895q23 0 16 -20l-27 -86q-3 -17 -20 -17h-748v-502z" />
<glyph unicode="&#xcc;" horiz-adv-x="495" d="M166 1782l160 -187q7 -9 3.5 -15.5t-14.5 -6.5h-98q-11 0 -22 8l-199 188q-9 9 -6.5 16t14.5 7h139q15 0 23 -10zM297 0h-98q-19 0 -19 18v1373q0 18 19 18h98q18 0 18 -18v-1373q0 -18 -18 -18z" />
<glyph unicode="&#xcd;" horiz-adv-x="495" d="M350 1792h139q12 0 15 -7t-6 -16l-199 -188q-11 -8 -23 -8h-98q-11 0 -14 6.5t4 15.5l160 187q7 10 22 10zM297 0h-98q-19 0 -19 18v1373q0 18 19 18h98q18 0 18 -18v-1373q0 -18 -18 -18z" />
<glyph unicode="&#xce;" horiz-adv-x="495" d="M330 1782l182 -187q9 -9 6 -15.5t-16 -6.5h-88q-12 0 -23 8l-143 119l-144 -119q-11 -8 -22 -8h-88q-12 0 -14.5 6.5t6.5 15.5l178 187q10 10 24 10h117q15 0 25 -10zM180 18v1373q0 18 19 18h98q18 0 18 -18v-1373q0 -18 -18 -18h-98q-19 0 -19 18z" />
<glyph unicode="&#xcf;" horiz-adv-x="495" d="M98 1765q40 0 64 -23t24 -63q0 -39 -24 -61.5t-64 -22.5q-43 0 -66.5 22t-23.5 62t24 63t66 23zM403 1765q40 0 64.5 -23.5t24.5 -62.5t-24.5 -61.5t-64.5 -22.5q-43 0 -66.5 22t-23.5 62t24 63t66 23zM297 0h-98q-19 0 -19 18v1373q0 18 19 18h98q18 0 18 -18v-1373 q0 -18 -18 -18z" />
<glyph unicode="&#xd0;" horiz-adv-x="1476" d="M315 1409h453q276 0 434 -188t158 -516q0 -326 -158.5 -515.5t-433.5 -189.5h-453q-18 0 -18 18v633h-209q-18 0 -18 19v86q0 18 18 18h209v617q0 18 18 18zM432 123h336q215 0 335 154t120 428q0 275 -120 428t-335 153h-336v-512h289q18 0 18 -18v-86q0 -19 -18 -19 h-289v-528z" />
<glyph unicode="&#xd1;" horiz-adv-x="1439" d="M379 1616l43 74q44 84 151 84q49 0 111 -27l119 -47q40 -14 61 -14q44 0 66 36l20 33q9 12 23 12h76q12 0 15 -6.5t-3 -15.5l-43 -72q-48 -86 -152 -86q-39 0 -110 31l-117 43q-37 16 -64 16q-43 0 -63 -35l-25 -36q-10 -13 -22 -13h-74q-10 0 -13.5 7t1.5 16zM1241 0 h-127q-14 0 -20 14q-39 82 -115 201l-584 856q-44 70 -67 121q-6 14 -17 10.5t-8 -18.5q14 -89 14 -195v-971q0 -18 -18 -18h-100q-19 0 -19 18v1373q0 18 19 18h129q14 0 20 -14q64 -122 115 -199l584 -856q40 -59 67 -123q6 -13 17 -9.5t8 17.5q-15 76 -15 195v971 q0 18 19 18h98q19 0 19 -18v-1373q0 -18 -19 -18z" />
<glyph unicode="&#xd2;" horiz-adv-x="1415" d="M625 1782l159 -187q7 -9 4 -15.5t-14 -6.5h-98q-12 0 -23 8l-198 188q-9 9 -6.5 16t14.5 7h139q16 0 23 -10zM709 1432q274 0 432.5 -196t158.5 -531t-158 -530t-433 -195q-276 0 -435 195t-159 530q0 336 159 531.5t435 195.5zM709 1303q-215 0 -335 -158t-120 -440 t120 -440.5t335 -158.5t333.5 158.5t118.5 440.5t-118.5 440t-333.5 158z" />
<glyph unicode="&#xd3;" horiz-adv-x="1415" d="M811 1792h139q12 0 14.5 -7t-6.5 -16l-198 -188q-11 -8 -23 -8h-98q-11 0 -14 6.5t4 15.5l159 187q7 10 23 10zM709 1432q274 0 432.5 -196t158.5 -531t-158 -530t-433 -195q-276 0 -435 195t-159 530q0 336 159 531.5t435 195.5zM709 1303q-215 0 -335 -158t-120 -440 t120 -440.5t335 -158.5t333.5 158.5t118.5 440.5t-118.5 440t-333.5 158z" />
<glyph unicode="&#xd4;" horiz-adv-x="1415" d="M709 1700l-144 -119q-11 -8 -22 -8h-88q-12 0 -15 6.5t6 15.5l179 187q10 10 24 10h117q15 0 25 -10l182 -187q9 -9 6 -15.5t-16 -6.5h-89q-11 0 -22 8zM709 1432q274 0 432.5 -196t158.5 -531t-158 -530t-433 -195q-276 0 -435 195t-159 530q0 336 159 531.5t435 195.5z M709 106q215 0 333.5 158.5t118.5 440.5t-118.5 440t-333.5 158t-335 -158t-120 -440t120 -440.5t335 -158.5z" />
<glyph unicode="&#xd5;" horiz-adv-x="1415" d="M367 1616l43 74q44 84 151 84q49 0 111 -27l119 -47q40 -14 61 -14q44 0 66 36l20 33q9 12 23 12h75q12 0 15.5 -6.5t-2.5 -15.5l-43 -72q-48 -86 -152 -86q-40 0 -111 31l-116 43q-37 16 -64 16q-43 0 -63 -35l-25 -36q-10 -13 -22 -13h-74q-10 0 -13.5 7t1.5 16z M709 1432q274 0 432.5 -196t158.5 -531t-158 -530t-433 -195q-276 0 -435 195t-159 530q0 336 159 531.5t435 195.5zM709 1303q-215 0 -335 -158t-120 -440t120 -440.5t335 -158.5t333.5 158.5t118.5 440.5t-118.5 440t-333.5 158z" />
<glyph unicode="&#xd6;" horiz-adv-x="1415" d="M559 1765q40 0 64 -23t24 -63q0 -39 -24 -61.5t-64 -22.5q-43 0 -66.5 22t-23.5 62t24 63t66 23zM864 1765q40 0 64 -23t24 -63q0 -39 -24 -61.5t-64 -22.5q-43 0 -66.5 22t-23.5 62t24 63t66 23zM709 1432q274 0 432.5 -196t158.5 -531t-158 -530t-433 -195 q-276 0 -435 195t-159 530q0 336 159 531.5t435 195.5zM709 1303q-215 0 -335 -158t-120 -440t120 -440.5t335 -158.5t333.5 158.5t118.5 440.5t-118.5 440t-333.5 158z" />
<glyph unicode="&#xd7;" horiz-adv-x="1222" d="M981 952l63 -63q12 -13 0 -25l-344 -346l344 -344q12 -12 0 -24l-63 -64q-13 -12 -25 0l-344 346l-346 -348q-12 -12 -24 0l-64 66q-12 12 0 24l346 344l-346 346q-12 12 0 25l64 63q12 12 24 0l346 -344l344 344q12 12 25 0z" />
<glyph unicode="&#xd8;" horiz-adv-x="1435" d="M1294 1386l-129 -167q146 -194 146 -514q0 -335 -158.5 -530t-433.5 -195q-235 0 -385 141l-82 -111q-10 -10 -23 -10h-75q-12 0 -15.5 7t2.5 16l129 170q-145 193 -145 512q0 336 159 531.5t435 195.5q233 0 381 -142l82 109q10 10 22 10h78q12 0 15 -7t-3 -16zM356 305 l664 879q-116 119 -301 119q-215 0 -335 -158t-120 -440q0 -244 92 -400zM1079 1104l-663 -877q118 -121 303 -121q215 0 333.5 158.5t118.5 440.5q0 243 -92 399z" />
<glyph unicode="&#xd9;" horiz-adv-x="1363" d="M600 1782l160 -187q7 -9 4 -15.5t-14 -6.5h-99q-11 0 -22 8l-199 188q-9 9 -6.5 16t14.5 7h140q14 0 22 -10zM1204 1391v-838q0 -270 -137.5 -421.5t-384.5 -151.5t-384.5 151.5t-137.5 421.5v838q0 18 18 18h98q19 0 19 -18v-838q0 -212 101.5 -329.5t285.5 -117.5 t285.5 117.5t101.5 329.5v838q0 18 18 18h99q18 0 18 -18z" />
<glyph unicode="&#xda;" horiz-adv-x="1363" d="M784 1792h140q12 0 14.5 -7t-6.5 -16l-199 -188q-11 -8 -22 -8h-99q-11 0 -14 6.5t4 15.5l160 187q8 10 22 10zM1204 1391v-838q0 -270 -137.5 -421.5t-384.5 -151.5t-384.5 151.5t-137.5 421.5v838q0 18 18 18h98q19 0 19 -18v-838q0 -212 101.5 -329.5t285.5 -117.5 t285.5 117.5t101.5 329.5v838q0 18 18 18h99q18 0 18 -18z" />
<glyph unicode="&#xdb;" horiz-adv-x="1363" d="M682 1700l-143 -119q-11 -8 -23 -8h-88q-12 0 -14.5 6.5t6.5 15.5l178 187q10 10 25 10h116q15 0 25 -10l182 -187q9 -9 6 -15.5t-16 -6.5h-88q-12 0 -23 8zM1087 1409h99q18 0 18 -18v-838q0 -270 -137.5 -421.5t-384.5 -151.5t-384.5 151.5t-137.5 421.5v838 q0 18 18 18h98q19 0 19 -18v-838q0 -212 101.5 -329.5t285.5 -117.5t285.5 117.5t101.5 329.5v838q0 18 18 18z" />
<glyph unicode="&#xdc;" horiz-adv-x="1363" d="M532 1765q40 0 64.5 -23.5t24.5 -62.5t-24.5 -61.5t-64.5 -22.5q-43 0 -66.5 22t-23.5 62t24 63t66 23zM838 1765q40 0 64 -23t24 -63q0 -39 -24 -61.5t-64 -22.5q-43 0 -66.5 22t-23.5 62t24 63t66 23zM1204 1391v-838q0 -270 -137.5 -421.5t-384.5 -151.5t-384.5 151.5 t-137.5 421.5v838q0 18 18 18h98q19 0 19 -18v-838q0 -212 101.5 -329.5t285.5 -117.5t285.5 117.5t101.5 329.5v838q0 18 18 18h99q18 0 18 -18z" />
<glyph unicode="&#xdd;" horiz-adv-x="1337" d="M770 1792h139q12 0 15 -7t-6 -16l-199 -188q-11 -8 -23 -8h-98q-11 0 -14 6.5t4 15.5l160 187q8 10 22 10zM1251 1386l-350 -542q-95 -154 -130.5 -244.5t-35.5 -220.5v-361q0 -18 -18 -18h-99q-18 0 -18 18v361q0 131 -35 222t-129 243l-350 542q-6 9 -2.5 16t14.5 7 h113q13 0 22 -12l302 -465q67 -111 116 -223q3 -13 11 -21q4 -4 10.5 -1t9.5 11q47 115 119 234l303 465q9 12 22 12h113q11 0 14.5 -7t-2.5 -16z" />
<glyph unicode="&#xde;" horiz-adv-x="1280" d="M315 1153h369q224 0 350.5 -116.5t126.5 -323.5t-126.5 -323t-350.5 -116h-369v-256q0 -18 -18 -18h-98q-19 0 -19 18v1373q0 18 19 18h98q18 0 18 -18v-238zM315 1030v-633h369q159 0 248.5 84t89.5 232q0 149 -89 233t-249 84h-369z" />
<glyph unicode="&#xdf;" horiz-adv-x="1177" d="M160 18v998q0 213 110 332.5t305 119.5q163 0 255 -71.5t92 -198.5q0 -103 -97 -203l-129 -133q-55 -55 -55 -112q0 -42 24 -74.5t76 -63.5l162 -94q99 -59 144 -118.5t45 -141.5q0 -130 -94 -204t-263 -74q-123 0 -243 47l-56 22q-17 7 -10 23l33 82q6 16 22 10l47 -19 q101 -43 207 -43q108 0 167 41.5t59 114.5q0 44 -29 78.5t-92 73.5l-168 98q-85 49 -123.5 105t-38.5 128q0 106 90 199l125 129q63 63 63 129q0 69 -56.5 107t-156.5 38q-134 0 -208 -86t-74 -241v-998q0 -18 -19 -18h-96q-18 0 -18 18z" />
<glyph unicode="&#xe0;" horiz-adv-x="1036" d="M442 1438l156 -232q6 -9 2.5 -15.5t-14.5 -6.5h-84q-13 0 -23 10l-182 233q-8 9 -5 16t15 7h113q13 0 22 -12zM195 948l75 23q98 30 219 30q188 0 297 -106t109 -291v-586q0 -18 -18 -18h-64q-17 0 -20 18l-7 93q-9 39 -41 2q-106 -133 -325 -133q-155 0 -241.5 78.5 t-86.5 215.5t94 218.5t267 82.5h309v27q0 131 -71.5 203t-203.5 72q-106 0 -186 -25l-72 -21q-18 -6 -24 13l-23 80q-6 18 13 24zM762 461h-309q-113 0 -170.5 -47.5t-57.5 -130.5q0 -87 53.5 -135t151.5 -48q158 0 245 87t87 247v27z" />
<glyph unicode="&#xe1;" horiz-adv-x="1036" d="M618 1450h113q12 0 15 -7t-5 -16l-182 -233q-10 -10 -22 -10h-84q-11 0 -15 6.5t2 15.5l156 232q9 12 22 12zM195 948l75 23q98 30 219 30q188 0 297 -106t109 -291v-586q0 -18 -18 -18h-64q-17 0 -20 18l-7 93q-9 39 -41 2q-106 -133 -325 -133q-155 0 -241.5 78.5 t-86.5 215.5t94 218.5t267 82.5h309v27q0 131 -71.5 203t-203.5 72q-106 0 -186 -25l-72 -21q-18 -6 -24 13l-23 80q-6 18 13 24zM762 461h-309q-113 0 -170.5 -47.5t-57.5 -130.5q0 -87 53.5 -135t151.5 -48q158 0 245 87t87 247v27z" />
<glyph unicode="&#xe2;" horiz-adv-x="1036" d="M518 1346l-141 -152q-7 -10 -23 -10h-78q-12 0 -15 6.5t5 15.5l185 234q10 10 22 10h88q13 0 23 -10l184 -234q8 -9 5 -15.5t-15 -6.5h-76q-16 0 -23 10zM195 948l75 23q98 30 219 30q188 0 297 -106t109 -291v-586q0 -18 -18 -18h-64q-17 0 -20 18l-7 93q-9 39 -41 2 q-106 -133 -325 -133q-155 0 -241.5 78.5t-86.5 215.5t94 218.5t267 82.5h309v27q0 131 -71.5 203t-203.5 72q-106 0 -186 -25l-72 -21q-18 -6 -24 13l-23 80q-6 18 13 24zM762 461h-309q-113 0 -170.5 -47.5t-57.5 -130.5q0 -87 53.5 -135t151.5 -48q158 0 245 87t87 247 v27z" />
<glyph unicode="&#xe3;" horiz-adv-x="1036" d="M225 1290l37 78q45 88 135 88q39 0 95 -29l98 -55q32 -16 53 -16q33 0 53 41l23 41q9 12 22 12h62q11 0 14.5 -6t-2.5 -17l-39 -75q-42 -88 -133 -88q-45 0 -98 30l-94 49q-35 21 -54 21q-33 0 -53 -39l-22 -43q-6 -14 -21 -14h-61q-24 0 -15 22zM195 948l75 23 q98 30 219 30q188 0 297 -106t109 -291v-586q0 -18 -18 -18h-64q-17 0 -20 18l-7 93q-9 39 -41 2q-106 -133 -325 -133q-155 0 -241.5 78.5t-86.5 215.5t94 218.5t267 82.5h309v27q0 131 -71.5 203t-203.5 72q-106 0 -186 -25l-72 -21q-18 -6 -24 13l-23 80q-6 18 13 24z M762 461h-309q-113 0 -170.5 -47.5t-57.5 -130.5q0 -87 53.5 -135t151.5 -48q158 0 245 87t87 247v27z" />
<glyph unicode="&#xe4;" horiz-adv-x="1036" d="M362 1460q39 0 63 -23.5t24 -64.5t-24 -64.5t-63 -23.5q-40 0 -63 23.5t-23 64.5t23 64.5t63 23.5zM674 1460q39 0 62.5 -23.5t23.5 -64.5t-23.5 -64.5t-62.5 -23.5q-40 0 -63 23.5t-23 64.5t23 64.5t63 23.5zM195 948l75 23q98 30 219 30q188 0 297 -106t109 -291v-586 q0 -18 -18 -18h-64q-17 0 -20 18l-7 93q-9 39 -41 2q-106 -133 -325 -133q-155 0 -241.5 78.5t-86.5 215.5t94 218.5t267 82.5h309v27q0 131 -71.5 203t-203.5 72q-106 0 -186 -25l-72 -21q-18 -6 -24 13l-23 80q-6 18 13 24zM762 461h-309q-113 0 -170.5 -47.5 t-57.5 -130.5q0 -87 53.5 -135t151.5 -48q158 0 245 87t87 247v27z" />
<glyph unicode="&#xe5;" horiz-adv-x="1036" d="M518 1466q78 0 122 -39.5t44 -109.5t-44 -110t-122 -40q-79 0 -122.5 39.5t-43.5 110.5t43.5 110t122.5 39zM518 1386q-80 0 -80 -69q0 -70 80 -70q38 0 59 18t21 52q0 69 -80 69zM195 948l75 23q98 30 219 30q188 0 297 -106t109 -291v-586q0 -18 -18 -18h-64 q-17 0 -20 18l-7 93q-9 39 -41 2q-106 -133 -325 -133q-155 0 -241.5 78.5t-86.5 215.5t94 218.5t267 82.5h309v27q0 131 -71.5 203t-203.5 72q-106 0 -186 -25l-72 -21q-18 -6 -24 13l-23 80q-6 18 13 24zM762 461h-309q-113 0 -170.5 -47.5t-57.5 -130.5q0 -87 53.5 -135 t151.5 -48q158 0 245 87t87 247v27z" />
<glyph unicode="&#xe6;" horiz-adv-x="1681" d="M195 946l81 25q100 28 216 28q241 0 339 -194q16 -29 35 0q53 95 140.5 145.5t201.5 50.5q186 0 278.5 -83t92.5 -211q0 -116 -75 -181.5t-234 -91.5l-361 -61q20 -122 97 -196.5t202 -74.5q89 0 195 27l65 18q20 3 23 -14l25 -82q3 -19 -15 -22l-65 -19 q-105 -30 -228 -30q-254 0 -360 219q-18 30 -33 0q-106 -219 -389 -219q-157 0 -245.5 80.5t-88.5 218.5t93 216t259 78h318v45q0 119 -72 189t-201 70q-95 0 -186 -25l-74 -23q-18 -6 -24 13l-25 82q-3 19 15 22zM897 487l352 58q102 17 150.5 56t48.5 104q0 70 -58 122 t-182 52q-144 0 -225.5 -99t-85.5 -293zM762 463h-320q-102 0 -159.5 -47t-57.5 -131t55 -134.5t152 -50.5q167 0 248.5 87.5t81.5 275.5z" />
<glyph unicode="&#xe7;" horiz-adv-x="956" d="M834 31l-66 -19q-106 -32 -203 -32h-8l-35 -86h15q82 0 130 -44.5t48 -123.5q0 -84 -53 -132.5t-148 -48.5q-42 0 -92 17l-31 10q-18 6 -12 25l20 63q7 17 23 10l31 -8q31 -10 61 -10q46 0 73 21.5t27 60.5t-27 59.5t-75 20.5h-66q-12 0 -22 10l-4 4q-7 10 -4 27l47 133 q-174 31 -267.5 163t-93.5 341q0 238 120.5 373.5t344.5 135.5q89 0 191 -30l63 -19q19 -3 13 -22l-27 -82q-6 -15 -23 -12l-57 16q-80 27 -158 27q-165 0 -249 -101.5t-84 -285.5q0 -185 84 -287.5t245 -102.5q76 0 174 29l58 16q18 6 24 -12l25 -80q6 -18 -12 -24z" />
<glyph unicode="&#xe8;" horiz-adv-x="1024" d="M453 1436l155 -232q6 -9 2.5 -15.5t-14.5 -6.5h-84q-13 0 -23 10l-182 233q-8 9 -5 16t15 7h113q14 0 23 -12zM840 29l-66 -19q-94 -30 -221 -30q-211 0 -331 137.5t-120 374.5q0 235 120 372t329 137q174 0 272.5 -80.5t98.5 -222.5q0 -212 -275 -258l-399 -65 q20 -130 100 -201.5t205 -71.5q105 0 190 27l62 18q18 3 24 -14l25 -82q3 -19 -14 -22zM238 487l387 66q163 27 163 143q0 87 -62.5 135t-176.5 48q-145 0 -226 -99t-85 -293z" />
<glyph unicode="&#xe9;" horiz-adv-x="1024" d="M629 1448h112q12 0 15.5 -7t-4.5 -16l-183 -233q-10 -10 -22 -10h-84q-11 0 -14.5 6.5t2.5 15.5l155 232q9 12 23 12zM840 29l-66 -19q-94 -30 -221 -30q-211 0 -331 137.5t-120 374.5q0 235 120 372t329 137q174 0 272.5 -80.5t98.5 -222.5q0 -212 -275 -258l-399 -65 q20 -130 100 -201.5t205 -71.5q105 0 190 27l62 18q18 3 24 -14l25 -82q3 -19 -14 -22zM238 487l387 66q163 27 163 143q0 87 -62.5 135t-176.5 48q-145 0 -226 -99t-85 -293z" />
<glyph unicode="&#xea;" horiz-adv-x="1024" d="M528 1343l-141 -151q-7 -10 -22 -10h-78q-12 0 -15.5 6.5t4.5 15.5l185 234q10 10 22 10h88q13 0 23 -10l184 -234q8 -9 5 -15.5t-15 -6.5h-76q-14 0 -22 10zM840 29l-66 -19q-94 -30 -221 -30q-211 0 -331 137.5t-120 374.5q0 235 120 372t329 137q174 0 272.5 -80.5 t98.5 -222.5q0 -212 -275 -258l-399 -65q20 -130 100 -201.5t205 -71.5q105 0 190 27l62 18q18 3 24 -14l25 -82q3 -19 -14 -22zM238 487l387 66q163 27 163 143q0 87 -62.5 135t-176.5 48q-145 0 -226 -99t-85 -293z" />
<glyph unicode="&#xeb;" horiz-adv-x="1024" d="M373 1458q39 0 62.5 -23.5t23.5 -64.5t-23.5 -64.5t-62.5 -23.5q-40 0 -63 23.5t-23 64.5t23 64.5t63 23.5zM684 1458q39 0 62.5 -23.5t23.5 -64.5t-23.5 -64.5t-62.5 -23.5q-40 0 -63 23.5t-23 64.5t23 64.5t63 23.5zM840 29l-66 -19q-94 -30 -221 -30 q-211 0 -331 137.5t-120 374.5q0 235 120 372t329 137q174 0 272.5 -80.5t98.5 -222.5q0 -212 -275 -258l-399 -65q20 -130 100 -201.5t205 -71.5q105 0 190 27l62 18q18 3 24 -14l25 -82q3 -19 -14 -22zM238 487l387 66q163 27 163 143q0 87 -62.5 135t-176.5 48 q-145 0 -226 -99t-85 -293z" />
<glyph unicode="&#xec;" horiz-adv-x="514" d="M117 1448h104q17 0 23 -14l82 -232q4 -9 0 -14.5t-15 -5.5h-75q-15 0 -21 14l-113 229q-4 10 0 16.5t15 6.5zM336 0h-96q-19 0 -19 18v842h-94q-18 0 -18 19v84q0 18 18 18h209q18 0 18 -18v-945q0 -18 -18 -18z" />
<glyph unicode="&#xed;" horiz-adv-x="514" d="M428 1425l-113 -229q-6 -14 -20 -14h-76q-11 0 -14.5 5.5t0.5 14.5l82 232q6 14 22 14h105q11 0 14.5 -6t-0.5 -17zM336 0h-96q-19 0 -19 18v842h-94q-18 0 -18 19v84q0 18 18 18h209q18 0 18 -18v-945q0 -18 -18 -18z" />
<glyph unicode="&#xee;" horiz-adv-x="514" d="M334 1436l141 -232q6 -9 3 -15.5t-15 -6.5h-74q-13 0 -22 12l-103 143l-102 -143q-9 -12 -23 -12h-71q-12 0 -15.5 6.5t2.5 15.5l140 232q9 12 22 12h94q14 0 23 -12zM109 879v84q0 18 18 18h209q18 0 18 -18v-945q0 -18 -18 -18h-96q-19 0 -19 18v842h-94q-18 0 -18 19z " />
<glyph unicode="&#xef;" horiz-adv-x="514" d="M137 1462q39 0 62.5 -23.5t23.5 -64.5t-23.5 -64.5t-62.5 -23.5q-40 0 -63 23.5t-23 64.5t23 64.5t63 23.5zM391 1462q39 0 62.5 -23.5t23.5 -64.5t-23.5 -64.5t-62.5 -23.5q-40 0 -63 23.5t-23 64.5t23 64.5t63 23.5zM336 0h-96q-19 0 -19 18v842h-94q-18 0 -18 19v84 q0 18 18 18h209q18 0 18 -18v-945q0 -18 -18 -18z" />
<glyph unicode="&#xf0;" horiz-adv-x="1110" d="M903 1313l-184 -88q58 -61 103.5 -125.5t87.5 -151t64.5 -197.5t22.5 -237q0 -256 -118 -395t-332 -139q-204 0 -324.5 132t-120.5 357q0 223 118 355t315 132q149 0 258 -88q17 -13 23 -7t-3 26q-63 136 -211 280l-207 -100q-14 -8 -24 8l-21 37q-7 16 8 25l181 88 l-31 26l-195 174q-9 7 -5.5 15t16.5 8h137q11 0 22 -8l127 -113l49 -45l209 102q15 9 25 -8l18 -39q8 -14 -8 -24zM551 104q147 0 230 96t83 267q0 172 -83 268t-230 96q-149 0 -232 -95.5t-83 -268.5q0 -172 83 -267.5t232 -95.5z" />
<glyph unicode="&#xf1;" d="M276 1288l37 78q45 88 136 88q38 0 94 -29l98 -55q32 -16 53 -16q34 0 54 41l22 41q9 12 23 12h61q11 0 14.5 -6t-2.5 -17l-39 -75q-42 -88 -133 -88q-46 0 -98 30l-94 49q-35 21 -53 21q-34 0 -54 -39l-22 -43q-6 -14 -21 -14h-61q-24 0 -15 22zM260 963l8 -125 q3 -9 8 -12t11 -0.5t12 10.5q116 165 328 165q169 0 265.5 -106t96.5 -291v-586q0 -18 -18 -18h-97q-18 0 -18 18v576q0 134 -64 209.5t-178 75.5q-152 0 -236.5 -108.5t-84.5 -303.5v-449q0 -18 -19 -18h-96q-18 0 -18 18v945q0 18 18 18h64q18 0 18 -18z" />
<glyph unicode="&#xf2;" horiz-adv-x="1099" d="M473 1436l156 -232q6 -9 2 -15.5t-15 -6.5h-84q-12 0 -22 10l-182 233q-8 9 -5 16t15 7h113q13 0 22 -12zM549 1001q207 0 326.5 -137t119.5 -372q0 -237 -119.5 -374.5t-326.5 -137.5t-327 138t-120 374q0 235 120 372t327 137zM549 879q-148 0 -230.5 -102.5 t-82.5 -284.5q0 -183 82.5 -286.5t230.5 -103.5t231.5 103.5t83.5 286.5q0 182 -83.5 284.5t-231.5 102.5z" />
<glyph unicode="&#xf3;" horiz-adv-x="1099" d="M649 1448h113q12 0 15 -7t-5 -16l-182 -233q-10 -10 -23 -10h-84q-11 0 -14.5 6.5t2.5 15.5l156 232q9 12 22 12zM549 1001q207 0 326.5 -137t119.5 -372q0 -237 -119.5 -374.5t-326.5 -137.5t-327 138t-120 374q0 235 120 372t327 137zM549 879q-148 0 -230.5 -102.5 t-82.5 -284.5q0 -183 82.5 -286.5t230.5 -103.5t231.5 103.5t83.5 286.5q0 182 -83.5 284.5t-231.5 102.5z" />
<glyph unicode="&#xf4;" horiz-adv-x="1099" d="M551 1343l-141 -151q-8 -10 -23 -10h-78q-12 0 -15 6.5t5 15.5l184 234q10 10 23 10h88q12 0 22 -10l185 -234q8 -9 5 -15.5t-15 -6.5h-76q-15 0 -23 10zM549 1001q207 0 326.5 -137t119.5 -372q0 -237 -119.5 -374.5t-326.5 -137.5t-327 138t-120 374q0 235 120 372 t327 137zM549 102q148 0 231.5 103.5t83.5 286.5q0 182 -83.5 284.5t-231.5 102.5t-230.5 -102.5t-82.5 -284.5q0 -183 82.5 -286.5t230.5 -103.5z" />
<glyph unicode="&#xf5;" horiz-adv-x="1099" d="M256 1288l37 78q45 88 135 88q38 0 94 -29l99 -55q32 -16 53 -16q33 0 53 41l23 41q9 12 22 12h62q11 0 14.5 -6t-2.5 -17l-39 -75q-42 -88 -133 -88q-46 0 -99 30l-94 49q-35 21 -53 21q-33 0 -53 -39l-23 -43q-6 -14 -20 -14h-62q-23 0 -14 22zM549 1001 q207 0 326.5 -137t119.5 -372q0 -237 -119.5 -374.5t-326.5 -137.5t-327 138t-120 374q0 235 120 372t327 137zM549 879q-148 0 -230.5 -102.5t-82.5 -284.5q0 -183 82.5 -286.5t230.5 -103.5t231.5 103.5t83.5 286.5q0 182 -83.5 284.5t-231.5 102.5z" />
<glyph unicode="&#xf6;" horiz-adv-x="1099" d="M395 1458q39 0 62.5 -23.5t23.5 -64.5t-23.5 -64.5t-62.5 -23.5q-40 0 -63 23.5t-23 64.5t23 64.5t63 23.5zM707 1458q39 0 62.5 -23.5t23.5 -64.5t-23.5 -64.5t-62.5 -23.5q-40 0 -63 23.5t-23 64.5t23 64.5t63 23.5zM549 1001q207 0 326.5 -137t119.5 -372 q0 -237 -119.5 -374.5t-326.5 -137.5t-327 138t-120 374q0 235 120 372t327 137zM549 879q-148 0 -230.5 -102.5t-82.5 -284.5q0 -183 82.5 -286.5t230.5 -103.5t231.5 103.5t83.5 286.5q0 182 -83.5 284.5t-231.5 102.5z" />
<glyph unicode="&#xf8;" horiz-adv-x="1099" d="M975 958l-86 -108q106 -137 106 -358q0 -237 -119.5 -374.5t-326.5 -137.5q-167 0 -279 92l-49 -62q-10 -10 -22 -10h-68q-12 0 -15 7t5 16l88 110q-107 135 -107 359q0 235 120 372t327 137q166 0 278 -92l50 62q10 10 22 10h66q12 0 15 -7t-5 -16zM293 238l457 573 q-84 68 -201 68q-149 0 -233.5 -102.5t-84.5 -284.5q0 -154 62 -254zM805 745l-457 -573q82 -70 201 -70q149 0 234 103.5t85 286.5q0 152 -63 253z" />
<glyph unicode="&#xf9;" d="M487 1436l156 -232q6 -9 2.5 -15.5t-14.5 -6.5h-84q-13 0 -23 10l-182 233q-8 9 -5 16t15 7h113q13 0 22 -12zM879 18l-9 125q-10 29 -30 2q-116 -165 -328 -165q-169 0 -265.5 106t-96.5 291v586q0 18 18 18h96q19 0 19 -18v-576q0 -134 63.5 -209.5t177.5 -75.5 q152 0 237 108.5t85 303.5v449q0 18 18 18h97q18 0 18 -18v-945q0 -18 -18 -18h-64q-18 0 -18 18z" />
<glyph unicode="&#xfa;" d="M664 1448h112q12 0 15 -7t-5 -16l-182 -233q-10 -10 -22 -10h-84q-11 0 -15 6.5t2 15.5l156 232q9 12 23 12zM879 18l-9 125q-10 29 -30 2q-116 -165 -328 -165q-169 0 -265.5 106t-96.5 291v586q0 18 18 18h96q19 0 19 -18v-576q0 -134 63.5 -209.5t177.5 -75.5 q152 0 237 108.5t85 303.5v449q0 18 18 18h97q18 0 18 -18v-945q0 -18 -18 -18h-64q-18 0 -18 18z" />
<glyph unicode="&#xfb;" d="M565 1343l-141 -151q-8 -10 -23 -10h-77q-12 0 -15 6.5t4 15.5l185 234q10 10 22 10h88q13 0 23 -10l184 -234q8 -9 5 -15.5t-15 -6.5h-76q-15 0 -22 10zM864 981h97q18 0 18 -18v-945q0 -18 -18 -18h-64q-18 0 -18 18l-9 125q-10 29 -30 2q-116 -165 -328 -165 q-169 0 -265.5 106t-96.5 291v586q0 18 18 18h96q19 0 19 -18v-576q0 -134 63.5 -209.5t177.5 -75.5q152 0 237 108.5t85 303.5v449q0 18 18 18z" />
<glyph unicode="&#xfc;" d="M410 1458q39 0 62.5 -23.5t23.5 -64.5t-23.5 -64.5t-62.5 -23.5q-40 0 -63 23.5t-23 64.5t23 64.5t63 23.5zM721 1458q39 0 62.5 -23.5t23.5 -64.5t-23.5 -64.5t-62.5 -23.5q-40 0 -63 23.5t-23 64.5t23 64.5t63 23.5zM879 18l-9 125q-10 29 -30 2q-116 -165 -328 -165 q-169 0 -265.5 106t-96.5 291v586q0 18 18 18h96q19 0 19 -18v-576q0 -134 63.5 -209.5t177.5 -75.5q152 0 237 108.5t85 303.5v449q0 18 18 18h97q18 0 18 -18v-945q0 -18 -18 -18h-64q-18 0 -18 18z" />
<glyph unicode="&#xfd;" horiz-adv-x="1105" d="M647 1448h113q12 0 15 -7t-5 -16l-182 -233q-10 -10 -23 -10h-84q-11 0 -14.5 6.5t2.5 15.5l156 232q9 12 22 12zM401 -432h-100q-23 0 -14 22l141 318q57 135 -29 340l-317 710q-4 10 -0.5 16.5t14.5 6.5h103q14 0 20 -14l244 -539q55 -129 76 -225q2 -9 7 -12t10.5 0 t8.5 12q22 85 82 225l240 539q6 14 20 14h105q9 0 12.5 -6.5t-0.5 -16.5l-602 -1376q-6 -14 -21 -14z" />
<glyph unicode="&#xfe;" horiz-adv-x="1132" d="M293 1430v-377q0 -109 -19 -209q-3 -14 6 -17.5t21 9.5q52 78 130.5 121.5t176.5 43.5q200 0 311 -135.5t111 -373.5t-117.5 -375t-324.5 -137q-131 0 -234 49l-61 28v-473q0 -18 -19 -18h-96q-18 0 -18 18v1846q0 18 18 18h96q19 0 19 -18zM291 186l84 -41 q90 -43 209 -43q148 0 230.5 103.5t82.5 286.5q0 182 -79 284.5t-220 102.5q-147 0 -227 -114t-80 -296v-283z" />
<glyph unicode="&#xff;" horiz-adv-x="1105" d="M391 1458q39 0 62.5 -23.5t23.5 -64.5t-23.5 -64.5t-62.5 -23.5q-40 0 -63 23.5t-23 64.5t23 64.5t63 23.5zM702 1458q39 0 62.5 -23.5t23.5 -64.5t-23.5 -64.5t-62.5 -23.5q-40 0 -63 23.5t-23 64.5t23 64.5t63 23.5zM401 -432h-100q-23 0 -14 22l141 318 q57 135 -29 340l-317 710q-4 10 -0.5 16.5t14.5 6.5h103q14 0 20 -14l244 -539q55 -129 76 -225q2 -9 7 -12t10.5 0t8.5 12q22 85 82 225l240 539q6 14 20 14h105q9 0 12.5 -6.5t-0.5 -16.5l-602 -1376q-6 -14 -21 -14z" />
<glyph unicode="&#x100;" horiz-adv-x="1425" d="M438 1726h547q19 0 19 -18v-70q0 -18 -19 -18h-547q-18 0 -18 18v70q0 18 18 18zM373 358l-140 -344q-6 -14 -22 -14h-107q-9 0 -13 5.5t-1 14.5l422 1020q71 179 119 353q3 16 20 16h121q18 0 21 -16q43 -155 120 -353l420 -1020q3 -9 -1 -14.5t-13 -5.5h-105 q-16 0 -22 14l-139 344h-680zM1001 483l-188 453q-62 153 -88 272q-2 9 -7.5 12t-11.5 0t-8 -12q-22 -113 -88 -272l-186 -453h577z" />
<glyph unicode="&#x101;" horiz-adv-x="1036" d="M285 1366h467q18 0 18 -18v-66q0 -18 -18 -18h-467q-19 0 -19 18v66q0 18 19 18zM195 948l75 23q98 30 219 30q188 0 297 -106t109 -291v-586q0 -18 -18 -18h-64q-17 0 -20 18l-7 93q-9 39 -41 2q-106 -133 -325 -133q-155 0 -241.5 78.5t-86.5 215.5t94 218.5t267 82.5 h309v27q0 131 -71.5 203t-203.5 72q-106 0 -186 -25l-72 -21q-18 -6 -24 13l-23 80q-6 18 13 24zM762 461h-309q-113 0 -170.5 -47.5t-57.5 -130.5q0 -87 53.5 -135t151.5 -48q158 0 245 87t87 247v27z" />
<glyph unicode="&#x102;" horiz-adv-x="1425" d="M956 1774v-25q0 -199 -245 -199q-246 0 -246 199v25q0 18 18 18h76q19 0 19 -18v-23q0 -98 133 -98q64 0 98.5 25.5t34.5 72.5v23q0 18 18 18h76q18 0 18 -18zM373 358l-140 -344q-6 -14 -22 -14h-107q-9 0 -13 5.5t-1 14.5l422 1020q71 179 119 353q3 16 20 16h121 q18 0 21 -16q43 -155 120 -353l420 -1020q3 -9 -1 -14.5t-13 -5.5h-105q-16 0 -22 14l-139 344h-680zM1001 483l-188 453q-62 153 -88 272q-2 9 -7.5 12t-11.5 0t-8 -12q-22 -113 -88 -272l-186 -453h577z" />
<glyph unicode="&#x103;" horiz-adv-x="1036" d="M762 1432v-52q0 -101 -64 -158t-178 -57t-177.5 57t-63.5 158v52q0 18 18 18h72q18 0 18 -18v-52q0 -56 34.5 -86t98.5 -30t98.5 30t34.5 86v52q0 18 19 18h71q19 0 19 -18zM195 948l75 23q98 30 219 30q188 0 297 -106t109 -291v-586q0 -18 -18 -18h-64q-17 0 -20 18 l-7 93q-9 39 -41 2q-106 -133 -325 -133q-155 0 -241.5 78.5t-86.5 215.5t94 218.5t267 82.5h309v27q0 131 -71.5 203t-203.5 72q-106 0 -186 -25l-72 -21q-18 -6 -24 13l-23 80q-6 18 13 24zM762 461h-309q-113 0 -170.5 -47.5t-57.5 -130.5q0 -87 53.5 -135t151.5 -48 q158 0 245 87t87 247v27z" />
<glyph unicode="&#x104;" horiz-adv-x="1425" d="M1339 -336l23 -65q6 -19 -12 -25l-31 -10q-52 -19 -92 -19q-80 0 -128 42.5t-48 115.5q0 75 61 139l78 84q45 50 18 74q-10 0 -16 14l-139 344h-680l-140 -344q-6 -14 -22 -14h-107q-9 0 -13 5.5t-1 14.5l422 1020q71 179 119 353q3 16 20 16h121q18 0 21 -16 q43 -155 120 -353l424 -1030q4 -16 4 -22q-6 -52 -57 -103l-90 -96q-31 -39 -31 -72q0 -61 64 -61q20 0 65 10l25 8q16 6 22 -10zM1001 483l-188 453q-62 153 -88 272q-2 9 -7.5 12t-11.5 0t-8 -12q-22 -113 -88 -272l-186 -453h577z" />
<glyph unicode="&#x105;" horiz-adv-x="1036" d="M895 -338l20 -63q6 -19 -12 -25l-31 -10q-52 -19 -90 -19q-82 0 -129 42.5t-47 115.5q0 76 60 139l86 92q41 43 41 99l-7 78q-9 39 -41 2q-106 -133 -325 -133q-155 0 -241.5 78.5t-86.5 215.5t94 218.5t267 82.5h309v27q0 131 -71.5 203t-203.5 72q-106 0 -186 -25 l-72 -21q-18 -6 -24 13l-23 80q-6 18 13 24l75 23q98 30 219 30q188 0 297 -106t109 -291v-604h2q0 -58 -57 -115l-90 -96q-31 -34 -31 -72q0 -61 63 -61q21 0 66 10l22 8q19 6 25 -12zM762 461h-309q-113 0 -170.5 -47.5t-57.5 -130.5q0 -87 53.5 -135t151.5 -48 q158 0 245 87t87 247v27z" />
<glyph unicode="&#x106;" horiz-adv-x="1234" d="M786 1792h140q12 0 14.5 -7t-6.5 -16l-199 -188q-11 -8 -22 -8h-99q-11 0 -14 6.5t4 15.5l160 187q7 10 22 10zM1092 63l-84 -30q-83 -30 -146.5 -41.5t-148.5 -11.5q-279 0 -438.5 194.5t-159.5 530.5q0 338 159.5 532.5t438.5 194.5q87 0 149 -11t142 -41l86 -30 q17 -7 10 -23l-29 -84q-6 -18 -24 -12l-86 33q-61 23 -115 31t-133 8q-218 0 -338.5 -157.5t-120.5 -440.5q0 -282 120.5 -440.5t338.5 -158.5q127 0 252 46l84 28q16 6 22 -10l31 -84q7 -16 -10 -23z" />
<glyph unicode="&#x107;" horiz-adv-x="956" d="M618 1448h113q12 0 15 -7t-5 -16l-182 -233q-10 -10 -22 -10h-84q-11 0 -15 6.5t2 15.5l156 232q9 12 22 12zM834 31l-66 -19q-106 -32 -203 -32q-222 0 -342.5 136.5t-120.5 375.5q0 238 120.5 373.5t344.5 135.5q89 0 191 -30l63 -19q19 -3 13 -22l-27 -82 q-6 -15 -23 -12l-57 16q-80 27 -158 27q-165 0 -249 -101.5t-84 -285.5q0 -185 84 -287.5t245 -102.5q76 0 174 29l58 16q18 6 24 -12l25 -80q6 -18 -12 -24z" />
<glyph unicode="&#x108;" horiz-adv-x="1234" d="M684 1700l-143 -119q-11 -8 -23 -8h-88q-12 0 -14.5 6.5t6.5 15.5l178 187q10 10 25 10h116q15 0 25 -10l182 -187q9 -9 6 -15.5t-16 -6.5h-88q-12 0 -23 8zM1071 170l31 -84q7 -16 -10 -23l-84 -30q-83 -30 -146.5 -41.5t-148.5 -11.5q-279 0 -438.5 194.5t-159.5 530.5 q0 338 159.5 532.5t438.5 194.5q87 0 149 -11t142 -41l86 -30q17 -7 10 -23l-29 -84q-6 -18 -24 -12l-86 33q-61 23 -115 31t-133 8q-218 0 -338.5 -157.5t-120.5 -440.5q0 -282 120.5 -440.5t338.5 -158.5q127 0 252 46l84 28q16 6 22 -10z" />
<glyph unicode="&#x109;" horiz-adv-x="956" d="M518 1343l-141 -151q-7 -10 -23 -10h-78q-12 0 -15 6.5t5 15.5l185 234q10 10 22 10h88q13 0 23 -10l184 -234q8 -9 5 -15.5t-15 -6.5h-76q-16 0 -23 10zM821 135l25 -80q6 -18 -12 -24l-66 -19q-106 -32 -203 -32q-222 0 -342.5 136.5t-120.5 375.5q0 238 120.5 373.5 t344.5 135.5q89 0 191 -30l63 -19q19 -3 13 -22l-27 -82q-6 -15 -23 -12l-57 16q-80 27 -158 27q-165 0 -249 -101.5t-84 -285.5q0 -185 84 -287.5t245 -102.5q76 0 174 29l58 16q18 6 24 -12z" />
<glyph unicode="&#x10a;" horiz-adv-x="1234" d="M686 1765q41 0 65.5 -23t24.5 -63q0 -39 -24 -61.5t-66 -22.5q-44 0 -68 22t-24 62t24 63t68 23zM1092 63l-84 -30q-83 -30 -146.5 -41.5t-148.5 -11.5q-279 0 -438.5 194.5t-159.5 530.5q0 338 159.5 532.5t438.5 194.5q87 0 149 -11t142 -41l86 -30q17 -7 10 -23 l-29 -84q-6 -18 -24 -12l-86 33q-61 23 -115 31t-133 8q-218 0 -338.5 -157.5t-120.5 -440.5q0 -282 120.5 -440.5t338.5 -158.5q127 0 252 46l84 28q16 6 22 -10l31 -84q7 -16 -10 -23z" />
<glyph unicode="&#x10b;" horiz-adv-x="956" d="M518 1458q40 0 64 -24t24 -66t-24 -66t-64 -24q-41 0 -64.5 23.5t-23.5 66.5t23.5 66.5t64.5 23.5zM834 31l-66 -19q-106 -32 -203 -32q-222 0 -342.5 136.5t-120.5 375.5q0 238 120.5 373.5t344.5 135.5q89 0 191 -30l63 -19q19 -3 13 -22l-27 -82q-6 -15 -23 -12 l-57 16q-80 27 -158 27q-165 0 -249 -101.5t-84 -285.5q0 -185 84 -287.5t245 -102.5q76 0 174 29l58 16q18 6 24 -12l25 -80q6 -18 -12 -24z" />
<glyph unicode="&#x10c;" horiz-adv-x="1234" d="M741 1571h-116q-15 0 -25 10l-178 186q-9 9 -6.5 16t14.5 7h88q12 0 23 -8l143 -119l143 119q11 8 23 8h88q13 0 16 -7t-6 -16l-182 -186q-10 -10 -25 -10zM1071 170l31 -84q7 -16 -10 -23l-84 -30q-83 -30 -146.5 -41.5t-148.5 -11.5q-279 0 -438.5 194.5t-159.5 530.5 q0 338 159.5 532.5t438.5 194.5q87 0 149 -11t142 -41l86 -30q17 -7 10 -23l-29 -84q-6 -18 -24 -12l-86 33q-61 23 -115 31t-133 8q-218 0 -338.5 -157.5t-120.5 -440.5q0 -282 120.5 -440.5t338.5 -158.5q127 0 252 46l84 28q16 6 22 -10z" />
<glyph unicode="&#x10d;" horiz-adv-x="956" d="M563 1180h-88q-12 0 -22 10l-185 233q-8 9 -4.5 16t15.5 7h75q16 0 23 -10l141 -152l141 152q7 10 23 10h78q12 0 15 -7t-5 -16l-184 -233q-10 -10 -23 -10zM821 135l25 -80q6 -18 -12 -24l-66 -19q-106 -32 -203 -32q-222 0 -342.5 136.5t-120.5 375.5 q0 238 120.5 373.5t344.5 135.5q89 0 191 -30l63 -19q19 -3 13 -22l-27 -82q-6 -15 -23 -12l-57 16q-80 27 -158 27q-165 0 -249 -101.5t-84 -285.5q0 -185 84 -287.5t245 -102.5q76 0 174 29l58 16q18 6 24 -12z" />
<glyph unicode="&#x10e;" horiz-adv-x="1359" d="M707 1571h-117q-15 0 -25 10l-178 186q-9 9 -6.5 16t14.5 7h88q12 0 23 -8l143 -119l144 119q11 8 22 8h88q13 0 16 -7t-6 -16l-182 -186q-10 -10 -24 -10zM199 1409h452q276 0 434 -188t158 -516q0 -326 -158.5 -515.5t-433.5 -189.5h-452q-19 0 -19 18v1373q0 18 19 18 zM315 123h336q215 0 335 154t120 428q0 275 -120 428t-335 153h-336v-1163z" />
<glyph unicode="&#x10f;" horiz-adv-x="1150" d="M954 0h-63q-18 0 -21 18l-8 123q-1 9 -5 13t-10 1.5t-13 -12.5q-118 -163 -314 -163q-194 0 -306 137.5t-112 374.5t118 372t325 137q130 0 233 -49l64 -28v506q0 18 18 18h94q19 0 19 -18v-1412q0 -18 -19 -18zM1143 1448h78q18 0 18 -18v-62q0 -63 -39 -151l-10 -21 q-6 -14 -21 -14h-57q-23 0 -16 20l10 35q18 67 18 133v60q0 18 19 18zM842 795l-84 39q-89 45 -209 45q-148 -2 -231 -104t-82 -283q2 -182 81 -286t218 -104q148 0 227.5 114.5t79.5 295.5v283z" />
<glyph unicode="&#x110;" horiz-adv-x="1476" d="M315 1409h453q276 0 434 -188t158 -516q0 -326 -158.5 -515.5t-433.5 -189.5h-453q-18 0 -18 18v633h-209q-18 0 -18 19v86q0 18 18 18h209v617q0 18 18 18zM432 123h336q215 0 335 154t120 428q0 275 -120 428t-335 153h-336v-512h289q18 0 18 -18v-86q0 -19 -18 -19 h-289v-528z" />
<glyph unicode="&#x111;" horiz-adv-x="1142" d="M1102 1231v-66q0 -18 -19 -18h-110v-1129q0 -18 -19 -18h-63q-18 0 -21 18l-8 123q-1 9 -5 13t-10 1.5t-13 -12.5q-118 -163 -314 -163q-194 0 -306 137.5t-112 374.5t118 372t325 137q130 0 233 -49l64 -28v223h-289q-18 0 -18 18v66q0 18 18 18h289v181q0 18 18 18h94 q19 0 19 -18v-181h110q19 0 19 -18zM842 795l-84 39q-89 45 -209 45q-148 -2 -231 -104t-82 -283q2 -182 81 -286t218 -104q148 0 227.5 114.5t79.5 295.5v283z" />
<glyph unicode="&#x112;" horiz-adv-x="1228" d="M375 1726h547q18 0 18 -18v-70q0 -18 -18 -18h-547q-19 0 -19 18v70q0 18 19 18zM315 784h637q19 0 19 -18v-86q0 -18 -19 -18h-637v-539h787q18 0 18 -19v-86q0 -18 -18 -18h-903q-19 0 -19 18v1373q0 18 19 18h895q23 0 16 -20l-27 -86q-3 -17 -20 -17h-748v-502z" />
<glyph unicode="&#x113;" horiz-adv-x="1024" d="M295 1364h467q18 0 18 -18v-66q0 -18 -18 -18h-467q-19 0 -19 18v66q0 18 19 18zM840 29l-66 -19q-94 -30 -221 -30q-211 0 -331 137.5t-120 374.5q0 235 120 372t329 137q174 0 272.5 -80.5t98.5 -222.5q0 -212 -275 -258l-399 -65q20 -130 100 -201.5t205 -71.5 q105 0 190 27l62 18q18 3 24 -14l25 -82q3 -19 -14 -22zM238 487l387 66q163 27 163 143q0 87 -62.5 135t-176.5 48q-145 0 -226 -99t-85 -293z" />
<glyph unicode="&#x114;" horiz-adv-x="1228" d="M895 1774v-25q0 -199 -246 -199t-246 199v25q0 18 19 18h76q18 0 18 -18v-23q0 -98 133 -98q64 0 98.5 25.5t34.5 72.5v23q0 18 19 18h76q18 0 18 -18zM315 784h637q19 0 19 -18v-86q0 -18 -19 -18h-637v-539h787q18 0 18 -19v-86q0 -18 -18 -18h-903q-19 0 -19 18v1373 q0 18 19 18h895q23 0 16 -20l-27 -86q-3 -17 -20 -17h-748v-502z" />
<glyph unicode="&#x115;" horiz-adv-x="1024" d="M772 1430v-52q0 -101 -64 -158t-178 -57t-177.5 57t-63.5 158v52q0 18 18 18h72q18 0 18 -18v-52q0 -56 34.5 -86t98.5 -30t99 30t35 86v52q0 18 18 18h72q18 0 18 -18zM840 29l-66 -19q-94 -30 -221 -30q-211 0 -331 137.5t-120 374.5q0 235 120 372t329 137 q174 0 272.5 -80.5t98.5 -222.5q0 -212 -275 -258l-399 -65q20 -130 100 -201.5t205 -71.5q105 0 190 27l62 18q18 3 24 -14l25 -82q3 -19 -14 -22zM238 487l387 66q163 27 163 143q0 87 -62.5 135t-176.5 48q-145 0 -226 -99t-85 -293z" />
<glyph unicode="&#x116;" horiz-adv-x="1228" d="M651 1767q41 0 65.5 -23t24.5 -63q0 -39 -24 -61.5t-66 -22.5q-44 0 -68 22t-24 62t24 63t68 23zM315 784h637q19 0 19 -18v-86q0 -18 -19 -18h-637v-539h787q18 0 18 -19v-86q0 -18 -18 -18h-903q-19 0 -19 18v1373q0 18 19 18h895q23 0 16 -20l-27 -86q-3 -17 -20 -17 h-748v-502z" />
<glyph unicode="&#x117;" horiz-adv-x="1024" d="M528 1458q40 0 64 -24t24 -66t-24 -66t-64 -24q-41 0 -64.5 23.5t-23.5 66.5t23.5 66.5t64.5 23.5zM840 29l-66 -19q-94 -30 -221 -30q-211 0 -331 137.5t-120 374.5q0 235 120 372t329 137q174 0 272.5 -80.5t98.5 -222.5q0 -212 -275 -258l-399 -65q20 -130 100 -201.5 t205 -71.5q105 0 190 27l62 18q18 3 24 -14l25 -82q3 -19 -14 -22zM238 487l387 66q163 27 163 143q0 87 -62.5 135t-176.5 48q-145 0 -226 -99t-85 -293z" />
<glyph unicode="&#x118;" horiz-adv-x="1236" d="M1032 -334l25 10q18 6 24 -12l23 -65q6 -19 -12 -25l-31 -10q-55 -19 -94 -19q-80 0 -127 42.5t-47 115.5q0 75 61 139l88 99q34 38 33 47q-1 12 -37 12h-739q-19 0 -19 18v1373q0 18 19 18h895q23 0 16 -20l-27 -86q-3 -17 -20 -17h-748v-502h637q19 0 19 -18v-86 q0 -18 -19 -18h-637v-539h787q18 0 18 -19v-104q7 0 -12 -23l-174 -188q-29 -33 -29 -72q0 -61 62 -61q20 0 65 10z" />
<glyph unicode="&#x119;" horiz-adv-x="1024" d="M514 -143l98 88q40 33 4 37q-20 -2 -63 -2q-211 0 -331 137.5t-120 374.5q0 235 120 372t329 137q174 0 272.5 -80.5t98.5 -222.5q0 -212 -275 -258l-399 -65q20 -130 100 -201.5t205 -71.5q105 0 190 27l62 18q18 3 24 -14l25 -86q3 -16 -8 -24l-258 -228 q-41 -33 -41 -74q0 -69 71 -69q24 0 64 12l29 8q16 6 22 -10l23 -63q6 -19 -13 -25l-34 -12q-56 -17 -93 -17q-85 0 -132.5 43.5t-47.5 120.5q0 76 78 148zM238 487l387 66q163 27 163 143q0 87 -62.5 135t-176.5 48q-145 0 -226 -99t-85 -293z" />
<glyph unicode="&#x11a;" horiz-adv-x="1228" d="M707 1571h-117q-15 0 -25 10l-178 186q-9 9 -6.5 16t14.5 7h88q12 0 23 -8l143 -119l144 119q11 8 22 8h88q13 0 16 -7t-6 -16l-182 -186q-10 -10 -24 -10zM315 123h787q18 0 18 -19v-86q0 -18 -18 -18h-903q-19 0 -19 18v1373q0 18 19 18h895q23 0 16 -20l-27 -86 q-3 -17 -20 -17h-748v-502h637q19 0 19 -18v-86q0 -18 -19 -18h-637v-539z" />
<glyph unicode="&#x11b;" horiz-adv-x="1024" d="M573 1180h-88q-12 0 -22 10l-184 233q-8 9 -5 16t15 7h76q15 0 22 -10l141 -152l142 152q8 10 22 10h78q12 0 15 -7t-5 -16l-184 -233q-10 -10 -23 -10zM840 29l-66 -19q-94 -30 -221 -30q-211 0 -331 137.5t-120 374.5q0 235 120 372t329 137q174 0 272.5 -80.5 t98.5 -222.5q0 -212 -275 -258l-399 -65q20 -130 100 -201.5t205 -71.5q105 0 190 27l62 18q18 3 24 -14l25 -82q3 -19 -14 -22zM238 487l387 66q163 27 163 143q0 87 -62.5 135t-176.5 48q-145 0 -226 -99t-85 -293z" />
<glyph unicode="&#x11c;" horiz-adv-x="1335" d="M676 1700l-144 -119q-11 -8 -22 -8h-88q-12 0 -14.5 6.5t6.5 15.5l178 187q10 10 24 10h117q15 0 25 -10l182 -187q9 -9 6 -15.5t-16 -6.5h-88q-12 0 -23 8zM801 696h364q19 0 19 -18v-567q0 -18 -15 -21l-34 -12l-131 -47q-84 -30 -144.5 -40.5t-148.5 -10.5 q-279 0 -437.5 193.5t-158.5 531.5q0 336 159 531.5t437 195.5q84 0 146.5 -12t148.5 -42l86 -30q17 -7 10 -23l-31 -86q-6 -16 -22 -10l-86 31q-122 43 -252 43q-216 0 -336.5 -158t-120.5 -440t120.5 -440.5t336.5 -158.5q141 3 247 41l93 33v393h-279q-10 0 -14.5 6 t-1.5 15l24 86q3 16 21 16z" />
<glyph unicode="&#x11d;" horiz-adv-x="1124" d="M559 1343l-141 -151q-8 -10 -23 -10h-78q-12 0 -15 6.5t5 15.5l185 234q10 10 22 10h88q13 0 23 -10l184 -234q8 -9 5 -15.5t-15 -6.5h-76q-15 0 -23 10zM813 948l148 -65q14 -6 14 -21v-893q0 -201 -116 -311.5t-335 -110.5q-126 0 -233 31l-90 25q-19 6 -13 24l27 82 q7 17 23 10l79 -22q85 -25 203 -25q152 0 238 70.5t96 210.5q2 85 8 188q2 13 -6.5 15t-17.5 -11q-119 -165 -318 -165q-193 0 -305.5 137t-112.5 372q0 240 120 376t335 136q134 0 256 -53zM842 795l-84 39q-85 45 -205 45q-151 -2 -234 -102.5t-83 -284.5 q0 -176 77.5 -283t218.5 -107q149 0 229.5 113t80.5 299v281z" />
<glyph unicode="&#x11e;" horiz-adv-x="1335" d="M922 1774v-25q0 -199 -246 -199t-246 199v25q0 18 19 18h75q19 0 19 -18v-23q0 -98 133 -98q64 0 98.5 25.5t34.5 72.5v23q0 18 18 18h76q19 0 19 -18zM1184 678v-567q0 -18 -15 -21l-34 -12l-131 -47q-84 -30 -144.5 -40.5t-148.5 -10.5q-279 0 -437.5 193.5 t-158.5 531.5q0 336 159 531.5t437 195.5q84 0 146.5 -12t148.5 -42l86 -30q17 -7 10 -23l-31 -86q-6 -16 -22 -10l-86 31q-122 43 -252 43q-216 0 -336.5 -158t-120.5 -440t120.5 -440.5t336.5 -158.5q141 3 247 41l93 33v393h-279q-10 0 -14.5 6t-1.5 15l24 86q3 16 21 16 h364q19 0 19 -18z" />
<glyph unicode="&#x11f;" horiz-adv-x="1124" d="M803 1430v-52q0 -101 -64 -158t-178 -57t-178 57t-64 158v52q0 18 19 18h72q18 0 18 -18v-52q0 -56 34.5 -86t98.5 -30t98.5 30t34.5 86v52q0 18 19 18h71q19 0 19 -18zM238 -281l79 -22q85 -25 203 -25q152 0 238 70.5t96 210.5q2 85 8 188q2 13 -6.5 15t-17.5 -11 q-119 -165 -318 -165q-193 0 -305.5 137t-112.5 372q0 240 120 376t335 136q134 0 256 -53l148 -65q14 -6 14 -21v-893q0 -201 -116 -311.5t-335 -110.5q-126 0 -233 31l-90 25q-19 6 -13 24l27 82q7 17 23 10zM842 795l-84 39q-85 45 -205 45q-151 -2 -234 -102.5 t-83 -284.5q0 -176 77.5 -283t218.5 -107q149 0 229.5 113t80.5 299v281z" />
<glyph unicode="&#x120;" horiz-adv-x="1335" d="M676 1765q41 0 65.5 -23t24.5 -63q0 -39 -24 -61.5t-66 -22.5q-44 0 -68 22t-24 62t24 63t68 23zM1184 678v-567q0 -18 -15 -21l-34 -12l-131 -47q-84 -30 -144.5 -40.5t-148.5 -10.5q-279 0 -437.5 193.5t-158.5 531.5q0 336 159 531.5t437 195.5q84 0 146.5 -12 t148.5 -42l86 -30q17 -7 10 -23l-31 -86q-6 -16 -22 -10l-86 31q-122 43 -252 43q-216 0 -336.5 -158t-120.5 -440t120.5 -440.5t336.5 -158.5q141 3 247 41l93 33v393h-279q-10 0 -14.5 6t-1.5 15l24 86q3 16 21 16h364q19 0 19 -18z" />
<glyph unicode="&#x121;" horiz-adv-x="1124" d="M559 1458q40 0 64 -24t24 -66t-24 -66t-64 -24q-41 0 -64.5 23.5t-23.5 66.5t23.5 66.5t64.5 23.5zM238 -281l79 -22q85 -25 203 -25q152 0 238 70.5t96 210.5q2 85 8 188q2 13 -6.5 15t-17.5 -11q-119 -165 -318 -165q-193 0 -305.5 137t-112.5 372q0 240 120 376 t335 136q134 0 256 -53l148 -65q14 -6 14 -21v-893q0 -201 -116 -311.5t-335 -110.5q-126 0 -233 31l-90 25q-19 6 -13 24l27 82q7 17 23 10zM842 795l-84 39q-85 45 -205 45q-151 -2 -234 -102.5t-83 -284.5q0 -176 77.5 -283t218.5 -107q149 0 229.5 113t80.5 299v281z " />
<glyph unicode="&#x122;" horiz-adv-x="1335" d="M1184 678v-567q0 -18 -15 -21l-34 -12l-131 -47q-84 -30 -144.5 -40.5t-148.5 -10.5q-279 0 -437.5 193.5t-158.5 531.5q0 336 159 531.5t437 195.5q84 0 146.5 -12t148.5 -42l86 -30q17 -7 10 -23l-31 -86q-6 -16 -22 -10l-86 31q-122 43 -252 43q-216 0 -336.5 -158 t-120.5 -440t120.5 -440.5t336.5 -158.5q141 3 247 41l93 33v393h-279q-10 0 -14.5 6t-1.5 15l24 86q3 16 21 16h364q19 0 19 -18zM610 -436l41 76q16 32 -12 41q-24 6 -38.5 27t-14.5 50q0 38 23.5 59t62.5 21q40 0 63 -24t23 -66q0 -52 -41 -127l-37 -67q-6 -13 -21 -13 h-36q-11 0 -15 6.5t2 16.5z" />
<glyph unicode="&#x123;" horiz-adv-x="1124" d="M610 1430l-41 -76q-16 -31 13 -41q23 -6 38 -27.5t15 -50.5q0 -38 -23.5 -59t-62.5 -21q-40 0 -63 24t-23 66q0 52 41 127l37 68q6 12 20 12h37q11 0 14.5 -6t-2.5 -16zM238 -281l79 -22q85 -25 203 -25q152 0 238 70.5t96 210.5q2 85 8 188q2 13 -6.5 15t-17.5 -11 q-119 -165 -318 -165q-193 0 -305.5 137t-112.5 372q0 240 120 376t335 136q134 0 256 -53l148 -65q14 -6 14 -21v-893q0 -201 -116 -311.5t-335 -110.5q-126 0 -233 31l-90 25q-19 6 -13 24l27 82q7 17 23 10zM842 795l-84 39q-85 45 -205 45q-151 -2 -234 -102.5 t-83 -284.5q0 -176 77.5 -283t218.5 -107q149 0 229.5 113t80.5 299v281z" />
<glyph unicode="&#x124;" horiz-adv-x="1413" d="M711 1700l-144 -119q-11 -8 -22 -8h-88q-12 0 -14.5 6.5t6.5 15.5l178 187q10 10 24 10h117q15 0 25 -10l182 -187q9 -9 6 -15.5t-16 -6.5h-88q-12 0 -23 8zM1114 1409h100q19 0 19 -18v-1373q0 -18 -19 -18h-100q-18 0 -18 18v644h-781v-644q0 -18 -18 -18h-98 q-19 0 -19 18v1373q0 18 19 18h98q18 0 18 -18v-607h781v607q0 18 18 18z" />
<glyph unicode="&#x125;" d="M225 1737l-143 -119q-11 -8 -23 -8h-88q-12 0 -14.5 6.5t6.5 15.5l178 187q10 10 25 10h117q14 0 24 -10l182 -187q9 -9 6 -15.5t-16 -6.5h-88q-11 0 -22 8zM293 1430v-377q0 -109 -19 -209q-3 -14 6 -17.5t21 9.5q113 165 326 165q169 0 265.5 -106t96.5 -291v-586 q0 -18 -18 -18h-97q-18 0 -18 18v576q0 134 -64 209.5t-178 75.5q-85 0 -149 -33t-100.5 -91.5t-54 -130t-17.5 -157.5v-449q0 -18 -19 -18h-96q-18 0 -18 18v1412q0 18 18 18h96q19 0 19 -18z" />
<glyph unicode="&#x126;" horiz-adv-x="1413" d="M1114 1409h100q19 0 19 -18v-1373q0 -18 -19 -18h-100q-18 0 -18 18v644h-781v-644q0 -18 -18 -18h-98q-19 0 -19 18v1373q0 18 19 18h98q18 0 18 -18v-306h781v306q0 18 18 18zM1096 784v197h-781v-197h781z" />
<glyph unicode="&#x127;" horiz-adv-x="1148" d="M303 1145v-92q0 -115 -18 -209q-3 -14 5.5 -17.5t20.5 9.5q113 165 326 165q169 0 265.5 -106t96.5 -291v-586q0 -18 -18 -18h-96q-19 0 -19 18v576q0 134 -63.5 209.5t-177.5 75.5q-85 0 -149 -33t-101 -91.5t-54.5 -130t-17.5 -157.5v-449q0 -18 -18 -18h-97 q-18 0 -18 18v1127h-111q-18 0 -18 18v68q0 18 18 18h111v181q0 18 18 18h97q18 0 18 -18v-181h287q18 0 18 -18v-68q0 -18 -18 -18h-287z" />
<glyph unicode="&#x128;" horiz-adv-x="495" d="M-94 1616l43 74q44 84 151 84q50 0 111 -27l119 -47q40 -14 61 -14q44 0 66 36l20 33q9 12 23 12h75q12 0 15.5 -6.5t-2.5 -15.5l-43 -72q-48 -86 -152 -86q-39 0 -110 31l-117 43q-37 16 -64 16q-43 0 -63 -35l-25 -36q-10 -13 -22 -13h-74q-10 0 -13.5 7t1.5 16zM297 0 h-98q-19 0 -19 18v1373q0 18 19 18h98q18 0 18 -18v-1373q0 -18 -18 -18z" />
<glyph unicode="&#x129;" horiz-adv-x="514" d="M23 1253l32 64q44 86 117 86q40 0 82 -31l59 -37q21 -14 37 -14q23 0 41 35l17 30q6 13 20 13h61q11 0 15 -6.5t0 -16.5l-33 -61q-43 -88 -115 -88q-40 0 -82 28l-57 37q-27 17 -41 17q-24 0 -41 -35l-16 -31q-6 -12 -21 -12h-61q-23 0 -14 22zM336 0h-96q-19 0 -19 18 v842h-94q-18 0 -18 19v84q0 18 18 18h209q18 0 18 -18v-945q0 -18 -18 -18z" />
<glyph unicode="&#x12a;" horiz-adv-x="495" d="M-27 1726h547q19 0 19 -18v-70q0 -18 -19 -18h-547q-18 0 -18 18v70q0 18 18 18zM297 0h-98q-19 0 -19 18v1373q0 18 19 18h98q18 0 18 -18v-1373q0 -18 -18 -18z" />
<glyph unicode="&#x12b;" horiz-adv-x="514" d="M84 1364h338q18 0 18 -18v-66q0 -18 -18 -18h-338q-18 0 -18 18v66q0 18 18 18zM336 0h-96q-19 0 -19 18v842h-94q-18 0 -18 19v84q0 18 18 18h209q18 0 18 -18v-945q0 -18 -18 -18z" />
<glyph unicode="&#x12c;" horiz-adv-x="495" d="M494 1774v-25q0 -199 -246 -199t-246 199v25q0 18 18 18h76q19 0 19 -18v-23q0 -98 133 -98q64 0 98.5 25.5t34.5 72.5v23q0 18 18 18h76q19 0 19 -18zM297 0h-98q-19 0 -19 18v1373q0 18 19 18h98q18 0 18 -18v-1373q0 -18 -18 -18z" />
<glyph unicode="&#x12d;" horiz-adv-x="514" d="M453 1425v-73q0 -86 -51 -134.5t-140 -48.5q-88 0 -137 48.5t-49 134.5v73q0 19 18 19h68q18 0 18 -19v-73q0 -40 22 -62t60 -22q41 0 63.5 22t22.5 62v73q0 19 19 19h67q19 0 19 -19zM336 0h-96q-19 0 -19 18v842h-94q-18 0 -18 19v84q0 18 18 18h209q18 0 18 -18v-945 q0 -18 -18 -18z" />
<glyph unicode="&#x12e;" horiz-adv-x="495" d="M317 -338l21 -63q6 -19 -12 -25l-31 -10q-52 -19 -92 -19q-80 0 -127 42.5t-47 115.5q0 77 59 139l78 84q43 49 24 74q-10 0 -10 18v1373q0 18 19 18h98q18 0 18 -18v-1391h2q0 -60 -55 -115l-90 -96q-31 -34 -31 -72q0 -61 64 -61q18 0 63 10l25 8q18 6 24 -12z" />
<glyph unicode="&#x12f;" horiz-adv-x="514" d="M266 1278q-42 0 -66 24t-24 66t24 66t66 24q41 0 64.5 -23.5t23.5 -66.5t-23.5 -66.5t-64.5 -23.5zM352 -338l21 -63q6 -19 -13 -25l-30 -10q-52 -19 -92 -19q-80 0 -127.5 42.5t-47.5 115.5q0 76 60 139l78 84q43 49 24 74q-4 0 -4 18v842h-94q-18 0 -18 19v84 q0 18 18 18h209q18 0 18 -18v-951q0 -12 -12 -12q10 0 10 -18q-6 -48 -55 -97l-90 -96q-31 -34 -31 -72q0 -61 64 -61q18 0 63 10l25 8q18 6 24 -12z" />
<glyph unicode="&#x130;" horiz-adv-x="495" d="M250 1767q41 0 65.5 -23t24.5 -63q0 -39 -24 -61.5t-66 -22.5q-44 0 -68 22t-24 62t24 63t68 23zM297 0h-98q-19 0 -19 18v1373q0 18 19 18h98q18 0 18 -18v-1373q0 -18 -18 -18z" />
<glyph unicode="&#x131;" horiz-adv-x="514" d="M354 963v-945q0 -18 -18 -18h-96q-19 0 -19 18v842h-94q-18 0 -18 19v84q0 18 18 18h209q18 0 18 -18z" />
<glyph unicode="&#x132;" horiz-adv-x="1288" d="M297 0h-98q-19 0 -19 18v1373q0 18 19 18h98q18 0 18 -18v-1373q0 -18 -18 -18zM1104 1391v-1047q0 -171 -88 -267.5t-244 -96.5q-64 0 -123 20l-28 10q-17 7 -11 23l29 84q6 15 23 12l26 -8q37 -12 84 -12q92 0 143.5 60.5t51.5 170.5v1051q0 18 18 18h100q19 0 19 -18z " />
<glyph unicode="&#x133;" horiz-adv-x="1028" d="M266 1458q41 0 64.5 -23.5t23.5 -66.5t-23.5 -66.5t-64.5 -23.5q-42 0 -66 24t-24 66t24 66t66 24zM780 1458q43 0 65.5 -23.5t22.5 -66.5t-22.5 -66.5t-65.5 -23.5q-41 0 -64.5 23.5t-23.5 66.5t23.5 66.5t64.5 23.5zM336 0h-96q-19 0 -19 18v842h-94q-18 0 -18 19v84 q0 18 18 18h209q18 0 18 -18v-945q0 -18 -18 -18zM868 963v-1082q0 -93 -36.5 -161.5t-114.5 -122.5l-62 -46q-16 -12 -26 5l-47 75q-7 17 6 25l59 45q88 62 88 180v979h-94q-18 0 -18 19v84q0 18 18 18h209q18 0 18 -18z" />
<glyph unicode="&#x134;" horiz-adv-x="870" d="M698 1782l183 -187q9 -9 6 -15.5t-17 -6.5h-88q-11 0 -22 8l-144 119l-143 -119q-11 -8 -22 -8h-89q-12 0 -14.5 6.5t6.5 15.5l178 187q10 10 25 10h117q14 0 24 -10zM549 377v1014q0 18 18 18h101q18 0 18 -18v-1014q0 -184 -95 -290.5t-259 -106.5q-93 0 -166 24 l-55 19q-19 6 -13 24l29 84q7 17 23 10l53 -16q58 -19 129 -19q102 0 159.5 70t57.5 201z" />
<glyph unicode="&#x135;" horiz-adv-x="514" d="M334 1436l141 -232q6 -9 3 -15.5t-15 -6.5h-74q-13 0 -22 12l-103 143l-102 -143q-9 -12 -23 -12h-71q-12 0 -15.5 6.5t2.5 15.5l140 232q9 12 22 12h94q14 0 23 -12zM104 879v84q0 18 19 18h209q18 0 18 -18v-1082q0 -182 -149 -284l-62 -46q-16 -12 -26 5l-47 75 q-12 16 4 25l59 45q90 63 90 180v979h-96q-19 0 -19 19z" />
<glyph unicode="&#x136;" horiz-adv-x="1296" d="M1176 1386l-263 -370q-67 -95 -155.5 -171t-161.5 -106q-27 -12 0 -24q169 -67 334 -297l274 -395q7 -9 4 -16t-14 -7h-117q-13 0 -22 12l-238 338q-91 134 -207 223t-243 89h-52v-644q0 -18 -18 -18h-98q-19 0 -19 18v1373q0 18 19 18h98q18 0 18 -18v-607h47 q85 0 171 46.5t148.5 109t117.5 141.5l231 316q9 12 23 12h112q11 0 14.5 -7t-3.5 -16zM590 -436l41 76q16 31 -13 41q-24 6 -38.5 27t-14.5 50q0 38 23.5 59t62.5 21q40 0 63 -24t23 -66q0 -52 -41 -127l-37 -67q-7 -13 -20 -13h-37q-11 0 -14.5 6.5t2.5 16.5z" />
<glyph unicode="&#x137;" horiz-adv-x="1028" d="M924 0h-113q-13 0 -23 10l-178 236q-31 40 -45.5 58t-44.5 48.5t-53.5 44.5t-58 25.5t-72.5 11.5h-43v-416q0 -18 -19 -18h-96q-18 0 -18 18v1412q0 18 18 18h96q19 0 19 -18v-873h39q39 0 75 15t69.5 45t57 56t56.5 66l12 15l170 217q10 10 23 10h112q12 0 15.5 -7 t-2.5 -16l-201 -262q-118 -154 -203 -186q-19 -10 0 -18q94 -37 215 -193l205 -276q6 -9 3 -16t-15 -7zM463 -436l41 76q16 32 -12 41q-24 6 -39 27t-15 50q0 38 23.5 59t62.5 21q40 0 63 -24t23 -66q0 -52 -41 -127l-37 -67q-6 -13 -20 -13h-37q-11 0 -14.5 6.5t2.5 16.5z " />
<glyph unicode="&#x138;" horiz-adv-x="1028" d="M293 557h39q39 0 75 15t69.5 45t57 56t56.5 66l12 15l170 217q10 10 23 10h112q12 0 15.5 -7t-2.5 -16l-201 -262q-118 -154 -203 -186q-19 -10 0 -18q94 -37 215 -193l205 -276q6 -9 3 -16t-15 -7h-113q-13 0 -23 10l-178 236q-31 40 -45.5 58t-44.5 48.5t-53.5 44.5 t-58 25.5t-72.5 11.5h-43v-416q0 -18 -19 -18h-96q-18 0 -18 18v945q0 18 18 18h96q19 0 19 -18v-406z" />
<glyph unicode="&#x139;" horiz-adv-x="1150" d="M365 1792h139q12 0 14.5 -7t-6.5 -16l-199 -188q-11 -8 -22 -8h-98q-11 0 -14.5 6.5t3.5 15.5l160 187q8 10 23 10zM315 123h701q18 0 18 -19v-86q0 -18 -18 -18h-817q-19 0 -19 18v1373q0 18 19 18h98q18 0 18 -18v-1268z" />
<glyph unicode="&#x13a;" horiz-adv-x="520" d="M328 1829h139q12 0 14.5 -7t-6.5 -16l-199 -188q-11 -8 -22 -8h-98q-11 0 -14.5 6.5t3.5 15.5l160 187q7 10 23 10zM293 1430v-1254q0 -74 53 -74q13 0 19 2q16 6 22 -10l35 -80q7 -17 -10 -24q-33 -10 -66 -10q-88 0 -137 51.5t-49 144.5v1254q0 18 18 18h96 q19 0 19 -18z" />
<glyph unicode="&#x13b;" horiz-adv-x="1150" d="M315 123h701q18 0 18 -19v-86q0 -18 -18 -18h-817q-19 0 -19 18v1373q0 18 19 18h98q18 0 18 -18v-1268zM553 -436l41 76q16 32 -12 41q-24 6 -39 27t-15 50q0 38 23.5 59t62.5 21q40 0 63 -24t23 -66q0 -52 -41 -127l-36 -67q-7 -13 -21 -13h-37q-11 0 -14.5 6.5 t2.5 16.5z" />
<glyph unicode="&#x13c;" horiz-adv-x="520" d="M293 1430v-1254q0 -74 53 -74q13 0 19 2q16 6 22 -10l35 -80q7 -17 -10 -24q-33 -10 -66 -10q-88 0 -137 51.5t-49 144.5v1254q0 18 18 18h96q19 0 19 -18zM213 -436l41 76q16 32 -12 41q-24 6 -39 27t-15 50q0 38 23.5 59t62.5 21q40 0 63 -24t23 -66q0 -52 -41 -127 l-36 -67q-7 -13 -21 -13h-37q-11 0 -14.5 6.5t2.5 16.5z" />
<glyph unicode="&#x13d;" horiz-adv-x="1150" d="M557 1411h78q18 0 18 -18v-62q0 -63 -39 -151l-10 -21q-6 -14 -20 -14h-58q-23 0 -16 20l10 35q19 71 19 133v60q0 18 18 18zM315 123h701q18 0 18 -19v-86q0 -18 -18 -18h-817q-19 0 -19 18v1373q0 18 19 18h98q18 0 18 -18v-1268z" />
<glyph unicode="&#x13e;" horiz-adv-x="538" d="M293 1430v-1254q0 -74 53 -74q13 0 19 2q16 6 22 -10l35 -80q7 -17 -10 -24q-33 -10 -66 -10q-88 0 -137 51.5t-49 144.5v1254q0 18 18 18h96q19 0 19 -18zM465 1448h78q18 0 18 -18v-62q0 -63 -39 -151l-10 -21q-6 -14 -20 -14h-58q-23 0 -16 20l10 35q18 67 18 133v60 q0 18 19 18z" />
<glyph unicode="&#x13f;" horiz-adv-x="1150" d="M315 123h701q18 0 18 -19v-86q0 -18 -18 -18h-817q-19 0 -19 18v1373q0 18 19 18h98q18 0 18 -18v-1268zM854 866q47 0 73.5 -27.5t26.5 -74.5t-26.5 -74.5t-73.5 -27.5t-72.5 27t-25.5 75t25.5 75t72.5 27z" />
<glyph unicode="&#x140;" horiz-adv-x="579" d="M293 1430v-1254q0 -74 53 -74q13 0 19 2q16 6 22 -10l35 -80q7 -17 -10 -24q-33 -10 -66 -10q-88 0 -137 51.5t-49 144.5v1254q0 18 18 18h96q19 0 19 -18zM526 866q47 0 74 -27.5t27 -74.5t-27 -74.5t-74 -27.5t-72.5 27t-25.5 75t25.5 75t72.5 27z" />
<glyph unicode="&#x141;" horiz-adv-x="1236" d="M403 123h701q18 0 18 -19v-86q0 -18 -18 -18h-817q-19 0 -19 18v504l-151 -80q-10 -4 -16.5 0t-6.5 15v94q0 14 12 20l162 84v736q0 18 19 18h98q18 0 18 -18v-666l424 219q11 4 17 0.5t6 -14.5v-96q0 -15 -12 -21l-435 -223v-467z" />
<glyph unicode="&#x142;" horiz-adv-x="634" d="M365 682v-506q0 -74 53 -74q12 0 18 2q16 7 23 -10l35 -80q7 -17 -11 -24q-33 -10 -65 -10q-88 0 -137.5 51.5t-49.5 144.5v449l-125 -54q-22 -9 -22 13v102q0 15 14 21l133 57v666q0 18 19 18h96q19 0 19 -18v-609l141 62q22 9 22 -13v-102q0 -14 -14 -20z" />
<glyph unicode="&#x143;" horiz-adv-x="1439" d="M823 1792h140q12 0 14.5 -7t-6.5 -16l-199 -188q-11 -8 -22 -8h-99q-11 0 -14 6.5t4 15.5l160 187q7 10 22 10zM1241 0h-127q-14 0 -20 14q-39 82 -115 201l-584 856q-44 70 -67 121q-6 14 -17 10.5t-8 -18.5q14 -89 14 -195v-971q0 -18 -18 -18h-100q-19 0 -19 18v1373 q0 18 19 18h129q14 0 20 -14q64 -122 115 -199l584 -856q40 -59 67 -123q6 -13 17 -9.5t8 17.5q-15 76 -15 195v971q0 18 19 18h98q19 0 19 -18v-1373q0 -18 -19 -18z" />
<glyph unicode="&#x144;" d="M670 1448h112q12 0 15.5 -7t-4.5 -16l-183 -233q-10 -10 -22 -10h-84q-11 0 -14.5 6.5t2.5 15.5l155 232q9 12 23 12zM260 963l8 -125q3 -9 8 -12t11 -0.5t12 10.5q116 165 328 165q169 0 265.5 -106t96.5 -291v-586q0 -18 -18 -18h-97q-18 0 -18 18v576q0 134 -64 209.5 t-178 75.5q-152 0 -236.5 -108.5t-84.5 -303.5v-449q0 -18 -19 -18h-96q-18 0 -18 18v945q0 18 18 18h64q18 0 18 -18z" />
<glyph unicode="&#x145;" horiz-adv-x="1439" d="M1241 0h-127q-14 0 -20 14q-39 82 -115 201l-584 856q-44 70 -67 121q-6 14 -17 10.5t-8 -18.5q14 -89 14 -195v-971q0 -18 -18 -18h-100q-19 0 -19 18v1373q0 18 19 18h129q14 0 20 -14q64 -122 115 -199l584 -856q40 -59 67 -123q6 -13 17 -9.5t8 17.5q-15 76 -15 195 v971q0 18 19 18h98q19 0 19 -18v-1373q0 -18 -19 -18zM659 -436l41 76q16 32 -12 41q-24 6 -38.5 27t-14.5 50q0 38 23.5 59t62.5 21q40 0 63 -24t23 -66q0 -52 -41 -127l-37 -67q-7 -13 -20 -13h-37q-11 0 -15 6.5t2 16.5z" />
<glyph unicode="&#x146;" d="M260 963l8 -125q3 -9 8 -12t11 -0.5t12 10.5q116 165 328 165q169 0 265.5 -106t96.5 -291v-586q0 -18 -18 -18h-97q-18 0 -18 18v576q0 134 -64 209.5t-178 75.5q-152 0 -236.5 -108.5t-84.5 -303.5v-449q0 -18 -19 -18h-96q-18 0 -18 18v945q0 18 18 18h64q18 0 18 -18 zM510 -436l41 76q16 32 -12 41q-24 6 -39 27t-15 50q0 38 23.5 59t62.5 21q40 0 63 -24t23 -66q0 -52 -41 -127l-36 -67q-6 -13 -21 -13h-37q-11 0 -14.5 6.5t2.5 16.5z" />
<glyph unicode="&#x147;" horiz-adv-x="1439" d="M778 1571h-116q-15 0 -25 10l-178 186q-9 9 -6.5 16t14.5 7h88q12 0 23 -8l143 -119l143 119q11 8 23 8h88q13 0 16 -7t-6 -16l-182 -186q-10 -10 -25 -10zM1143 1409h98q19 0 19 -18v-1373q0 -18 -19 -18h-127q-14 0 -20 14q-39 82 -115 201l-584 856q-44 70 -67 121 q-6 14 -17 10.5t-8 -18.5q14 -89 14 -195v-971q0 -18 -18 -18h-100q-19 0 -19 18v1373q0 18 19 18h129q14 0 20 -14q64 -122 115 -199l584 -856q40 -59 67 -123q6 -13 17 -9.5t8 17.5q-15 76 -15 195v971q0 18 19 18z" />
<glyph unicode="&#x148;" d="M616 1180h-88q-12 0 -22 10l-184 233q-8 9 -5 16t15 7h76q14 0 22 -10l141 -152l142 152q7 10 22 10h78q12 0 15 -7t-5 -16l-184 -233q-10 -10 -23 -10zM260 963l8 -125q3 -9 8 -12t11 -0.5t12 10.5q116 165 328 165q169 0 265.5 -106t96.5 -291v-586q0 -18 -18 -18h-97 q-18 0 -18 18v576q0 134 -64 209.5t-178 75.5q-152 0 -236.5 -108.5t-84.5 -303.5v-449q0 -18 -19 -18h-96q-18 0 -18 18v945q0 18 18 18h64q18 0 18 -18z" />
<glyph unicode="&#x14a;" horiz-adv-x="1425" d="M283 1391l12 -205q4 -18 16 -20t21 12q147 264 446 264q227 0 352 -153.5t125 -428.5v-862q0 -181 -96 -285t-262 -104q-89 0 -168 26l-53 17q-18 6 -12 24l28 84q7 17 23 11l51 -15q58 -18 131 -18q105 0 164 68.5t59 191.5v854q0 218 -93.5 339.5t-260.5 121.5 q-218 0 -334.5 -170.5t-116.5 -483.5v-641q0 -18 -18 -18h-98q-19 0 -19 18v1373q0 18 19 18h65q19 0 19 -18z" />
<glyph unicode="&#x14b;" d="M856 -145v739q0 134 -64 209.5t-178 75.5q-152 0 -236.5 -108.5t-84.5 -303.5v-449q0 -18 -19 -18h-96q-18 0 -18 18v945q0 18 18 18h60q18 0 18 -18l8 -129q9 -29 35 0q113 167 328 167q169 0 265.5 -106t96.5 -291v-749q0 -145 -79.5 -227.5t-219.5 -82.5 q-62 0 -129 21l-47 14q-18 6 -12 25l26 80q6 15 23 12l41 -12q52 -15 98 -15q78 0 122 49.5t44 135.5z" />
<glyph unicode="&#x14c;" horiz-adv-x="1415" d="M434 1726h547q18 0 18 -18v-70q0 -18 -18 -18h-547q-18 0 -18 18v70q0 18 18 18zM709 1432q274 0 432.5 -196t158.5 -531t-158 -530t-433 -195q-276 0 -435 195t-159 530q0 336 159 531.5t435 195.5zM709 1303q-215 0 -335 -158t-120 -440t120 -440.5t335 -158.5 t333.5 158.5t118.5 440.5t-118.5 440t-333.5 158z" />
<glyph unicode="&#x14d;" horiz-adv-x="1099" d="M315 1364h467q19 0 19 -18v-66q0 -18 -19 -18h-467q-18 0 -18 18v66q0 18 18 18zM549 1001q207 0 326.5 -137t119.5 -372q0 -237 -119.5 -374.5t-326.5 -137.5t-327 138t-120 374q0 235 120 372t327 137zM549 879q-148 0 -230.5 -102.5t-82.5 -284.5q0 -183 82.5 -286.5 t230.5 -103.5t231.5 103.5t83.5 286.5q0 182 -83.5 284.5t-231.5 102.5z" />
<glyph unicode="&#x14e;" horiz-adv-x="1415" d="M954 1774v-25q0 -199 -245 -199q-246 0 -246 199v25q0 18 18 18h76q18 0 18 -18v-23q0 -98 134 -98q64 0 98.5 25.5t34.5 72.5v23q0 18 18 18h76q18 0 18 -18zM709 1432q274 0 432.5 -196t158.5 -531t-158 -530t-433 -195q-276 0 -435 195t-159 530q0 336 159 531.5 t435 195.5zM709 1303q-215 0 -335 -158t-120 -440t120 -440.5t335 -158.5t333.5 158.5t118.5 440.5t-118.5 440t-333.5 158z" />
<glyph unicode="&#x14f;" horiz-adv-x="1099" d="M793 1430v-52q0 -101 -64 -158t-178 -57t-178 57t-64 158v52q0 18 19 18h71q19 0 19 -18v-52q0 -56 34.5 -86t98.5 -30t98.5 30t34.5 86v52q0 18 18 18h72q19 0 19 -18zM549 1001q207 0 326.5 -137t119.5 -372q0 -237 -119.5 -374.5t-326.5 -137.5t-327 138t-120 374 q0 235 120 372t327 137zM549 879q-148 0 -230.5 -102.5t-82.5 -284.5q0 -183 82.5 -286.5t230.5 -103.5t231.5 103.5t83.5 286.5q0 182 -83.5 284.5t-231.5 102.5z" />
<glyph unicode="&#x150;" horiz-adv-x="1415" d="M733 1769l-117 -184q-9 -12 -22 -12h-84q-23 0 -14 22l96 185q6 12 20 12h109q11 0 14.5 -7t-2.5 -16zM1032 1769l-125 -184q-9 -12 -22 -12h-88q-10 0 -14 6.5t1 15.5l103 185q9 12 22 12h111q11 0 14.5 -7t-2.5 -16zM709 1432q274 0 432.5 -196t158.5 -531t-158 -530 t-433 -195q-276 0 -435 195t-159 530q0 336 159 531.5t435 195.5zM709 1303q-215 0 -335 -158t-120 -440t120 -440.5t335 -158.5t333.5 158.5t118.5 440.5t-118.5 440t-333.5 158z" />
<glyph unicode="&#x151;" horiz-adv-x="1099" d="M578 1425l-115 -229q-6 -14 -21 -14h-75q-9 0 -13.5 5.5t-1.5 14.5l94 232q6 14 23 14h94q11 0 15 -6.5t0 -16.5zM850 1425l-119 -231q-6 -12 -20 -12h-76q-21 0 -12 22l100 230q6 14 20 14h95q11 0 14.5 -6t-2.5 -17zM549 1001q207 0 326.5 -137t119.5 -372 q0 -237 -119.5 -374.5t-326.5 -137.5t-327 138t-120 374q0 235 120 372t327 137zM549 879q-148 0 -230.5 -102.5t-82.5 -284.5q0 -183 82.5 -286.5t230.5 -103.5t231.5 103.5t83.5 286.5q0 182 -83.5 284.5t-231.5 102.5z" />
<glyph unicode="&#x152;" horiz-adv-x="2179" d="M1147 18v162q0 52 -35 8q-61 -92 -163.5 -150t-252.5 -58q-269 0 -425 193t-156 532t155.5 533t425.5 194q271 0 416 -207q15 -20 25 -17t10 29v154q0 18 18 18h881q23 0 16 -20l-24 -86q-3 -17 -21 -17h-749v-502h637q18 0 18 -18v-86q0 -18 -18 -18h-637v-539h788 q19 0 19 -19v-86q0 -18 -19 -18h-891q-18 0 -18 18zM696 1303q-207 0 -324.5 -158t-117.5 -440t117.5 -440.5t324.5 -158.5q212 0 324.5 151t112.5 448q0 298 -112.5 448t-324.5 150z" />
<glyph unicode="&#x153;" horiz-adv-x="1783" d="M1599 27l-63 -17q-102 -30 -225 -30q-258 0 -365 225q-8 13 -17 13t-16 -13q-107 -225 -364 -225q-207 0 -327 138t-120 374q0 235 120 372t327 137q257 0 364 -225q7 -14 16 -14t17 14q107 225 365 225q173 0 271.5 -81t98.5 -224q0 -210 -295 -260l-374 -63 q19 -127 98 -199t201 -72q89 0 192 27l64 18q19 3 22 -14l25 -84q3 -19 -15 -22zM549 879q-147 0 -230 -103t-83 -284q0 -182 83 -286t230 -104t231 104t84 286q0 180 -84 283.5t-231 103.5zM997 487l371 62q88 15 135 53t47 94q0 84 -63 133.5t-174 49.5 q-149 0 -230.5 -100t-85.5 -292z" />
<glyph unicode="&#x154;" horiz-adv-x="1345" d="M745 1792h140q12 0 14.5 -7t-6.5 -16l-199 -188q-11 -8 -22 -8h-99q-11 0 -14 6.5t4 15.5l160 187q7 10 22 10zM199 1409h536q204 0 319 -100.5t115 -280.5q0 -137 -78.5 -230.5t-222.5 -140.5q-41 -13 -2 -32q131 -64 211 -252l150 -350q4 -11 0 -17t-13 -6h-106 q-15 0 -21 14l-133 308q-60 146 -156 213t-247 67h-236v-584q0 -18 -18 -18h-98q-19 0 -19 18v1373q0 18 19 18zM315 725h295q201 0 311.5 78t110.5 219q0 124 -79 194t-218 70h-420v-561z" />
<glyph unicode="&#x155;" horiz-adv-x="763" d="M502 1448h112q12 0 15.5 -7t-4.5 -16l-183 -233q-10 -10 -22 -10h-84q-11 0 -14.5 6.5t2.5 15.5l155 232q9 12 23 12zM655 983v-86q0 -18 -18 -18q-166 -8 -255 -146t-89 -395v-320q0 -18 -19 -18h-96q-18 0 -18 18v945q0 18 18 18h64q17 0 20 -18l14 -154q3 -12 11 -14 t16 10q60 95 140 143.5t194 52.5q18 0 18 -18z" />
<glyph unicode="&#x156;" horiz-adv-x="1345" d="M199 1409h536q204 0 319 -100.5t115 -280.5q0 -137 -78.5 -230.5t-222.5 -140.5q-41 -13 -2 -32q131 -64 211 -252l150 -350q4 -11 0 -17t-13 -6h-106q-15 0 -21 14l-133 308q-60 146 -156 213t-247 67h-236v-584q0 -18 -18 -18h-98q-19 0 -19 18v1373q0 18 19 18z M315 725h295q201 0 311.5 78t110.5 219q0 124 -79 194t-218 70h-420v-561zM621 -436l41 76q16 31 -13 41q-24 6 -38.5 27t-14.5 50q0 38 23.5 59t62.5 21q40 0 63 -24t23 -66q0 -52 -41 -127l-37 -67q-6 -13 -20 -13h-37q-11 0 -14.5 6.5t2.5 16.5z" />
<glyph unicode="&#x157;" horiz-adv-x="763" d="M655 983v-86q0 -18 -18 -18q-166 -8 -255 -146t-89 -395v-320q0 -18 -19 -18h-96q-18 0 -18 18v945q0 18 18 18h64q17 0 20 -18l14 -154q3 -12 11 -14t16 10q60 95 140 143.5t194 52.5q18 0 18 -18zM162 -436l41 76q16 31 -13 41q-24 6 -38.5 27t-14.5 50q0 38 23.5 59 t62.5 21q40 0 63 -24t23 -66q0 -52 -41 -127l-37 -67q-7 -13 -20 -13h-37q-11 0 -14.5 6.5t2.5 16.5z" />
<glyph unicode="&#x158;" horiz-adv-x="1345" d="M700 1571h-116q-15 0 -25 10l-178 186q-9 9 -6.5 16t14.5 7h88q12 0 23 -8l143 -119l143 119q11 8 23 8h88q13 0 16 -7t-6 -16l-182 -186q-10 -10 -25 -10zM1077 373l150 -350q4 -11 0 -17t-13 -6h-106q-15 0 -21 14l-133 308q-60 146 -156 213t-247 67h-236v-584 q0 -18 -18 -18h-98q-19 0 -19 18v1373q0 18 19 18h536q204 0 319 -100.5t115 -280.5q0 -137 -78.5 -230.5t-222.5 -140.5q-41 -13 -2 -32q131 -64 211 -252zM315 725h295q201 0 311.5 78t110.5 219q0 124 -79 194t-218 70h-420v-561z" />
<glyph unicode="&#x159;" horiz-adv-x="763" d="M449 1180h-89q-12 0 -22 10l-184 233q-8 9 -5 16t15 7h76q14 0 22 -10l141 -152l142 152q7 10 22 10h78q12 0 15 -7t-5 -16l-184 -233q-10 -10 -22 -10zM262 963l14 -154q3 -12 11 -14t16 10q60 95 140 143.5t194 52.5q18 0 18 -18v-86q0 -18 -18 -18q-166 -8 -255 -146 t-89 -395v-320q0 -18 -19 -18h-96q-18 0 -18 18v945q0 18 18 18h64q17 0 20 -18z" />
<glyph unicode="&#x15a;" horiz-adv-x="1218" d="M692 1792h139q12 0 15 -7t-6 -16l-199 -188q-11 -8 -23 -8h-98q-11 0 -14 6.5t4 15.5l160 187q8 10 22 10zM737 600l-284 107q-166 62 -236 148t-70 218q0 167 120.5 263t324.5 96q145 0 309 -52l103 -32q18 -6 12 -25l-29 -84q-6 -16 -22 -10l-99 31q-133 43 -274 43 q-139 0 -223 -62.5t-84 -167.5q0 -79 48.5 -140.5t172.5 -107.5l282 -106q155 -58 232.5 -139.5t77.5 -214.5q0 -179 -137 -282t-357 -103q-197 0 -385 69l-82 31q-16 6 -10 22l31 84q6 19 22 13l82 -31q174 -62 342 -62q151 0 252.5 69.5t101.5 189.5q0 150 -221 235z" />
<glyph unicode="&#x15b;" horiz-adv-x="960" d="M580 1448h112q12 0 15 -7t-5 -16l-182 -233q-10 -10 -22 -10h-84q-11 0 -15 6.5t2 15.5l156 232q9 12 23 12zM590 414l-240 67q-114 29 -167.5 91t-53.5 163q0 125 92.5 195.5t257.5 70.5q138 0 240 -30l80 -25q18 -6 12 -24l-23 -80q-6 -19 -24 -13l-78 23 q-93 27 -205 27q-103 0 -161 -39.5t-58 -104.5q0 -54 31 -88.5t100 -54.5l238 -68q118 -30 173.5 -94.5t55.5 -165.5q0 -134 -98 -209t-275 -75q-182 0 -309 47l-55 18q-18 6 -12 25l28 82q7 17 23 10l53 -19q115 -41 272 -41q113 0 176.5 43.5t63.5 118.5q0 57 -33 92.5 t-104 57.5z" />
<glyph unicode="&#x15c;" horiz-adv-x="1218" d="M590 1700l-144 -119q-11 -8 -22 -8h-88q-12 0 -14.5 6.5t6.5 15.5l178 187q10 10 24 10h117q15 0 25 -10l182 -187q9 -9 6 -15.5t-16 -6.5h-88q-12 0 -23 8zM506 825l282 -106q155 -58 232.5 -139.5t77.5 -214.5q0 -179 -137 -282t-357 -103q-197 0 -385 69l-82 31 q-16 6 -10 22l31 84q6 19 22 13l82 -31q174 -62 342 -62q151 0 252.5 69.5t101.5 189.5q0 150 -221 235l-284 107q-166 62 -236 148t-70 218q0 167 120.5 263t324.5 96q145 0 309 -52l103 -32q18 -6 12 -25l-29 -84q-6 -16 -22 -10l-99 31q-133 43 -274 43 q-139 0 -223 -62.5t-84 -167.5q0 -79 48.5 -140.5t172.5 -107.5z" />
<glyph unicode="&#x15d;" horiz-adv-x="960" d="M481 1343l-141 -151q-8 -10 -23 -10h-77q-12 0 -15 6.5t4 15.5l185 234q10 10 22 10h88q13 0 23 -10l184 -234q8 -9 5 -15.5t-15 -6.5h-76q-15 0 -22 10zM393 592l238 -68q118 -30 173.5 -94.5t55.5 -165.5q0 -134 -98 -209t-275 -75q-182 0 -309 47l-55 18q-18 6 -12 25 l28 82q7 17 23 10l53 -19q115 -41 272 -41q113 0 176.5 43.5t63.5 118.5q0 57 -33 92.5t-104 57.5l-240 67q-114 29 -167.5 91t-53.5 163q0 125 92.5 195.5t257.5 70.5q138 0 240 -30l80 -25q18 -6 12 -24l-23 -80q-6 -19 -24 -13l-78 23q-93 27 -205 27q-103 0 -161 -39.5 t-58 -104.5q0 -54 31 -88.5t100 -54.5z" />
<glyph unicode="&#x15e;" horiz-adv-x="1218" d="M506 825l282 -106q155 -58 232.5 -139.5t77.5 -214.5q0 -168 -123 -270t-322 -113l-35 -88h15q82 0 130 -44.5t48 -123.5q0 -84 -53 -132.5t-148 -48.5q-42 0 -92 17l-31 10q-18 6 -12 25l21 63q6 16 22 10l31 -8q31 -10 61 -10q47 0 74 21.5t27 60.5t-27.5 59.5 t-75.5 20.5h-65q-13 0 -23 10l-4 4q-7 10 -4 27l45 125q-175 8 -338 69l-82 31q-16 6 -10 22l31 84q6 19 22 13l82 -31q174 -62 342 -62q151 0 252.5 69.5t101.5 189.5q0 150 -221 235l-284 107q-166 62 -236 148t-70 218q0 167 120.5 263t324.5 96q145 0 309 -52l103 -32 q18 -6 12 -25l-29 -84q-6 -16 -22 -10l-99 31q-133 43 -274 43q-139 0 -223 -62.5t-84 -167.5q0 -79 48.5 -140.5t172.5 -107.5z" />
<glyph unicode="&#x15f;" horiz-adv-x="960" d="M393 592l238 -68q118 -30 173.5 -94.5t55.5 -165.5q0 -128 -91 -203t-253 -81l-35 -86h15q82 0 130 -44.5t48 -123.5q0 -84 -53 -132.5t-148 -48.5q-42 0 -92 17l-31 10q-18 6 -12 25l20 63q7 17 23 10l31 -8q31 -10 61 -10q46 0 73 21.5t27 60.5t-27 59.5t-75 20.5h-65 q-13 0 -23 10l-4 4q-7 10 -4 27l45 127q-136 6 -242 45l-55 18q-18 6 -12 25l28 82q7 17 23 10l53 -19q115 -41 272 -41q113 0 176.5 43.5t63.5 118.5q0 57 -33 92.5t-104 57.5l-240 67q-114 29 -167.5 91t-53.5 163q0 125 92.5 195.5t257.5 70.5q138 0 240 -30l80 -25 q18 -6 12 -24l-23 -80q-6 -19 -24 -13l-78 23q-93 27 -205 27q-103 0 -161 -39.5t-58 -104.5q0 -54 31 -88.5t100 -54.5z" />
<glyph unicode="&#x160;" horiz-adv-x="1218" d="M647 1571h-117q-14 0 -24 10l-178 186q-9 9 -6.5 16t14.5 7h88q11 0 22 -8l144 -119l143 119q11 8 23 8h88q13 0 16 -7t-6 -16l-182 -186q-10 -10 -25 -10zM506 825l282 -106q155 -58 232.5 -139.5t77.5 -214.5q0 -179 -137 -282t-357 -103q-197 0 -385 69l-82 31 q-16 6 -10 22l31 84q6 19 22 13l82 -31q174 -62 342 -62q151 0 252.5 69.5t101.5 189.5q0 150 -221 235l-284 107q-166 62 -236 148t-70 218q0 167 120.5 263t324.5 96q145 0 309 -52l103 -32q18 -6 12 -25l-29 -84q-6 -16 -22 -10l-99 31q-133 43 -274 43 q-139 0 -223 -62.5t-84 -167.5q0 -79 48.5 -140.5t172.5 -107.5z" />
<glyph unicode="&#x161;" horiz-adv-x="960" d="M526 1180h-88q-12 0 -22 10l-185 233q-8 9 -4.5 16t15.5 7h75q15 0 23 -10l141 -152l142 152q7 10 22 10h78q12 0 15 -7t-5 -16l-184 -233q-10 -10 -23 -10zM393 592l238 -68q118 -30 173.5 -94.5t55.5 -165.5q0 -134 -98 -209t-275 -75q-182 0 -309 47l-55 18 q-18 6 -12 25l28 82q7 17 23 10l53 -19q115 -41 272 -41q113 0 176.5 43.5t63.5 118.5q0 57 -33 92.5t-104 57.5l-240 67q-114 29 -167.5 91t-53.5 163q0 125 92.5 195.5t257.5 70.5q138 0 240 -30l80 -25q18 -6 12 -24l-23 -80q-6 -19 -24 -13l-78 23q-93 27 -205 27 q-103 0 -161 -39.5t-58 -104.5q0 -54 31 -88.5t100 -54.5z" />
<glyph unicode="&#x162;" horiz-adv-x="1280" d="M690 0l-43 -106h15q82 0 130 -44.5t48 -123.5q0 -84 -53 -132.5t-148 -48.5q-42 0 -92 17l-31 10q-18 6 -12 25l20 63q7 17 23 10l31 -8q31 -10 61 -10q46 0 73 21.5t27 60.5t-27 59.5t-75 20.5h-66q-12 0 -22 10l-4 4q-7 10 -4 27l51 145h-2q-19 0 -19 18v1268h-465 q-18 0 -18 19v86q0 18 18 18h1068q18 0 18 -18v-86q0 -19 -18 -19h-465v-1268q0 -18 -19 -18z" />
<glyph unicode="&#x163;" horiz-adv-x="698" d="M354 860v-620q0 -66 28.5 -102t80.5 -36q20 0 53 11q15 6 25 -11l34 -75q8 -19 -8 -25q-46 -22 -104 -22q-31 0 -45 2l-35 -88h14q82 0 130 -44.5t48 -123.5q0 -84 -53 -132.5t-147 -48.5q-42 0 -92 17l-31 10q-18 6 -12 25l20 63q7 17 23 10l30 -8q31 -10 62 -10 q46 0 73 21.5t27 60.5t-27 59.5t-75 20.5h-66q-12 0 -22 10l-4 4q-8 11 -5 27l56 155q-111 63 -111 228v622h-94q-18 0 -18 19v84q0 18 18 18h94v246q0 17 15 20l98 33q20 7 20 -16v-283h228q18 0 18 -18v-84q0 -19 -18 -19h-228z" />
<glyph unicode="&#x164;" horiz-adv-x="1280" d="M698 1571h-116q-15 0 -25 10l-178 186q-9 9 -6.5 16t14.5 7h88q12 0 23 -8l143 -119l143 119q11 8 23 8h88q13 0 16 -7t-6 -16l-182 -186q-10 -10 -25 -10zM106 1409h1068q18 0 18 -18v-86q0 -19 -18 -19h-465v-1268q0 -18 -19 -18h-100q-19 0 -19 18v1268h-465 q-18 0 -18 19v86q0 18 18 18z" />
<glyph unicode="&#x165;" horiz-adv-x="698" d="M520 1448h78q18 0 18 -18v-62q0 -65 -38 -151l-11 -21q-6 -14 -20 -14h-58q-23 0 -16 20l10 35q19 71 19 133v60q0 18 18 18zM354 981h228q18 0 18 -18v-84q0 -19 -18 -19h-228v-620q0 -66 28.5 -102t80.5 -36q20 0 53 11q15 6 25 -11l34 -75q8 -19 -8 -25 q-46 -22 -104 -22q-114 0 -178 67.5t-64 190.5v622h-94q-18 0 -18 19v84q0 18 18 18h94v246q0 17 15 20l98 33q20 7 20 -16v-283z" />
<glyph unicode="&#x166;" horiz-adv-x="1320" d="M729 1286v-530h313q19 0 19 -19v-86q0 -18 -19 -18h-313v-615q0 -18 -18 -18h-101q-18 0 -18 18v615h-313q-19 0 -19 18v86q0 19 19 19h313v530h-465q-18 0 -18 19v86q0 18 18 18h1067q18 0 18 -18v-86q0 -19 -18 -19h-465z" />
<glyph unicode="&#x167;" horiz-adv-x="718" d="M369 530v-290q0 -66 28 -102t80 -36q20 0 53 11q15 6 25 -11l35 -75q8 -19 -8 -25q-46 -22 -105 -22q-114 0 -177.5 67.5t-63.5 190.5v292h-95q-18 0 -18 19v67q0 19 18 19h95v225h-95q-18 0 -18 19v84q0 18 18 18h95v246q0 17 14 20l98 33q9 3 15 -1.5t6 -14.5v-283h227 q18 0 18 -18v-84q0 -19 -18 -19h-227v-225h229q18 0 18 -19v-67q0 -19 -18 -19h-229z" />
<glyph unicode="&#x168;" horiz-adv-x="1363" d="M340 1616l43 74q44 84 152 84q49 0 110 -27l119 -47q40 -14 61 -14q44 0 66 36l20 33q9 12 23 12h76q12 0 15 -6.5t-3 -15.5l-43 -72q-48 -86 -152 -86q-39 0 -110 31l-117 43q-37 16 -63 16q-44 0 -64 -35l-24 -36q-10 -13 -23 -13h-74q-10 0 -13.5 7t1.5 16zM1204 1391 v-838q0 -270 -137.5 -421.5t-384.5 -151.5t-384.5 151.5t-137.5 421.5v838q0 18 18 18h98q19 0 19 -18v-838q0 -212 101.5 -329.5t285.5 -117.5t285.5 117.5t101.5 329.5v838q0 18 18 18h99q18 0 18 -18z" />
<glyph unicode="&#x169;" d="M270 1288l37 78q45 88 135 88q39 0 95 -29l98 -55q32 -16 53 -16q33 0 53 41l23 41q9 12 22 12h62q11 0 14.5 -6t-2.5 -17l-39 -75q-42 -88 -133 -88q-46 0 -98 30l-94 49q-35 21 -54 21q-33 0 -53 -39l-22 -43q-6 -14 -21 -14h-61q-24 0 -15 22zM879 18l-9 125 q-10 29 -30 2q-116 -165 -328 -165q-169 0 -265.5 106t-96.5 291v586q0 18 18 18h96q19 0 19 -18v-576q0 -134 63.5 -209.5t177.5 -75.5q152 0 237 108.5t85 303.5v449q0 18 18 18h97q18 0 18 -18v-945q0 -18 -18 -18h-64q-18 0 -18 18z" />
<glyph unicode="&#x16a;" horiz-adv-x="1363" d="M408 1726h546q19 0 19 -18v-70q0 -18 -19 -18h-546q-19 0 -19 18v70q0 18 19 18zM1204 1391v-838q0 -270 -137.5 -421.5t-384.5 -151.5t-384.5 151.5t-137.5 421.5v838q0 18 18 18h98q19 0 19 -18v-838q0 -212 101.5 -329.5t285.5 -117.5t285.5 117.5t101.5 329.5v838 q0 18 18 18h99q18 0 18 -18z" />
<glyph unicode="&#x16b;" d="M330 1364h467q18 0 18 -18v-66q0 -18 -18 -18h-467q-19 0 -19 18v66q0 18 19 18zM879 18l-9 125q-10 29 -30 2q-116 -165 -328 -165q-169 0 -265.5 106t-96.5 291v586q0 18 18 18h96q19 0 19 -18v-576q0 -134 63.5 -209.5t177.5 -75.5q152 0 237 108.5t85 303.5v449 q0 18 18 18h97q18 0 18 -18v-945q0 -18 -18 -18h-64q-18 0 -18 18z" />
<glyph unicode="&#x16c;" horiz-adv-x="1363" d="M928 1774v-25q0 -199 -246 -199t-246 199v25q0 18 19 18h75q19 0 19 -18v-23q0 -98 133 -98q64 0 98.5 25.5t34.5 72.5v23q0 18 19 18h75q19 0 19 -18zM1204 1391v-838q0 -270 -137.5 -421.5t-384.5 -151.5t-384.5 151.5t-137.5 421.5v838q0 18 18 18h98q19 0 19 -18 v-838q0 -212 101.5 -329.5t285.5 -117.5t285.5 117.5t101.5 329.5v838q0 18 18 18h99q18 0 18 -18z" />
<glyph unicode="&#x16d;" d="M807 1430v-52q0 -101 -64 -158t-178 -57t-177.5 57t-63.5 158v52q0 18 18 18h72q18 0 18 -18v-52q0 -56 34.5 -86t98.5 -30t98.5 30t34.5 86v52q0 18 19 18h71q19 0 19 -18zM879 18l-9 125q-10 29 -30 2q-116 -165 -328 -165q-169 0 -265.5 106t-96.5 291v586q0 18 18 18 h96q19 0 19 -18v-576q0 -134 63.5 -209.5t177.5 -75.5q152 0 237 108.5t85 303.5v449q0 18 18 18h97q18 0 18 -18v-945q0 -18 -18 -18h-64q-18 0 -18 18z" />
<glyph unicode="&#x16e;" horiz-adv-x="1363" d="M682 1819q78 0 121 -37t43 -103q0 -65 -43 -101t-121 -36q-76 0 -119 36t-43 101q0 66 43 103t119 37zM682 1741q-35 0 -54.5 -16.5t-19.5 -45.5q0 -28 19.5 -44.5t54.5 -16.5t54.5 16.5t19.5 44.5q0 29 -19.5 45.5t-54.5 16.5zM1204 1391v-838q0 -270 -137.5 -421.5 t-384.5 -151.5t-384.5 151.5t-137.5 421.5v838q0 18 18 18h98q19 0 19 -18v-838q0 -212 101.5 -329.5t285.5 -117.5t285.5 117.5t101.5 329.5v838q0 18 18 18h99q18 0 18 -18z" />
<glyph unicode="&#x16f;" d="M563 1464q78 0 122 -39.5t44 -109.5t-44 -110t-122 -40q-79 0 -122.5 39.5t-43.5 110.5t43.5 110t122.5 39zM563 1384q-80 0 -80 -69q0 -70 80 -70q38 0 59 18t21 52q0 69 -80 69zM879 18l-9 125q-10 29 -30 2q-116 -165 -328 -165q-169 0 -265.5 106t-96.5 291v586 q0 18 18 18h96q19 0 19 -18v-576q0 -134 63.5 -209.5t177.5 -75.5q152 0 237 108.5t85 303.5v449q0 18 18 18h97q18 0 18 -18v-945q0 -18 -18 -18h-64q-18 0 -18 18z" />
<glyph unicode="&#x170;" horiz-adv-x="1363" d="M707 1769l-117 -184q-9 -12 -23 -12h-84q-23 0 -14 22l96 185q6 12 21 12h108q11 0 15 -7t-2 -16zM1006 1769l-125 -184q-9 -12 -23 -12h-88q-10 0 -13.5 6.5t1.5 15.5l102 185q9 12 23 12h110q11 0 15 -7t-2 -16zM1204 1391v-838q0 -270 -137.5 -421.5t-384.5 -151.5 t-384.5 151.5t-137.5 421.5v838q0 18 18 18h98q19 0 19 -18v-838q0 -212 101.5 -329.5t285.5 -117.5t285.5 117.5t101.5 329.5v838q0 18 18 18h99q18 0 18 -18z" />
<glyph unicode="&#x171;" d="M592 1425l-115 -229q-6 -14 -20 -14h-76q-9 0 -13 5.5t-1 14.5l94 232q6 14 22 14h95q11 0 14.5 -6t-0.5 -17zM864 1425l-119 -231q-6 -12 -20 -12h-76q-21 0 -12 22l100 230q6 14 21 14h94q11 0 14.5 -6t-2.5 -17zM879 18l-9 125q-10 29 -30 2q-116 -165 -328 -165 q-169 0 -265.5 106t-96.5 291v586q0 18 18 18h96q19 0 19 -18v-576q0 -134 63.5 -209.5t177.5 -75.5q152 0 237 108.5t85 303.5v449q0 18 18 18h97q18 0 18 -18v-945q0 -18 -18 -18h-64q-18 0 -18 18z" />
<glyph unicode="&#x172;" horiz-adv-x="1363" d="M1087 1409h99q18 0 18 -18v-838q0 -327 -196 -475l-338 -289q-35 -25 -35 -72q0 -61 63 -61q20 0 68 10l25 10q18 6 24 -12l21 -65q6 -19 -13 -25l-32 -10q-52 -19 -93 -19q-82 0 -129 42.5t-47 115.5q0 84 70 145l88 76q60 48 8 56h-6q-247 0 -384.5 151.5t-137.5 421.5 v838q0 18 18 18h98q19 0 19 -18v-838q0 -212 101.5 -329.5t285.5 -117.5t285.5 117.5t101.5 329.5v838q0 18 18 18z" />
<glyph unicode="&#x173;" d="M977 -338l20 -63q6 -19 -12 -25l-31 -10q-52 -19 -90 -19q-82 0 -129 42.5t-47 115.5q0 76 60 139l86 92q35 35 38 78q0 9 6 13.5t15 1.5h-2q-14 6 -14 20l-7 96q-10 29 -30 2q-116 -165 -328 -165q-169 0 -265.5 106t-96.5 291v586q0 18 18 18h96q19 0 19 -18v-576 q0 -134 63.5 -209.5t177.5 -75.5q152 0 237 108.5t85 303.5v449q0 18 18 18h97q18 0 18 -18v-963q0 -58 -57 -115l-91 -96q-30 -33 -30 -72q0 -61 63 -61q21 0 66 10l22 8q19 6 25 -12z" />
<glyph unicode="&#x174;" horiz-adv-x="1988" d="M995 1700l-143 -119q-11 -8 -23 -8h-88q-12 0 -14.5 6.5t6.5 15.5l178 187q10 10 25 10h117q14 0 24 -10l183 -187q9 -9 5.5 -15.5t-16.5 -6.5h-88q-11 0 -22 8zM1774 1409h100q23 0 16 -20l-313 -1061q-52 -186 -78 -312q-3 -16 -18 -16h-121q-15 0 -21 16 q-32 169 -73 295l-230 707q-23 96 -28 125q-3 15 -12.5 15t-12.5 -15q-3 -16 -29 -125l-229 -707q-43 -134 -74 -295q-6 -16 -20 -16h-121q-18 0 -21 16q-34 165 -75 312l-316 1061q-3 9 1.5 14.5t15.5 5.5h100q18 0 21 -16l276 -920q30 -105 49 -242q1 -9 6 -12t10.5 0 t6.5 12q11 103 53 242l299 922q3 14 20 14h76q18 0 21 -14l299 -922q43 -134 55 -242q0 -9 5.5 -12t11 0t6.5 12q13 125 49 242l274 920q3 16 21 16z" />
<glyph unicode="&#x175;" horiz-adv-x="1564" d="M784 1343l-141 -151q-7 -10 -22 -10h-78q-12 0 -15.5 6.5t4.5 15.5l185 234q10 10 22 10h88q13 0 23 -10l184 -234q8 -9 5 -15.5t-15 -6.5h-76q-15 0 -22 10zM1360 981h96q11 0 15.5 -5.5t1.5 -14.5l-197 -625q-58 -186 -92 -320q-3 -16 -21 -16h-114q-18 0 -21 16 q-18 71 -80 254l-123 346q-22 69 -28 113q-5 18 -14.5 18t-14.5 -18q-11 -60 -29 -113l-123 -346q-50 -143 -79 -254q-3 -16 -21 -16h-115q-17 0 -20 16q-27 106 -90 320l-201 625q-7 20 16 20h99q17 0 20 -14l164 -521q47 -159 62 -241q2 -9 7.5 -12t11 0t7.5 12 q20 83 76 256l178 506q6 14 23 14h57q17 0 23 -14l178 -506q55 -175 75 -256q2 -9 7.5 -12t11.5 0t8 12q14 78 60 241l165 521q3 14 21 14z" />
<glyph unicode="&#x176;" horiz-adv-x="1337" d="M668 1700l-144 -119q-11 -8 -22 -8h-88q-12 0 -14.5 6.5t6.5 15.5l178 187q10 10 24 10h117q15 0 25 -10l182 -187q9 -9 6 -15.5t-16 -6.5h-88q-12 0 -23 8zM1126 1409h113q11 0 14.5 -7t-2.5 -16l-350 -542q-95 -154 -130.5 -244.5t-35.5 -220.5v-361q0 -18 -18 -18h-99 q-18 0 -18 18v361q0 131 -35 222t-129 243l-350 542q-6 9 -2.5 16t14.5 7h113q13 0 22 -12l302 -465q67 -111 116 -223q3 -13 11 -21q4 -4 10.5 -1t9.5 11q47 115 119 234l303 465q9 12 22 12z" />
<glyph unicode="&#x177;" horiz-adv-x="1105" d="M547 1343l-141 -151q-8 -10 -23 -10h-78q-12 0 -15 6.5t5 15.5l184 234q10 10 23 10h88q12 0 22 -10l185 -234q7 -9 4 -15.5t-15 -6.5h-75q-15 0 -23 10zM907 981h105q9 0 12.5 -6.5t-0.5 -16.5l-602 -1376q-6 -14 -21 -14h-100q-23 0 -14 22l141 318q57 135 -29 340 l-317 710q-4 10 -0.5 16.5t14.5 6.5h103q14 0 20 -14l244 -539q55 -129 76 -225q2 -9 7 -12t10.5 0t8.5 12q22 85 82 225l240 539q6 14 20 14z" />
<glyph unicode="&#x178;" horiz-adv-x="1337" d="M518 1765q40 0 64 -23t24 -63q0 -39 -24 -61.5t-64 -22.5q-43 0 -66.5 22t-23.5 62t24 63t66 23zM823 1765q40 0 64 -23t24 -63q0 -39 -24 -61.5t-64 -22.5q-43 0 -66.5 22t-23.5 62t24 63t66 23zM1251 1386l-350 -542q-95 -154 -130.5 -244.5t-35.5 -220.5v-361 q0 -18 -18 -18h-99q-18 0 -18 18v361q0 131 -35 222t-129 243l-350 542q-6 9 -2.5 16t14.5 7h113q13 0 22 -12l302 -465q67 -111 116 -223q3 -13 11 -21q4 -4 10.5 -1t9.5 11q47 115 119 234l303 465q9 12 22 12h113q11 0 14.5 -7t-2.5 -16z" />
<glyph unicode="&#x179;" horiz-adv-x="1241" d="M731 1792h139q12 0 15 -7t-6 -16l-199 -188q-11 -8 -23 -8h-98q-11 0 -14 6.5t4 15.5l160 187q7 10 22 10zM176 1409h911q15 0 21 -12l8 -15q9 -15 -2 -26q-66 -85 -133 -201l-567 -887q-44 -65 -84 -118q-12 -15 -8.5 -23.5t20.5 -7.5q102 4 141 4h607q10 0 14.5 -6 t1.5 -15l-25 -86q-3 -16 -20 -16h-907q-15 0 -21 14l-8 15q-6 15 2 26q64 87 139 215l559 873q2 4 22 35t33.5 50t28.5 34q23 30 -10 30q-80 -6 -139 -6h-584q-18 0 -18 19v86q0 18 18 18z" />
<glyph unicode="&#x17a;" horiz-adv-x="958" d="M584 1448h112q12 0 15.5 -7t-4.5 -16l-183 -233q-10 -10 -22 -10h-84q-11 0 -14.5 6.5t2.5 15.5l155 232q9 12 23 12zM852 969l4 -6q8 -14 -2 -27q-43 -51 -86 -121l-395 -598q-13 -19 -60 -78q-8 -9 -4.5 -15t15.5 -5q35 2 96 2h407q10 0 15 -6t2 -15l-25 -84 q-3 -16 -20 -16h-664q-13 0 -22 12l-4 6q-8 14 2 27q50 62 92 133l389 584q33 52 59 80q8 9 6 15t-14 5q-37 -2 -98 -2h-400q-18 0 -18 19v84q0 18 18 18h684q14 0 23 -12z" />
<glyph unicode="&#x17b;" horiz-adv-x="1241" d="M631 1767q41 0 65.5 -23t24.5 -63q0 -39 -24 -61.5t-66 -22.5q-44 0 -68 22t-24 62t24 63t68 23zM176 1409h911q15 0 21 -12l8 -15q9 -15 -2 -26q-66 -85 -133 -201l-567 -887q-44 -65 -84 -118q-12 -15 -8.5 -23.5t20.5 -7.5q102 4 141 4h607q10 0 14.5 -6t1.5 -15 l-25 -86q-3 -16 -20 -16h-907q-15 0 -21 14l-8 15q-6 15 2 26q64 87 139 215l559 873q2 4 22 35t33.5 50t28.5 34q23 30 -10 30q-80 -6 -139 -6h-584q-18 0 -18 19v86q0 18 18 18z" />
<glyph unicode="&#x17c;" horiz-adv-x="958" d="M483 1458q40 0 64 -24t24 -66t-24 -66t-64 -24q-41 0 -64.5 23.5t-23.5 66.5t23.5 66.5t64.5 23.5zM852 969l4 -6q8 -14 -2 -27q-43 -51 -86 -121l-395 -598q-13 -19 -60 -78q-8 -9 -4.5 -15t15.5 -5q35 2 96 2h407q10 0 15 -6t2 -15l-25 -84q-3 -16 -20 -16h-664 q-13 0 -22 12l-4 6q-8 14 2 27q50 62 92 133l389 584q33 52 59 80q8 9 6 15t-14 5q-37 -2 -98 -2h-400q-18 0 -18 19v84q0 18 18 18h684q14 0 23 -12z" />
<glyph unicode="&#x17d;" horiz-adv-x="1241" d="M686 1571h-117q-14 0 -24 10l-178 186q-9 9 -6.5 16t14.5 7h88q11 0 22 -8l144 -119l143 119q11 8 23 8h88q13 0 16 -7t-6 -16l-182 -186q-10 -10 -25 -10zM981 1155l-567 -887q-44 -65 -84 -118q-12 -15 -8.5 -23.5t20.5 -7.5q102 4 141 4h607q10 0 14.5 -6t1.5 -15 l-25 -86q-3 -16 -20 -16h-907q-15 0 -21 14l-8 15q-6 15 2 26q64 87 139 215l559 873q2 4 22 35t33.5 50t28.5 34q23 30 -10 30q-80 -6 -139 -6h-584q-18 0 -18 19v86q0 18 18 18h911q15 0 21 -12l8 -15q9 -15 -2 -26q-66 -85 -133 -201z" />
<glyph unicode="&#x17e;" horiz-adv-x="958" d="M530 1180h-88q-12 0 -22 10l-184 233q-8 9 -5 16t15 7h76q14 0 22 -10l141 -152l142 152q7 10 22 10h78q12 0 15 -7t-5 -16l-184 -233q-10 -10 -23 -10zM768 815l-395 -598q-13 -19 -60 -78q-8 -9 -4.5 -15t15.5 -5q35 2 96 2h407q10 0 15 -6t2 -15l-25 -84 q-3 -16 -20 -16h-664q-13 0 -22 12l-4 6q-8 14 2 27q50 62 92 133l389 584q33 52 59 80q8 9 6 15t-14 5q-37 -2 -98 -2h-400q-18 0 -18 19v84q0 18 18 18h684q14 0 23 -12l4 -6q8 -14 -2 -27q-43 -51 -86 -121z" />
<glyph unicode="&#x18f;" horiz-adv-x="1302" d="M209 1343l72 25q179 64 321 64q275 0 430.5 -194t155.5 -538q0 -337 -157.5 -528.5t-432.5 -191.5q-229 0 -357 106t-128 291q0 163 93 254.5t290 128.5l540 98q-31 215 -141.5 330t-292.5 115q-149 0 -283 -54l-69 -24q-19 -6 -25 12l-28 82q-6 18 12 24zM1049 733 l-529 -98q-141 -26 -205.5 -87.5t-64.5 -170.5q0 -125 92.5 -198t255.5 -73q217 0 333 162.5t118 464.5z" />
<glyph unicode="&#x1c7;" horiz-adv-x="1832" d="M315 123h637q19 0 19 -19v-86q0 -18 -19 -18h-753q-19 0 -19 18v1373q0 18 19 18h98q18 0 18 -18v-1268zM1647 1391v-1047q0 -172 -88 -268t-246 -96q-62 0 -123 20l-29 10q-17 7 -10 23l29 84q6 16 22 10l27 -8q42 -10 84 -10q94 0 146 61.5t52 173.5v1047q0 18 19 18 h98q19 0 19 -18z" />
<glyph unicode="&#x1c9;" horiz-adv-x="995" d="M748 1458q43 0 65.5 -23.5t22.5 -66.5t-22.5 -66.5t-65.5 -23.5q-42 0 -65.5 24t-23.5 66t23.5 66t65.5 24zM293 1430v-1254q0 -74 53 -74q13 0 19 2q16 6 22 -10l35 -80q7 -17 -10 -24q-33 -10 -66 -10q-88 0 -137 51.5t-49 144.5v1254q0 18 18 18h96q19 0 19 -18z M836 963v-1082q0 -93 -37 -161.5t-115 -122.5l-61 -46q-16 -13 -27 5l-47 75q-7 17 6 25l59 45q88 62 88 180v979h-94q-18 0 -18 19v84q0 18 18 18h209q19 0 19 -18z" />
<glyph unicode="&#x1ca;" horiz-adv-x="2234" d="M1241 0h-127q-14 0 -20 14q-39 82 -115 201l-584 856q-44 70 -67 121q-6 14 -17 10.5t-8 -18.5q14 -89 14 -195v-971q0 -18 -18 -18h-100q-19 0 -19 18v1373q0 18 19 18h129q14 0 20 -14q64 -122 115 -199l584 -856q40 -59 67 -123q6 -13 17 -9.5t8 17.5q-15 76 -15 195 v971q0 18 19 18h98q19 0 19 -18v-1373q0 -18 -19 -18zM2050 1391v-1047q0 -172 -88.5 -268t-245.5 -96q-62 0 -123 20l-28 10q-17 7 -11 23l29 84q6 15 23 12l26 -8q38 -12 84 -12q93 0 145 61.5t52 173.5v1047q0 18 18 18h101q18 0 18 -18z" />
<glyph unicode="&#x1cc;" horiz-adv-x="1636" d="M1389 1458q43 0 65.5 -23.5t22.5 -66.5t-22.5 -66.5t-65.5 -23.5q-41 0 -65 24t-24 66t24 66t65 24zM260 963l8 -125q3 -9 8 -12t11 -0.5t12 10.5q116 165 328 165q169 0 265.5 -106t96.5 -291v-586q0 -18 -18 -18h-97q-18 0 -18 18v576q0 134 -64 209.5t-178 75.5 q-152 0 -236.5 -108.5t-84.5 -303.5v-449q0 -18 -19 -18h-96q-18 0 -18 18v945q0 18 18 18h64q18 0 18 -18zM1477 963v-1082q0 -93 -37 -161.5t-115 -122.5l-61 -46q-16 -13 -27 5l-47 75q-7 17 6 25l59 45q88 62 88 180v979h-94q-18 0 -18 19v84q0 18 18 18h209 q19 0 19 -18z" />
<glyph unicode="&#x1cd;" horiz-adv-x="1425" d="M768 1571h-117q-14 0 -24 10l-178 186q-9 9 -6.5 16t14.5 7h88q11 0 22 -8l144 -119l143 119q11 8 23 8h88q13 0 16 -7t-6 -16l-182 -186q-10 -10 -25 -10zM913 1040l420 -1020q3 -9 -1 -14.5t-13 -5.5h-105q-16 0 -22 14l-139 344h-680l-140 -344q-6 -14 -22 -14h-107 q-9 0 -13 5.5t-1 14.5l422 1020q71 179 119 353q3 16 20 16h121q18 0 21 -16q43 -155 120 -353zM1001 483l-188 453q-62 153 -88 272q-2 9 -7.5 12t-11.5 0t-8 -12q-22 -113 -88 -272l-186 -453h577z" />
<glyph unicode="&#x1ce;" horiz-adv-x="1036" d="M563 1182h-88q-12 0 -22 10l-185 233q-8 9 -4.5 16t15.5 7h75q16 0 23 -10l141 -152l141 152q7 10 23 10h78q12 0 15 -7t-5 -16l-184 -233q-10 -10 -23 -10zM195 948l75 23q98 30 219 30q188 0 297 -106t109 -291v-586q0 -18 -18 -18h-64q-17 0 -20 18l-7 93q-9 39 -41 2 q-106 -133 -325 -133q-155 0 -241.5 78.5t-86.5 215.5t94 218.5t267 82.5h309v27q0 131 -71.5 203t-203.5 72q-106 0 -186 -25l-72 -21q-18 -6 -24 13l-23 80q-6 18 13 24zM762 461h-309q-113 0 -170.5 -47.5t-57.5 -130.5q0 -87 53.5 -135t151.5 -48q158 0 245 87t87 247 v27z" />
<glyph unicode="&#x1cf;" horiz-adv-x="495" d="M414 1790h88q13 0 16 -7t-6 -16l-182 -186q-10 -10 -25 -10h-117q-14 0 -24 10l-178 186q-9 9 -6.5 16t14.5 7h88q11 0 22 -8l144 -119l143 119q11 8 23 8zM180 18v1373q0 18 19 18h98q18 0 18 -18v-1373q0 -18 -18 -18h-98q-19 0 -19 18z" />
<glyph unicode="&#x1d0;" horiz-adv-x="514" d="M313 1182h-94q-13 0 -22 12l-142 231q-6 9 -2.5 16t15.5 7h73q14 0 23 -12l102 -144l103 144q9 12 22 12h72q12 0 15 -7t-3 -16l-139 -231q-9 -12 -23 -12zM109 879v84q0 18 18 18h209q18 0 18 -18v-945q0 -18 -18 -18h-96q-19 0 -19 18v842h-94q-18 0 -18 19z" />
<glyph unicode="&#x1d1;" horiz-adv-x="1415" d="M766 1571h-117q-14 0 -24 10l-179 186q-9 9 -6 16t15 7h88q11 0 22 -8l144 -119l143 119q11 8 22 8h89q13 0 16 -7t-6 -16l-182 -186q-10 -10 -25 -10zM709 1432q274 0 432.5 -196t158.5 -531t-158 -530t-433 -195q-276 0 -435 195t-159 530q0 336 159 531.5t435 195.5z M709 106q215 0 333.5 158.5t118.5 440.5t-118.5 440t-333.5 158t-335 -158t-120 -440t120 -440.5t335 -158.5z" />
<glyph unicode="&#x1d2;" horiz-adv-x="1099" d="M596 1180h-88q-13 0 -23 10l-184 233q-8 9 -5 16t15 7h76q15 0 23 -10l141 -152l141 152q8 10 23 10h78q12 0 15 -7t-5 -16l-185 -233q-10 -10 -22 -10zM549 1001q207 0 326.5 -137t119.5 -372q0 -237 -119.5 -374.5t-326.5 -137.5t-327 138t-120 374q0 235 120 372 t327 137zM549 102q148 0 231.5 103.5t83.5 286.5q0 182 -83.5 284.5t-231.5 102.5t-230.5 -102.5t-82.5 -284.5q0 -183 82.5 -286.5t230.5 -103.5z" />
<glyph unicode="&#x1d3;" horiz-adv-x="1363" d="M739 1571h-116q-15 0 -25 10l-178 186q-9 9 -6.5 16t14.5 7h88q12 0 23 -8l143 -119l143 119q11 8 23 8h88q13 0 16 -7t-6 -16l-182 -186q-10 -10 -25 -10zM1087 1409h99q18 0 18 -18v-838q0 -270 -137.5 -421.5t-384.5 -151.5t-384.5 151.5t-137.5 421.5v838q0 18 18 18 h98q19 0 19 -18v-838q0 -212 101.5 -329.5t285.5 -117.5t285.5 117.5t101.5 329.5v838q0 18 18 18z" />
<glyph unicode="&#x1d4;" d="M608 1180h-88q-12 0 -22 10l-185 233q-8 9 -4.5 16t15.5 7h75q15 0 23 -10l141 -152l142 152q7 10 22 10h78q12 0 15 -7t-5 -16l-184 -233q-10 -10 -23 -10zM864 981h97q18 0 18 -18v-945q0 -18 -18 -18h-64q-18 0 -18 18l-9 125q-10 29 -30 2q-116 -165 -328 -165 q-169 0 -265.5 106t-96.5 291v586q0 18 18 18h96q19 0 19 -18v-576q0 -134 63.5 -209.5t177.5 -75.5q152 0 237 108.5t85 303.5v449q0 18 18 18z" />
<glyph unicode="&#x1d5;" horiz-adv-x="1363" d="M412 1901h546q19 0 19 -19v-70q0 -18 -19 -18h-546q-19 0 -19 18v70q0 19 19 19zM532 1667q40 0 64.5 -23.5t24.5 -62.5t-24.5 -61.5t-64.5 -22.5q-43 0 -66.5 22t-23.5 62t24 63t66 23zM838 1667q40 0 64 -23t24 -63q0 -39 -24 -61.5t-64 -22.5q-43 0 -66.5 22t-23.5 62 t24 63t66 23zM1204 1391v-838q0 -270 -137.5 -421.5t-384.5 -151.5t-384.5 151.5t-137.5 421.5v838q0 18 18 18h98q19 0 19 -18v-838q0 -212 101.5 -329.5t285.5 -117.5t285.5 117.5t101.5 329.5v838q0 18 18 18h99q18 0 18 -18z" />
<glyph unicode="&#x1d6;" d="M322 1567h466q19 0 19 -19v-65q0 -19 -19 -19h-466q-19 0 -19 19v65q0 19 19 19zM401 1272q39 0 62.5 -23.5t23.5 -64.5t-23.5 -64.5t-62.5 -23.5q-40 0 -63 23.5t-23 64.5t23 64.5t63 23.5zM713 1272q39 0 62.5 -23.5t23.5 -64.5t-23.5 -64.5t-62.5 -23.5 q-40 0 -63 23.5t-23 64.5t23 64.5t63 23.5zM879 18l-9 125q-10 29 -30 2q-116 -165 -328 -165q-169 0 -265.5 106t-96.5 291v586q0 18 18 18h96q19 0 19 -18v-576q0 -134 63.5 -209.5t177.5 -75.5q152 0 237 108.5t85 303.5v449q0 18 18 18h97q18 0 18 -18v-945 q0 -18 -18 -18h-64q-18 0 -18 18z" />
<glyph unicode="&#x1d7;" horiz-adv-x="1363" d="M793 1964h139q12 0 14.5 -6.5t-6.5 -15.5l-199 -189q-11 -8 -22 -8h-98q-11 0 -14.5 6.5t3.5 15.5l160 187q7 10 23 10zM532 1667q40 0 64.5 -23.5t24.5 -62.5t-24.5 -61.5t-64.5 -22.5q-43 0 -66.5 22t-23.5 62t24 63t66 23zM838 1667q40 0 64 -23t24 -63 q0 -39 -24 -61.5t-64 -22.5q-43 0 -66.5 22t-23.5 62t24 63t66 23zM1204 1391v-838q0 -270 -137.5 -421.5t-384.5 -151.5t-384.5 151.5t-137.5 421.5v838q0 18 18 18h98q19 0 19 -18v-838q0 -212 101.5 -329.5t285.5 -117.5t285.5 117.5t101.5 329.5v838q0 18 18 18h99 q18 0 18 -18z" />
<glyph unicode="&#x1d8;" d="M653 1655h113q12 0 15 -7t-5 -16l-182 -233q-10 -10 -23 -10h-84q-11 0 -14.5 6.5t2.5 15.5l156 231q10 13 22 13zM401 1272q39 0 62.5 -23.5t23.5 -64.5t-23.5 -64.5t-62.5 -23.5q-40 0 -63 23.5t-23 64.5t23 64.5t63 23.5zM713 1272q39 0 62.5 -23.5t23.5 -64.5 t-23.5 -64.5t-62.5 -23.5q-40 0 -63 23.5t-23 64.5t23 64.5t63 23.5zM879 18l-9 125q-10 29 -30 2q-116 -165 -328 -165q-169 0 -265.5 106t-96.5 291v586q0 18 18 18h96q19 0 19 -18v-576q0 -134 63.5 -209.5t177.5 -75.5q152 0 237 108.5t85 303.5v449q0 18 18 18h97 q18 0 18 -18v-945q0 -18 -18 -18h-64q-18 0 -18 18z" />
<glyph unicode="&#x1d9;" horiz-adv-x="1363" d="M741 1745h-116q-15 0 -25 10l-178 187q-9 9 -6.5 15.5t14.5 6.5h88q12 0 23 -8l143 -119l143 119q11 8 23 8h88q13 0 16 -6.5t-6 -15.5l-182 -187q-10 -10 -25 -10zM532 1667q40 0 64.5 -23.5t24.5 -62.5t-24.5 -61.5t-64.5 -22.5q-43 0 -66.5 22t-23.5 62t24 63t66 23z M748 1581q0 40 24 63t66 23q40 0 64 -23t24 -63q0 -39 -24 -61.5t-64 -22.5q-43 0 -66.5 22t-23.5 62zM1087 1409h99q18 0 18 -18v-838q0 -270 -137.5 -421.5t-384.5 -151.5t-384.5 151.5t-137.5 421.5v838q0 18 18 18h98q19 0 19 -18v-838q0 -212 101.5 -329.5 t285.5 -117.5t285.5 117.5t101.5 329.5v838q0 18 18 18z" />
<glyph unicode="&#x1da;" d="M598 1386h-88q-12 0 -23 11l-184 233q-8 9 -5 16t15 7h76q15 0 23 -11l141 -151l141 151q8 11 23 11h78q12 0 15 -7t-5 -16l-184 -233q-11 -11 -23 -11zM315 1184q0 41 23 64.5t63 23.5q39 0 62.5 -23.5t23.5 -64.5t-23.5 -64.5t-62.5 -23.5q-40 0 -63 23.5t-23 64.5z M627 1184q0 41 23 64.5t63 23.5q39 0 62.5 -23.5t23.5 -64.5t-23.5 -64.5t-62.5 -23.5q-40 0 -63 23.5t-23 64.5zM864 981h97q18 0 18 -18v-945q0 -18 -18 -18h-64q-18 0 -18 18l-9 125q-10 29 -30 2q-116 -165 -328 -165q-169 0 -265.5 106t-96.5 291v586q0 18 18 18h96 q19 0 19 -18v-576q0 -134 63.5 -209.5t177.5 -75.5q152 0 237 108.5t85 303.5v449q0 18 18 18z" />
<glyph unicode="&#x1db;" horiz-adv-x="1363" d="M602 1954l160 -187q7 -9 4 -15.5t-14 -6.5h-99q-11 0 -22 8l-199 189q-9 9 -6.5 15.5t14.5 6.5h140q14 0 22 -10zM532 1667q40 0 64.5 -23.5t24.5 -62.5t-24.5 -61.5t-64.5 -22.5q-43 0 -66.5 22t-23.5 62t24 63t66 23zM838 1667q40 0 64 -23t24 -63q0 -39 -24 -61.5 t-64 -22.5q-43 0 -66.5 22t-23.5 62t24 63t66 23zM1204 1391v-838q0 -270 -137.5 -421.5t-384.5 -151.5t-384.5 151.5t-137.5 421.5v838q0 18 18 18h98q19 0 19 -18v-838q0 -212 101.5 -329.5t285.5 -117.5t285.5 117.5t101.5 329.5v838q0 18 18 18h99q18 0 18 -18z" />
<glyph unicode="&#x1dc;" d="M479 1642l156 -231q6 -9 2.5 -15.5t-14.5 -6.5h-84q-13 0 -23 10l-182 233q-8 9 -5 16t15 7h113q12 0 22 -13zM401 1272q39 0 62.5 -23.5t23.5 -64.5t-23.5 -64.5t-62.5 -23.5q-40 0 -63 23.5t-23 64.5t23 64.5t63 23.5zM713 1272q39 0 62.5 -23.5t23.5 -64.5 t-23.5 -64.5t-62.5 -23.5q-40 0 -63 23.5t-23 64.5t23 64.5t63 23.5zM879 18l-9 125q-10 29 -30 2q-116 -165 -328 -165q-169 0 -265.5 106t-96.5 291v586q0 18 18 18h96q19 0 19 -18v-576q0 -134 63.5 -209.5t177.5 -75.5q152 0 237 108.5t85 303.5v449q0 18 18 18h97 q18 0 18 -18v-945q0 -18 -18 -18h-64q-18 0 -18 18z" />
<glyph unicode="&#x1ea;" horiz-adv-x="1415" d="M621 -152l88 76q57 48 8 56h-8q-276 0 -435 195t-159 530q0 336 159 531.5t435 195.5q274 0 432.5 -196t158.5 -531q0 -211 -64 -369t-183 -248h2l-357 -299q-34 -23 -34 -72q0 -61 63 -61q21 0 66 10l24 10q19 6 25 -12l20 -65q6 -19 -10 -25l-33 -10q-55 -19 -92 -19 q-82 0 -129 42.5t-47 115.5q0 84 70 145zM254 705q0 -282 120 -440.5t335 -158.5t333.5 158.5t118.5 440.5t-118.5 440t-333.5 158t-335 -158t-120 -440z" />
<glyph unicode="&#x1eb;" horiz-adv-x="1099" d="M823 68l-293 -279q-34 -27 -34 -72q0 -63 63 -63q23 0 64 12l24 10q19 6 25 -12l22 -65q6 -19 -12 -25l-31 -10q-55 -19 -94 -19q-83 0 -128.5 42t-45.5 116q0 78 70 145l79 76q13 12 20.5 20.5t10.5 16t-1 12t-15 7.5q-205 0 -325 138t-120 374q0 235 120 372t327 137 t326.5 -137t119.5 -372q0 -142 -44 -250.5t-128 -173.5zM236 492q0 -183 82.5 -286.5t230.5 -103.5t231.5 103.5t83.5 286.5q0 182 -83.5 284.5t-231.5 102.5t-230.5 -102.5t-82.5 -284.5z" />
<glyph unicode="&#x1f4;" horiz-adv-x="1335" d="M778 1792h140q12 0 14.5 -7t-6.5 -16l-199 -188q-11 -8 -22 -8h-99q-11 0 -14 6.5t4 15.5l160 187q8 10 22 10zM1184 678v-567q0 -18 -15 -21l-34 -12l-131 -47q-84 -30 -144.5 -40.5t-148.5 -10.5q-279 0 -437.5 193.5t-158.5 531.5q0 336 159 531.5t437 195.5 q84 0 146.5 -12t148.5 -42l86 -30q17 -7 10 -23l-31 -86q-6 -16 -22 -10l-86 31q-122 43 -252 43q-216 0 -336.5 -158t-120.5 -440t120.5 -440.5t336.5 -158.5q141 3 247 41l93 33v393h-279q-10 0 -14.5 6t-1.5 15l24 86q3 16 21 16h364q19 0 19 -18z" />
<glyph unicode="&#x1f5;" horiz-adv-x="1124" d="M659 1448h113q12 0 15 -7t-5 -16l-182 -233q-10 -10 -22 -10h-84q-11 0 -15 6.5t2 15.5l156 232q9 12 22 12zM238 -281l79 -22q85 -25 203 -25q152 0 238 70.5t96 210.5q2 85 8 188q2 13 -6.5 15t-17.5 -11q-119 -165 -318 -165q-193 0 -305.5 137t-112.5 372 q0 240 120 376t335 136q134 0 256 -53l148 -65q14 -6 14 -21v-893q0 -201 -116 -311.5t-335 -110.5q-126 0 -233 31l-90 25q-19 6 -13 24l27 82q7 17 23 10zM842 795l-84 39q-85 45 -205 45q-151 -2 -234 -102.5t-83 -284.5q0 -176 77.5 -283t218.5 -107q149 0 229.5 113 t80.5 299v281z" />
<glyph unicode="&#x1fa;" horiz-adv-x="1425" d="M817 2015h139q12 0 15 -6.5t-6 -15.5l-199 -189q-11 -8 -23 -8h-98q-11 0 -14 7t4 16l160 186q7 10 22 10zM709 1747q78 0 120.5 -36.5t42.5 -102.5q0 -65 -42.5 -101.5t-120.5 -36.5q-76 0 -119 36.5t-43 101.5q0 66 42.5 102.5t119.5 36.5zM709 1669q-35 0 -54.5 -16 t-19.5 -45q0 -28 19.5 -45t54.5 -17t54 17t19 45q0 61 -73 61zM373 358l-140 -344q-6 -14 -22 -14h-107q-9 0 -13 5.5t-1 14.5l422 1020q71 179 119 353q3 16 20 16h121q18 0 21 -16q43 -155 120 -353l420 -1020q3 -9 -1 -14.5t-13 -5.5h-105q-16 0 -22 14l-139 344h-680z M1001 483l-188 453q-62 153 -88 272q-2 9 -7.5 12t-11.5 0t-8 -12q-22 -113 -88 -272l-186 -453h577z" />
<glyph unicode="&#x1fb;" horiz-adv-x="1036" d="M604 1655h113q12 0 15 -7t-5 -16l-182 -233q-10 -10 -23 -10h-84q-11 0 -14.5 6.5t2.5 15.5l156 231q10 13 22 13zM512 1343q78 0 122 -39.5t44 -109.5t-44 -110t-122 -40q-79 0 -122.5 39.5t-43.5 110.5t43.5 110t122.5 39zM512 1264q-80 0 -80 -70t80 -70q38 0 59 18 t21 52t-21 52t-59 18zM195 948l75 23q98 30 219 30q188 0 297 -106t109 -291v-586q0 -18 -18 -18h-64q-17 0 -20 18l-7 93q-9 39 -41 2q-106 -133 -325 -133q-155 0 -241.5 78.5t-86.5 215.5t94 218.5t267 82.5h309v27q0 131 -71.5 203t-203.5 72q-106 0 -186 -25l-72 -21 q-18 -6 -24 13l-23 80q-6 18 13 24zM762 461h-309q-113 0 -170.5 -47.5t-57.5 -130.5q0 -87 53.5 -135t151.5 -48q158 0 245 87t87 247v27z" />
<glyph unicode="&#x1fc;" horiz-adv-x="1869" d="M1098 1792h139q12 0 14.5 -7t-6.5 -16l-198 -188q-11 -8 -23 -8h-98q-11 0 -14.5 6.5t3.5 15.5l160 187q7 10 23 10zM1761 104v-86q0 -18 -18 -18h-529q-16 0 -22 14l-139 344h-680l-140 -344q-6 -14 -22 -14h-107q-9 0 -13 5.5t-1 14.5l414 1000q86 216 127 373 q3 16 20 16h1082q23 0 16 -20l-25 -86q-3 -17 -20 -17h-842q-16 0 -19 -7t-1 -24q13 -68 63 -186l117 -285h567q19 0 19 -18v-86q0 -18 -19 -18h-518l223 -539h449q18 0 18 -19zM1001 483l-194 469q-58 142 -80 256q-5 14 -15.5 14t-13.5 -14q-26 -121 -82 -254l-192 -471 h577z" />
<glyph unicode="&#x1fd;" horiz-adv-x="1681" d="M952 1448h113q12 0 15 -7t-5 -16l-182 -233q-10 -10 -23 -10h-84q-11 0 -14.5 6.5t2.5 15.5l156 232q9 12 22 12zM195 946l81 25q100 28 216 28q241 0 339 -194q16 -29 35 0q53 95 140.5 145.5t201.5 50.5q186 0 278.5 -83t92.5 -211q0 -116 -75 -181.5t-234 -91.5 l-361 -61q20 -122 97 -196.5t202 -74.5q89 0 195 27l65 18q20 3 23 -14l25 -82q3 -19 -15 -22l-65 -19q-105 -30 -228 -30q-254 0 -360 219q-18 30 -33 0q-106 -219 -389 -219q-157 0 -245.5 80.5t-88.5 218.5t93 216t259 78h318v45q0 119 -72 189t-201 70q-95 0 -186 -25 l-74 -23q-18 -6 -24 13l-25 82q-3 19 15 22zM897 487l352 58q102 17 150.5 56t48.5 104q0 70 -58 122t-182 52q-144 0 -225.5 -99t-85.5 -293zM762 463h-320q-102 0 -159.5 -47t-57.5 -131t55 -134.5t152 -50.5q167 0 248.5 87.5t81.5 275.5z" />
<glyph unicode="&#x1fe;" horiz-adv-x="1435" d="M809 1792h139q12 0 14.5 -7t-6.5 -16l-198 -188q-11 -8 -23 -8h-98q-11 0 -14 6.5t4 15.5l159 187q8 10 23 10zM1294 1386l-129 -167q146 -194 146 -514q0 -335 -158.5 -530t-433.5 -195q-235 0 -385 141l-82 -111q-10 -10 -23 -10h-75q-12 0 -15.5 7t2.5 16l129 170 q-145 193 -145 512q0 336 159 531.5t435 195.5q233 0 381 -142l82 109q10 10 22 10h78q12 0 15 -7t-3 -16zM356 305l664 879q-116 119 -301 119q-215 0 -335 -158t-120 -440q0 -244 92 -400zM1079 1104l-663 -877q118 -121 303 -121q215 0 333.5 158.5t118.5 440.5 q0 243 -92 399z" />
<glyph unicode="&#x1ff;" horiz-adv-x="1099" d="M645 1448h113q12 0 15 -7t-5 -16l-182 -233q-10 -10 -23 -10h-84q-11 0 -14.5 6.5t2.5 15.5l156 232q9 12 22 12zM975 958l-86 -108q106 -137 106 -358q0 -237 -119.5 -374.5t-326.5 -137.5q-167 0 -279 92l-49 -62q-10 -10 -22 -10h-68q-12 0 -15 7t5 16l88 110 q-107 135 -107 359q0 235 120 372t327 137q166 0 278 -92l50 62q10 10 22 10h66q12 0 15 -7t-5 -16zM293 238l457 573q-84 68 -201 68q-149 0 -233.5 -102.5t-84.5 -284.5q0 -154 62 -254zM805 745l-457 -573q82 -70 201 -70q149 0 234 103.5t85 286.5q0 152 -63 253z" />
<glyph unicode="&#x200;" horiz-adv-x="1425" d="M410 1792h110q14 0 23 -12l102 -185q5 -9 1.5 -15.5t-13.5 -6.5h-88q-14 0 -23 12l-125 184q-6 9 -2 16t15 7zM709 1792h108q15 0 21 -12l96 -185q9 -22 -14 -22h-84q-14 0 -23 12l-117 184q-6 9 -2 16t15 7zM373 358l-140 -344q-6 -14 -22 -14h-107q-9 0 -13 5.5 t-1 14.5l422 1020q71 179 119 353q3 16 20 16h121q18 0 21 -16q43 -155 120 -353l420 -1020q3 -9 -1 -14.5t-13 -5.5h-105q-16 0 -22 14l-139 344h-680zM1001 483l-188 453q-62 153 -88 272q-2 9 -7.5 12t-11.5 0t-8 -12q-22 -113 -88 -272l-186 -453h577z" />
<glyph unicode="&#x201;" horiz-adv-x="1036" d="M229 1450h95q14 0 20 -14l100 -230q9 -22 -12 -22h-76q-14 0 -20 12l-119 231q-6 11 -2.5 17t14.5 6zM504 1450h94q17 0 23 -14l94 -232q3 -9 -1.5 -14.5t-13.5 -5.5h-75q-15 0 -21 14l-115 229q-4 10 0 16.5t15 6.5zM195 948l75 23q98 30 219 30q188 0 297 -106 t109 -291v-586q0 -18 -18 -18h-64q-17 0 -20 18l-7 93q-9 39 -41 2q-106 -133 -325 -133q-155 0 -241.5 78.5t-86.5 215.5t94 218.5t267 82.5h309v27q0 131 -71.5 203t-203.5 72q-106 0 -186 -25l-72 -21q-18 -6 -24 13l-23 80q-6 18 13 24zM762 461h-309 q-113 0 -170.5 -47.5t-57.5 -130.5q0 -87 53.5 -135t151.5 -48q158 0 245 87t87 247v27z" />
<glyph unicode="&#x202;" horiz-adv-x="1425" d="M938 1573h-76q-18 0 -18 18v23q0 47 -34.5 72.5t-98.5 25.5q-133 0 -133 -98v-23q0 -18 -19 -18h-76q-18 0 -18 18v25q0 199 246 199q245 0 245 -199v-25q0 -18 -18 -18zM373 358l-140 -344q-6 -14 -22 -14h-107q-9 0 -13 5.5t-1 14.5l422 1020q71 179 119 353 q3 16 20 16h121q18 0 21 -16q43 -155 120 -353l420 -1020q3 -9 -1 -14.5t-13 -5.5h-105q-16 0 -22 14l-139 344h-680zM1001 483l-188 453q-62 153 -88 272q-2 9 -7.5 12t-11.5 0t-8 -12q-22 -113 -88 -272l-186 -453h577z" />
<glyph unicode="&#x203;" horiz-adv-x="1036" d="M741 1182h-71q-19 0 -19 18v51q0 56 -34.5 86.5t-98.5 30.5t-98.5 -30.5t-34.5 -86.5v-51q0 -18 -18 -18h-72q-19 0 -19 18v51q0 101 64 158t178 57t178 -57t64 -158v-51q0 -18 -19 -18zM195 948l75 23q98 30 219 30q188 0 297 -106t109 -291v-586q0 -18 -18 -18h-64 q-17 0 -20 18l-7 93q-9 39 -41 2q-106 -133 -325 -133q-155 0 -241.5 78.5t-86.5 215.5t94 218.5t267 82.5h309v27q0 131 -71.5 203t-203.5 72q-106 0 -186 -25l-72 -21q-18 -6 -24 13l-23 80q-6 18 13 24zM762 461h-309q-113 0 -170.5 -47.5t-57.5 -130.5q0 -87 53.5 -135 t151.5 -48q158 0 245 87t87 247v27z" />
<glyph unicode="&#x204;" horiz-adv-x="1228" d="M348 1792h111q13 0 22 -12l103 -185q5 -9 1 -15.5t-14 -6.5h-88q-13 0 -22 12l-125 184q-6 9 -2.5 16t14.5 7zM647 1792h109q14 0 20 -12l96 -185q9 -22 -14 -22h-84q-13 0 -22 12l-117 184q-6 9 -2.5 16t14.5 7zM315 784h637q19 0 19 -18v-86q0 -18 -19 -18h-637v-539 h787q18 0 18 -19v-86q0 -18 -18 -18h-903q-19 0 -19 18v1373q0 18 19 18h895q23 0 16 -20l-27 -86q-3 -17 -20 -17h-748v-502z" />
<glyph unicode="&#x205;" horiz-adv-x="1024" d="M240 1448h94q14 0 20 -14l101 -230q9 -22 -13 -22h-75q-15 0 -21 12l-119 231q-6 11 -2 17t15 6zM514 1448h94q17 0 23 -14l94 -232q3 -9 -1 -14.5t-13 -5.5h-76q-15 0 -21 14l-114 229q-4 11 -0.5 17t14.5 6zM840 29l-66 -19q-94 -30 -221 -30q-211 0 -331 137.5 t-120 374.5q0 235 120 372t329 137q174 0 272.5 -80.5t98.5 -222.5q0 -212 -275 -258l-399 -65q20 -130 100 -201.5t205 -71.5q105 0 190 27l62 18q18 3 24 -14l25 -82q3 -19 -14 -22zM238 487l387 66q163 27 163 143q0 87 -62.5 135t-176.5 48q-145 0 -226 -99t-85 -293z " />
<glyph unicode="&#x206;" horiz-adv-x="1228" d="M877 1573h-76q-19 0 -19 18v23q0 47 -34.5 72.5t-98.5 25.5q-133 0 -133 -98v-23q0 -18 -18 -18h-76q-19 0 -19 18v25q0 199 246 199t246 -199v-25q0 -18 -18 -18zM315 784h637q19 0 19 -18v-86q0 -18 -19 -18h-637v-539h787q18 0 18 -19v-86q0 -18 -18 -18h-903 q-19 0 -19 18v1373q0 18 19 18h895q23 0 16 -20l-27 -86q-3 -17 -20 -17h-748v-502z" />
<glyph unicode="&#x207;" horiz-adv-x="1024" d="M752 1180h-72q-18 0 -18 18v51q0 56 -35 86.5t-99 30.5t-98.5 -30.5t-34.5 -86.5v-51q0 -18 -18 -18h-72q-18 0 -18 18v51q0 101 63.5 158t177.5 57t178 -57t64 -158v-51q0 -18 -18 -18zM840 29l-66 -19q-94 -30 -221 -30q-211 0 -331 137.5t-120 374.5q0 235 120 372 t329 137q174 0 272.5 -80.5t98.5 -222.5q0 -212 -275 -258l-399 -65q20 -130 100 -201.5t205 -71.5q105 0 190 27l62 18q18 3 24 -14l25 -82q3 -19 -14 -22zM238 487l387 66q163 27 163 143q0 87 -62.5 135t-176.5 48q-145 0 -226 -99t-85 -293z" />
<glyph unicode="&#x208;" horiz-adv-x="495" d="M-53 1792h110q14 0 23 -12l102 -185q5 -9 1.5 -15.5t-13.5 -6.5h-88q-14 0 -23 12l-125 184q-6 9 -2 16t15 7zM246 1792h108q15 0 21 -12l96 -185q9 -22 -14 -22h-84q-14 0 -23 12l-117 184q-6 9 -2 16t15 7zM297 0h-98q-19 0 -19 18v1373q0 18 19 18h98q18 0 18 -18 v-1373q0 -18 -18 -18z" />
<glyph unicode="&#x209;" horiz-adv-x="514" d="M-4 1448h92q18 0 21 -14l77 -232q7 -20 -16 -20h-72q-16 0 -22 14l-94 231q-3 9 1 15t13 6zM264 1448h92q18 0 21 -16l67 -230q7 -20 -16 -20h-72q-16 0 -22 14l-84 231q-4 9 0 15t14 6zM336 0h-96q-19 0 -19 18v842h-94q-18 0 -18 19v84q0 18 18 18h209q18 0 18 -18 v-945q0 -18 -18 -18z" />
<glyph unicode="&#x20a;" horiz-adv-x="495" d="M475 1573h-76q-18 0 -18 18v23q0 47 -34.5 72.5t-98.5 25.5q-133 0 -133 -98v-23q0 -18 -19 -18h-76q-18 0 -18 18v25q0 199 246 199t246 -199v-25q0 -18 -19 -18zM297 0h-98q-19 0 -19 18v1373q0 18 19 18h98q18 0 18 -18v-1373q0 -18 -18 -18z" />
<glyph unicode="&#x20b;" horiz-adv-x="514" d="M434 1182h-67q-19 0 -19 18v74q0 40 -22.5 62t-63.5 22q-38 0 -60 -22t-22 -62v-74q0 -18 -18 -18h-68q-18 0 -18 18v74q0 86 49 134t137 48q90 0 140.5 -48t50.5 -134v-74q0 -18 -19 -18zM336 0h-96q-19 0 -19 18v842h-94q-18 0 -18 19v84q0 18 18 18h209q18 0 18 -18 v-945q0 -18 -18 -18z" />
<glyph unicode="&#x20c;" horiz-adv-x="1415" d="M408 1792h110q14 0 23 -12l102 -185q5 -9 1.5 -15.5t-13.5 -6.5h-88q-14 0 -23 12l-125 184q-6 9 -2 16t15 7zM707 1792h108q15 0 21 -12l96 -185q9 -22 -14 -22h-84q-14 0 -23 12l-117 184q-6 9 -2 16t15 7zM709 1432q274 0 432.5 -196t158.5 -531t-158 -530t-433 -195 q-276 0 -435 195t-159 530q0 336 159 531.5t435 195.5zM709 1303q-215 0 -335 -158t-120 -440t120 -440.5t335 -158.5t333.5 158.5t118.5 440.5t-118.5 440t-333.5 158z" />
<glyph unicode="&#x20d;" horiz-adv-x="1099" d="M260 1448h94q15 0 21 -14l100 -230q9 -22 -12 -22h-76q-14 0 -20 12l-119 231q-6 11 -2.5 17t14.5 6zM535 1448h94q16 0 22 -14l94 -232q3 -9 -1 -14.5t-13 -5.5h-76q-14 0 -20 14l-115 229q-4 10 0 16.5t15 6.5zM549 1001q207 0 326.5 -137t119.5 -372 q0 -237 -119.5 -374.5t-326.5 -137.5t-327 138t-120 374q0 235 120 372t327 137zM549 879q-148 0 -230.5 -102.5t-82.5 -284.5q0 -183 82.5 -286.5t230.5 -103.5t231.5 103.5t83.5 286.5q0 182 -83.5 284.5t-231.5 102.5z" />
<glyph unicode="&#x20e;" horiz-adv-x="1415" d="M936 1573h-76q-18 0 -18 18v23q0 47 -34.5 72.5t-98.5 25.5q-134 0 -134 -98v-23q0 -18 -18 -18h-76q-18 0 -18 18v25q0 199 246 199q245 0 245 -199v-25q0 -18 -18 -18zM709 1432q274 0 432.5 -196t158.5 -531t-158 -530t-433 -195q-276 0 -435 195t-159 530 q0 336 159 531.5t435 195.5zM709 1303q-215 0 -335 -158t-120 -440t120 -440.5t335 -158.5t333.5 158.5t118.5 440.5t-118.5 440t-333.5 158z" />
<glyph unicode="&#x20f;" horiz-adv-x="1099" d="M774 1180h-72q-18 0 -18 18v51q0 56 -34.5 86.5t-98.5 30.5t-98.5 -30.5t-34.5 -86.5v-51q0 -18 -19 -18h-71q-19 0 -19 18v51q0 101 64 158t178 57t178 -57t64 -158v-51q0 -18 -19 -18zM549 1001q207 0 326.5 -137t119.5 -372q0 -237 -119.5 -374.5t-326.5 -137.5 t-327 138t-120 374q0 235 120 372t327 137zM549 879q-148 0 -230.5 -102.5t-82.5 -284.5q0 -183 82.5 -286.5t230.5 -103.5t231.5 103.5t83.5 286.5q0 182 -83.5 284.5t-231.5 102.5z" />
<glyph unicode="&#x210;" horiz-adv-x="1345" d="M342 1792h111q13 0 22 -12l103 -185q5 -9 1 -15.5t-14 -6.5h-88q-13 0 -22 12l-125 184q-6 9 -2.5 16t14.5 7zM641 1792h109q14 0 20 -12l96 -185q9 -22 -14 -22h-84q-14 0 -23 12l-116 184q-6 9 -2.5 16t14.5 7zM199 1409h536q204 0 319 -100.5t115 -280.5 q0 -137 -78.5 -230.5t-222.5 -140.5q-41 -13 -2 -32q131 -64 211 -252l150 -350q4 -11 0 -17t-13 -6h-106q-15 0 -21 14l-133 308q-60 146 -156 213t-247 67h-236v-584q0 -18 -18 -18h-98q-19 0 -19 18v1373q0 18 19 18zM315 725h295q201 0 311.5 78t110.5 219 q0 124 -79 194t-218 70h-420v-561z" />
<glyph unicode="&#x211;" horiz-adv-x="763" d="M113 1448h94q14 0 20 -14l101 -230q9 -22 -13 -22h-75q-15 0 -21 12l-119 231q-6 11 -2 17t15 6zM387 1448h94q17 0 23 -14l94 -232q3 -9 -1 -14.5t-13 -5.5h-76q-15 0 -21 14l-114 229q-4 11 -0.5 17t14.5 6zM655 983v-86q0 -18 -18 -18q-166 -8 -255 -146t-89 -395 v-320q0 -18 -19 -18h-96q-18 0 -18 18v945q0 18 18 18h64q17 0 20 -18l14 -154q3 -12 11 -14t16 10q60 95 140 143.5t194 52.5q18 0 18 -18z" />
<glyph unicode="&#x212;" horiz-adv-x="1345" d="M870 1573h-75q-19 0 -19 18v23q0 47 -34.5 72.5t-98.5 25.5q-133 0 -133 -98v-23q0 -18 -18 -18h-76q-19 0 -19 18v25q0 199 246 199t246 -199v-25q0 -18 -19 -18zM199 1409h536q204 0 319 -100.5t115 -280.5q0 -137 -78.5 -230.5t-222.5 -140.5q-41 -13 -2 -32 q131 -64 211 -252l150 -350q4 -11 0 -17t-13 -6h-106q-15 0 -21 14l-133 308q-60 146 -156 213t-247 67h-236v-584q0 -18 -18 -18h-98q-19 0 -19 18v1373q0 18 19 18zM315 725h295q201 0 311.5 78t110.5 219q0 124 -79 194t-218 70h-420v-561z" />
<glyph unicode="&#x213;" horiz-adv-x="763" d="M625 1180h-72q-18 0 -18 18v51q0 56 -35 86.5t-99 30.5t-98.5 -30.5t-34.5 -86.5v-51q0 -18 -18 -18h-72q-18 0 -18 18v51q0 101 63.5 158t177.5 57t178 -57t64 -158v-51q0 -18 -18 -18zM655 983v-86q0 -18 -18 -18q-166 -8 -255 -146t-89 -395v-320q0 -18 -19 -18h-96 q-18 0 -18 18v945q0 18 18 18h64q17 0 20 -18l14 -154q3 -12 11 -14t16 10q60 95 140 143.5t194 52.5q18 0 18 -18z" />
<glyph unicode="&#x214;" horiz-adv-x="1363" d="M381 1792h111q13 0 22 -12l102 -185q5 -9 1.5 -15.5t-13.5 -6.5h-88q-13 0 -22 12l-125 184q-6 9 -2.5 16t14.5 7zM680 1792h108q15 0 21 -12l96 -185q9 -22 -14 -22h-84q-14 0 -23 12l-116 184q-6 9 -2.5 16t14.5 7zM1204 1391v-838q0 -270 -137.5 -421.5t-384.5 -151.5 t-384.5 151.5t-137.5 421.5v838q0 18 18 18h98q19 0 19 -18v-838q0 -212 101.5 -329.5t285.5 -117.5t285.5 117.5t101.5 329.5v838q0 18 18 18h99q18 0 18 -18z" />
<glyph unicode="&#x215;" d="M274 1448h95q14 0 20 -14l100 -230q9 -22 -12 -22h-76q-14 0 -20 12l-119 231q-6 11 -2.5 17t14.5 6zM549 1448h94q17 0 23 -14l94 -232q3 -9 -1.5 -14.5t-13.5 -5.5h-75q-15 0 -21 14l-114 229q-4 11 -0.5 17t14.5 6zM879 18l-9 125q-10 29 -30 2q-116 -165 -328 -165 q-169 0 -265.5 106t-96.5 291v586q0 18 18 18h96q19 0 19 -18v-576q0 -134 63.5 -209.5t177.5 -75.5q152 0 237 108.5t85 303.5v449q0 18 18 18h97q18 0 18 -18v-945q0 -18 -18 -18h-64q-18 0 -18 18z" />
<glyph unicode="&#x216;" horiz-adv-x="1363" d="M909 1573h-75q-19 0 -19 18v23q0 47 -34.5 72.5t-98.5 25.5q-133 0 -133 -98v-23q0 -18 -19 -18h-75q-19 0 -19 18v25q0 199 246 199t246 -199v-25q0 -18 -19 -18zM1204 1391v-838q0 -270 -137.5 -421.5t-384.5 -151.5t-384.5 151.5t-137.5 421.5v838q0 18 18 18h98 q19 0 19 -18v-838q0 -212 101.5 -329.5t285.5 -117.5t285.5 117.5t101.5 329.5v838q0 18 18 18h99q18 0 18 -18z" />
<glyph unicode="&#x217;" d="M786 1180h-71q-19 0 -19 18v51q0 56 -34.5 86.5t-98.5 30.5t-98.5 -30.5t-34.5 -86.5v-51q0 -18 -18 -18h-72q-18 0 -18 18v51q0 101 63.5 158t177.5 57t178 -57t64 -158v-51q0 -18 -19 -18zM879 18l-9 125q-10 29 -30 2q-116 -165 -328 -165q-169 0 -265.5 106 t-96.5 291v586q0 18 18 18h96q19 0 19 -18v-576q0 -134 63.5 -209.5t177.5 -75.5q152 0 237 108.5t85 303.5v449q0 18 18 18h97q18 0 18 -18v-945q0 -18 -18 -18h-64q-18 0 -18 18z" />
<glyph unicode="&#x218;" horiz-adv-x="1218" d="M737 600l-284 107q-166 62 -236 148t-70 218q0 167 120.5 263t324.5 96q145 0 309 -52l103 -32q18 -6 12 -25l-29 -84q-6 -16 -22 -10l-99 31q-133 43 -274 43q-139 0 -223 -62.5t-84 -167.5q0 -79 48.5 -140.5t172.5 -107.5l282 -106q155 -58 232.5 -139.5t77.5 -214.5 q0 -179 -137 -282t-357 -103q-197 0 -385 69l-82 31q-16 6 -10 22l31 84q6 19 22 13l82 -31q174 -62 342 -62q151 0 252.5 69.5t101.5 189.5q0 150 -221 235zM549 -436l41 76q16 32 -12 41q-24 6 -39 27t-15 50q0 38 23.5 59t62.5 21q40 0 63 -24t23 -66q0 -52 -41 -127 l-37 -67q-6 -13 -20 -13h-37q-11 0 -14.5 6.5t2.5 16.5z" />
<glyph unicode="&#x219;" horiz-adv-x="960" d="M590 414l-240 67q-114 29 -167.5 91t-53.5 163q0 125 92.5 195.5t257.5 70.5q138 0 240 -30l80 -25q18 -6 12 -24l-23 -80q-6 -19 -24 -13l-78 23q-93 27 -205 27q-103 0 -161 -39.5t-58 -104.5q0 -54 31 -88.5t100 -54.5l238 -68q118 -30 173.5 -94.5t55.5 -165.5 q0 -134 -98 -209t-275 -75q-182 0 -309 47l-55 18q-18 6 -12 25l28 82q7 17 23 10l53 -19q115 -41 272 -41q113 0 176.5 43.5t63.5 118.5q0 57 -33 92.5t-104 57.5zM412 -436l41 76q16 31 -13 41q-24 6 -38.5 27t-14.5 50q0 38 23.5 59t62.5 21q40 0 63 -24t23 -66 q0 -52 -41 -127l-37 -67q-7 -13 -20 -13h-37q-11 0 -14.5 6.5t2.5 16.5z" />
<glyph unicode="&#x21a;" horiz-adv-x="1280" d="M709 1286v-1268q0 -18 -19 -18h-100q-19 0 -19 18v1268h-465q-18 0 -18 19v86q0 18 18 18h1068q18 0 18 -18v-86q0 -19 -18 -19h-465zM578 -436l40 76q16 32 -12 41q-24 6 -38.5 27t-14.5 50q0 38 23.5 59t62.5 21q40 0 63 -24t23 -66q0 -52 -41 -127l-37 -67 q-7 -13 -20 -13h-37q-11 0 -14.5 6.5t2.5 16.5z" />
<glyph unicode="&#x21b;" horiz-adv-x="698" d="M354 981h228q18 0 18 -18v-84q0 -19 -18 -19h-228v-620q0 -66 28.5 -102t80.5 -36q20 0 53 11q15 6 25 -11l34 -75q8 -19 -8 -25q-46 -22 -104 -22q-114 0 -178 67.5t-64 190.5v622h-94q-18 0 -18 19v84q0 18 18 18h94v246q0 17 15 20l98 33q20 7 20 -16v-283zM313 -436 l41 76q16 32 -12 41q-24 6 -38.5 27t-14.5 50q0 38 23.5 59t62.5 21q40 0 63 -24t23 -66q0 -52 -41 -127l-37 -67q-7 -13 -21 -13h-36q-11 0 -15 6.5t2 16.5z" />
<glyph unicode="&#x259;" horiz-adv-x="1019" d="M180 952l64 19q97 30 221 30q211 0 332 -137.5t121 -374.5q0 -235 -120 -372t-329 -137q-175 0 -273 80t-98 223q0 212 275 258l399 65q-20 130 -100 201.5t-205 71.5q-105 0 -191 -27l-61 -18q-19 -3 -25 14l-24 82q-3 19 14 22zM782 494l-387 -66q-164 -27 -164 -143 q0 -88 63 -135.5t177 -47.5q145 0 226 99t85 293z" />
<glyph unicode="&#x2bb;" horiz-adv-x="366" d="M195 1409l-50 -76q-43 -64 -43 -108q0 -41 22 -65.5t60 -24.5t60 21t22 58q0 50 -45 72q-13 6 -14 13t10 22l57 88h-79z" />
<glyph unicode="&#x2c6;" horiz-adv-x="735" d="M608 1182h-76q-14 0 -22 10l-141 151l-142 -151q-8 -10 -22 -10h-78q-12 0 -15 6.5t5 15.5l184 234q10 10 23 10h88q12 0 22 -10l184 -234q8 -9 5 -15.5t-15 -6.5z" />
<glyph unicode="&#x2c7;" horiz-adv-x="735" d="M530 1446h78q12 0 15 -7t-5 -16l-184 -233q-10 -10 -22 -10h-88q-13 0 -23 10l-184 233q-8 9 -5 16t15 7h76q15 0 22 -10l142 -152l141 152q8 10 22 10z" />
<glyph unicode="&#x2d8;" horiz-adv-x="679" d="M582 1430v-52q0 -101 -64 -158t-178 -57t-178 57t-64 158v52q0 18 19 18h71q19 0 19 -18v-52q0 -56 34.5 -86t98.5 -30t98.5 30t34.5 86v52q0 18 19 18h71q19 0 19 -18z" />
<glyph unicode="&#x2d9;" horiz-adv-x="354" d="M178 1458q40 0 64 -24t24 -66t-24 -66t-64 -24q-41 0 -64.5 23.5t-23.5 66.5t23.5 66.5t64.5 23.5z" />
<glyph unicode="&#x2da;" horiz-adv-x="507" d="M256 1464q78 0 122 -39.5t44 -109.5t-44 -110t-122 -40q-79 0 -122.5 39.5t-43.5 110.5t43.5 110t122.5 39zM256 1384q-80 0 -80 -69q0 -70 80 -70q38 0 59 18t21 52q0 69 -80 69z" />
<glyph unicode="&#x2db;" horiz-adv-x="518" d="M248 0h90q18 0 18 -18q-6 -48 -55 -97l-90 -96q-31 -34 -31 -72q0 -61 64 -61q18 0 63 10l25 8q18 6 24 -12l21 -63q6 -19 -12 -25l-31 -10q-52 -19 -92 -19q-80 0 -127 42.5t-47 115.5q0 77 59 139l78 84q31 39 31 58q0 6 0.5 9t3 5t8.5 2z" />
<glyph unicode="&#x2dc;" horiz-adv-x="806" d="M109 1288l36 78q45 88 136 88q38 0 94 -29l98 -55q32 -16 53 -16q34 0 54 41l22 41q9 12 23 12h61q11 0 14.5 -6t-2.5 -17l-39 -75q-42 -88 -133 -88q-46 0 -98 30l-94 49q-35 21 -53 21q-34 0 -54 -39l-22 -43q-6 -14 -21 -14h-61q-23 0 -14 22z" />
<glyph unicode="&#x2dd;" horiz-adv-x="714" d="M332 1425l-115 -229q-6 -14 -20 -14h-76q-9 0 -13.5 5.5t-1.5 14.5l95 232q6 14 22 14h94q11 0 15 -6.5t0 -16.5zM604 1425l-119 -231q-6 -12 -20 -12h-76q-21 0 -12 22l100 230q6 14 21 14h94q11 0 14.5 -6t-2.5 -17z" />
<glyph unicode="&#x30f;" horiz-adv-x="0" d="M229 1194l-118 231q-6 11 -2.5 17t14.5 6h94q15 0 21 -14l100 -230q9 -22 -12 -22h-76q-15 0 -21 12zM498 1196l-115 229q-4 11 -0.5 17t14.5 6h95q16 0 22 -14l94 -232q3 -9 -1 -14.5t-13 -5.5h-76q-14 0 -20 14z" />
<glyph unicode="&#x311;" horiz-adv-x="0" d="M563 1180h-71q-19 0 -19 18v51q0 56 -34.5 86.5t-98.5 30.5t-98.5 -30.5t-34.5 -86.5v-51q0 -18 -19 -18h-71q-19 0 -19 18v51q0 101 64 158t178 57t178 -57t64 -158v-51q0 -18 -19 -18z" />
<glyph unicode="&#x326;" horiz-adv-x="0" d="M133 -137l41 76q16 32 -12 41q-24 6 -38.5 27t-14.5 50q0 38 23.5 59t62.5 21q40 0 63 -24t23 -66q0 -52 -41 -127l-37 -67q-7 -13 -21 -13h-37q-11 0 -14.5 6t2.5 17z" />
<glyph unicode="&#x400;" horiz-adv-x="1228" d="M567 1782l160 -187q7 -9 4 -15.5t-14 -6.5h-99q-11 0 -22 8l-199 188q-9 9 -6 16t15 7h139q15 0 22 -10zM315 784h637q19 0 19 -18v-86q0 -18 -19 -18h-637v-539h787q18 0 18 -19v-86q0 -18 -18 -18h-903q-19 0 -19 18v1373q0 18 19 18h895q23 0 16 -20l-27 -86 q-3 -17 -20 -17h-748v-502z" />
<glyph unicode="&#x401;" horiz-adv-x="1228" d="M500 1765q40 0 64 -23t24 -63q0 -39 -24 -61.5t-64 -22.5q-43 0 -66.5 22t-23.5 62t24 63t66 23zM805 1765q40 0 64 -23t24 -63q0 -39 -24 -61.5t-64 -22.5q-43 0 -66.5 22t-23.5 62t24 63t66 23zM315 784h637q19 0 19 -18v-86q0 -18 -19 -18h-637v-539h787q18 0 18 -19 v-86q0 -18 -18 -18h-903q-19 0 -19 18v1373q0 18 19 18h895q23 0 16 -20l-27 -86q-3 -17 -20 -17h-748v-502z" />
<glyph unicode="&#x402;" horiz-adv-x="1529" d="M608 778l129 45q121 45 271 45q193 0 301 -113.5t108 -316.5q0 -217 -115.5 -337.5t-322.5 -120.5q-83 0 -178 26l-33 10q-19 3 -12 23l24 84q6 15 25 12l29 -8q64 -21 145 -21q141 0 220 87t79 241q0 144 -74 225.5t-205 81.5q-127 0 -231 -36l-160 -58v-629 q0 -18 -18 -18h-98q-19 0 -19 18v1268h-416q-18 0 -18 19v86q0 18 18 18h1076q18 0 18 -18v-86q0 -19 -18 -19h-525v-508z" />
<glyph unicode="&#x403;" horiz-adv-x="1163" d="M680 1792h139q12 0 14.5 -7t-6.5 -16l-198 -188q-11 -8 -23 -8h-98q-11 0 -14 6.5t4 15.5l159 187q7 10 23 10zM315 1286v-1268q0 -18 -18 -18h-98q-19 0 -19 18v1373q0 18 19 18h845q11 0 15.5 -5.5t1.5 -14.5l-25 -86q-3 -17 -20 -17h-701z" />
<glyph unicode="&#x404;" horiz-adv-x="1234" d="M1071 170l31 -84q7 -16 -10 -23l-84 -30q-83 -30 -146.5 -41.5t-148.5 -11.5q-279 0 -438.5 194.5t-159.5 530.5q0 338 159.5 532.5t438.5 194.5q87 0 149 -11t142 -41l86 -30q17 -7 10 -23l-29 -84q-6 -18 -24 -12l-86 33q-61 23 -115 31t-133 8q-202 0 -321 -136 t-136 -383h651q19 0 19 -18v-86q0 -18 -19 -18h-653q9 -262 129.5 -409t329.5 -147q127 0 252 46l84 28q16 6 22 -10z" />
<glyph unicode="&#x405;" horiz-adv-x="1218" d="M737 600l-284 107q-166 62 -236 148t-70 218q0 167 120.5 263t324.5 96q145 0 309 -52l103 -32q18 -6 12 -25l-29 -84q-6 -16 -22 -10l-99 31q-133 43 -274 43q-139 0 -223 -62.5t-84 -167.5q0 -79 48.5 -140.5t172.5 -107.5l282 -106q155 -58 232.5 -139.5t77.5 -214.5 q0 -179 -137 -282t-357 -103q-197 0 -385 69l-82 31q-16 6 -10 22l31 84q6 19 22 13l82 -31q174 -62 342 -62q151 0 252.5 69.5t101.5 189.5q0 150 -221 235z" />
<glyph unicode="&#x406;" horiz-adv-x="495" d="M297 0h-98q-19 0 -19 18v1373q0 18 19 18h98q18 0 18 -18v-1373q0 -18 -18 -18z" />
<glyph unicode="&#x407;" horiz-adv-x="495" d="M98 1765q40 0 64 -23t24 -63q0 -39 -24 -61.5t-64 -22.5q-43 0 -66.5 22t-23.5 62t24 63t66 23zM403 1765q40 0 64.5 -23.5t24.5 -62.5t-24.5 -61.5t-64.5 -22.5q-43 0 -66.5 22t-23.5 62t24 63t66 23zM297 0h-98q-19 0 -19 18v1373q0 18 19 18h98q18 0 18 -18v-1373 q0 -18 -18 -18z" />
<glyph unicode="&#x408;" horiz-adv-x="870" d="M686 1391v-1014q0 -184 -95 -290.5t-259 -106.5q-93 0 -166 24l-55 19q-19 6 -13 24l29 84q7 17 23 10l53 -16q58 -19 129 -19q102 0 159.5 70t57.5 201v1014q0 18 18 18h101q18 0 18 -18z" />
<glyph unicode="&#x409;" horiz-adv-x="2117" d="M1190 803h278q255 0 399 -110t144 -304q0 -183 -118 -286t-330 -103h-492q-18 0 -18 18v1268h-633v-899q0 -153 -61 -245.5t-189 -135.5l-78 -26q-18 -6 -24 12l-25 82q-6 16 10 22l78 27q152 51 152 264v1004q0 18 18 18h870q19 0 19 -18v-588zM1190 680v-557h373 q147 0 229 70t82 196q0 137 -108 214t-298 77h-278z" />
<glyph unicode="&#x40a;" horiz-adv-x="2066" d="M1139 803h278q255 0 399 -110t144 -304q0 -183 -118 -286t-329 -103h-491q-18 0 -18 18v662h-689v-662q0 -18 -18 -18h-98q-19 0 -19 18v1373q0 18 19 18h98q18 0 18 -18v-588h689v588q0 18 18 18h98q19 0 19 -18v-588zM1139 680v-557h374q146 0 228 70t82 196 q0 137 -108 214t-298 77h-278z" />
<glyph unicode="&#x40b;" horiz-adv-x="1556" d="M608 776l127 45q125 45 266 45q192 0 299 -120t107 -334v-394q0 -18 -18 -18h-99q-18 0 -18 18v383q0 158 -75.5 248t-207.5 90q-126 0 -225 -37l-156 -57v-627q0 -18 -18 -18h-98q-19 0 -19 18v1268h-416q-18 0 -18 19v86q0 18 18 18h1076q18 0 18 -18v-86 q0 -19 -18 -19h-525v-510z" />
<glyph unicode="&#x40c;" horiz-adv-x="1296" d="M754 1792h139q12 0 14.5 -7t-6.5 -16l-199 -188q-11 -8 -22 -8h-98q-11 0 -14.5 6.5t3.5 15.5l160 187q7 10 23 10zM1176 1386l-263 -370q-67 -95 -155.5 -171t-161.5 -106q-27 -12 0 -24q169 -67 334 -297l274 -395q7 -9 4 -16t-14 -7h-117q-13 0 -22 12l-238 338 q-91 134 -207 223t-243 89h-52v-644q0 -18 -18 -18h-98q-19 0 -19 18v1373q0 18 19 18h98q18 0 18 -18v-607h47q85 0 171 46.5t148.5 109t117.5 141.5l231 316q9 12 23 12h112q11 0 14.5 -7t-3.5 -16z" />
<glyph unicode="&#x40e;" horiz-adv-x="1345" d="M922 1860v-52q0 -101 -64 -158t-178 -57t-178 57t-64 158v52q0 18 19 18h71q19 0 19 -18v-52q0 -56 34.5 -86t98.5 -30t98.5 30t34.5 86v52q0 18 18 18h72q19 0 19 -18zM1278 1386l-504 -1030q-18 -37 -28.5 -58t-30 -56t-33.5 -55.5t-36.5 -49t-43 -46t-48 -37t-56 -30 t-64 -17.5t-74.5 -7h-75q-19 0 -19 18v86q0 19 19 19h75q97 0 157.5 65.5t60.5 147.5q0 51 -15 102t-65 148l-416 800q-6 10 -2.5 16.5t14.5 6.5h109q14 0 20 -12l357 -688q71 -132 94 -230q2 -8 7 -11t11 -0.5t10 11.5q49 131 97 230l338 686q6 14 20 14h107 q11 0 14.5 -6.5t-0.5 -16.5z" />
<glyph unicode="&#x40f;" horiz-adv-x="1388" d="M1208 1393v-1373q0 -18 -18 -18h-430v-364q0 -19 -19 -19h-94q-18 0 -18 19v364h-430q-19 0 -19 18v1373q0 18 19 18h98q18 0 18 -18v-1268h758v1268q0 18 19 18h98q18 0 18 -18z" />
<glyph unicode="&#x410;" horiz-adv-x="1425" d="M373 358l-140 -344q-6 -14 -22 -14h-107q-9 0 -13 5.5t-1 14.5l422 1020q71 179 119 353q3 16 20 16h121q18 0 21 -16q43 -155 120 -353l420 -1020q3 -9 -1 -14.5t-13 -5.5h-105q-16 0 -22 14l-139 344h-680zM1001 483l-188 453q-62 153 -88 272q-2 9 -7.5 12t-11.5 0 t-8 -12q-22 -113 -88 -272l-186 -453h577z" />
<glyph unicode="&#x411;" horiz-adv-x="1316" d="M1104 1389l-25 -86q-3 -17 -20 -17h-744v-469h383q238 0 372 -108.5t134 -300.5q0 -193 -115 -300.5t-321 -107.5h-569q-19 0 -19 18v1373q0 18 19 18h888q11 0 15.5 -5.5t1.5 -14.5zM315 694v-571h451q141 0 220 75.5t79 209.5q0 135 -96.5 210.5t-268.5 75.5h-385z" />
<glyph unicode="&#x412;" horiz-adv-x="1323" d="M199 1409h544q197 0 308.5 -90.5t111.5 -251.5q0 -118 -57.5 -202.5t-157.5 -121.5q-12 -3 -16.5 -8.5t0 -11.5t16.5 -10q121 -30 191.5 -118.5t70.5 -225.5q0 -175 -115.5 -272t-322.5 -97h-573q-19 0 -19 18v1373q0 18 19 18zM315 784h338q179 0 276 73t97 200 q0 106 -76 167.5t-207 61.5h-428v-502zM315 123h457q140 0 219.5 67t79.5 187q0 141 -104 213t-305 72h-347v-539z" />
<glyph unicode="&#x413;" horiz-adv-x="1163" d="M1061 1389l-25 -86q-3 -17 -20 -17h-701v-1268q0 -18 -18 -18h-98q-19 0 -19 18v1373q0 18 19 18h845q11 0 15.5 -5.5t1.5 -14.5z" />
<glyph unicode="&#x414;" horiz-adv-x="1513" d="M1272 123h112q19 0 19 -19v-466q0 -19 -19 -19h-94q-18 0 -18 19v362h-1057v-362q0 -19 -18 -19h-95q-18 0 -18 19v466q0 19 18 19h93l88 188q69 153 69 371v709q0 18 19 18h882q19 0 19 -18v-1268zM487 1286v-604q0 -250 -84 -422l-63 -137h797v1163h-650z" />
<glyph unicode="&#x415;" horiz-adv-x="1228" d="M315 784h637q19 0 19 -18v-86q0 -18 -19 -18h-637v-539h787q18 0 18 -19v-86q0 -18 -18 -18h-903q-19 0 -19 18v1373q0 18 19 18h895q23 0 16 -20l-27 -86q-3 -17 -20 -17h-748v-502z" />
<glyph unicode="&#x416;" horiz-adv-x="1896" d="M1759 1386l-239 -387q-59 -90 -133.5 -161t-139.5 -101q-11 -5 -11 -11.5t11 -12.5q137 -57 285 -285l248 -405q6 -9 2.5 -16t-15.5 -7h-108q-14 0 -23 12l-213 338q-33 53 -57.5 89.5t-62.5 82t-72.5 73.5t-79 47.5t-90.5 19.5h-45v-644q0 -18 -19 -18h-98q-18 0 -18 18 v644h-45q-56 0 -108.5 -26.5t-99 -77t-80.5 -97t-73 -111.5l-213 -338q-9 -12 -22 -12h-111q-12 0 -15 7t3 16l248 405q152 229 284 285q12 6 12 12.5t-12 11.5q-63 30 -137 101t-133 161l-240 387q-6 9 -2.5 16t15.5 7h108q14 0 23 -12l202 -316q190 -297 353 -297h43v607 q0 18 18 18h98q19 0 19 -18v-607h43q164 0 354 297l203 316q9 12 22 12h109q12 0 15 -7t-3 -16z" />
<glyph unicode="&#x417;" horiz-adv-x="1245" d="M162 1356l98 28q154 48 344 48q213 0 342 -103.5t129 -273.5q0 -101 -59 -184t-168 -130q-11 -4 -14.5 -9t0.5 -9.5t14 -7.5q127 -41 199.5 -132t72.5 -210q0 -179 -142 -286t-378 -107q-182 0 -342 45l-115 34q-18 6 -12 25l31 84q6 15 22 12l115 -35q141 -41 299 -41 q175 0 280 74t105 201q0 93 -53.5 158.5t-139.5 95t-198 29.5h-180q-19 0 -19 18v86q0 18 19 18h180q153 0 249.5 75.5t96.5 187.5q0 117 -92 187.5t-244 70.5q-180 0 -301 -39l-100 -31q-19 -6 -25 12l-26 84q-6 19 12 25z" />
<glyph unicode="&#x418;" horiz-adv-x="1439" d="M1260 1391v-1373q0 -18 -19 -18h-98q-19 0 -19 18v971q0 119 15 195q3 14 -8 17.5t-17 -9.5q-27 -64 -67 -123l-584 -856q-51 -77 -115 -199q-6 -14 -20 -14h-129q-19 0 -19 18v1373q0 18 19 18h100q18 0 18 -18v-971q0 -106 -14 -195q-3 -15 8 -18.5t17 10.5 q23 51 67 121l584 856q76 119 115 201q6 14 20 14h127q19 0 19 -18z" />
<glyph unicode="&#x419;" horiz-adv-x="1439" d="M977 1774v-25q0 -199 -246 -199t-246 199v25q0 18 19 18h76q18 0 18 -18v-23q0 -98 133 -98q64 0 98.5 25.5t34.5 72.5v23q0 18 19 18h75q19 0 19 -18zM1241 0h-98q-19 0 -19 18v971q0 119 15 195q3 14 -8 17.5t-17 -9.5q-27 -64 -67 -123l-584 -856q-51 -77 -115 -199 q-6 -14 -20 -14h-129q-19 0 -19 18v1373q0 18 19 18h100q18 0 18 -18v-971q0 -106 -14 -195q-3 -15 8 -18.5t17 10.5q23 51 67 121l584 856q76 119 115 201q6 14 20 14h127q19 0 19 -18v-1373q0 -18 -19 -18z" />
<glyph unicode="&#x41a;" horiz-adv-x="1296" d="M1176 1386l-263 -370q-67 -95 -155.5 -171t-161.5 -106q-27 -12 0 -24q169 -67 334 -297l274 -395q7 -9 4 -16t-14 -7h-117q-13 0 -22 12l-238 338q-91 134 -207 223t-243 89h-52v-644q0 -18 -18 -18h-98q-19 0 -19 18v1373q0 18 19 18h98q18 0 18 -18v-607h47 q85 0 171 46.5t148.5 109t117.5 141.5l231 316q9 12 23 12h112q11 0 14.5 -7t-3.5 -16z" />
<glyph unicode="&#x41b;" horiz-adv-x="1433" d="M1253 1391v-1373q0 -18 -18 -18h-98q-19 0 -19 18v1268h-649v-581q0 -260 -69.5 -425.5t-217.5 -256.5l-71 -46q-18 -11 -25 7l-41 75q-9 16 6 27l74 45q107 69 158 208.5t51 365.5v686q0 18 18 18h883q18 0 18 -18z" />
<glyph unicode="&#x41c;" horiz-adv-x="1644" d="M1446 0h-100q-19 0 -19 18v893q0 158 14 273q2 19 -9 22.5t-17 -16.5q-26 -72 -68 -164l-278 -606q-35 -81 -78 -203q-3 -14 -21 -14h-96q-17 0 -20 14q-48 138 -80 203l-275 604q-14 28 -71 166q-4 13 -10.5 16t-11 -3.5t-3.5 -18.5q12 -123 12 -273v-893q0 -18 -18 -18 h-98q-19 0 -19 18v1373q0 18 19 18h161q18 0 21 -16q26 -84 63 -162l304 -670q37 -90 59 -168q5 -15 15 -15t14 15q31 100 59 166l305 672q42 90 62 162q3 16 20 16h164q18 0 18 -18v-1373q0 -18 -18 -18z" />
<glyph unicode="&#x41d;" horiz-adv-x="1413" d="M1214 0h-100q-18 0 -18 18v644h-781v-644q0 -18 -18 -18h-98q-19 0 -19 18v1373q0 18 19 18h98q18 0 18 -18v-607h781v607q0 18 18 18h100q19 0 19 -18v-1373q0 -18 -19 -18z" />
<glyph unicode="&#x41e;" horiz-adv-x="1415" d="M709 1432q274 0 432.5 -196t158.5 -531t-158 -530t-433 -195q-276 0 -435 195t-159 530q0 336 159 531.5t435 195.5zM709 1303q-215 0 -335 -158t-120 -440t120 -440.5t335 -158.5t333.5 158.5t118.5 440.5t-118.5 440t-333.5 158z" />
<glyph unicode="&#x41f;" horiz-adv-x="1388" d="M1208 1391v-1373q0 -18 -18 -18h-98q-19 0 -19 18v1268h-758v-1268q0 -18 -18 -18h-98q-19 0 -19 18v1373q0 18 19 18h991q18 0 18 -18z" />
<glyph unicode="&#x420;" horiz-adv-x="1269" d="M199 1409h495q221 0 344 -112t123 -312q0 -216 -147 -329t-434 -113h-265v-525q0 -18 -18 -18h-98q-19 0 -19 18v1373q0 18 19 18zM315 666h265q221 0 331.5 81t110.5 238q0 142 -87 221.5t-241 79.5h-379v-620z" />
<glyph unicode="&#x421;" horiz-adv-x="1234" d="M1092 63l-84 -30q-83 -30 -146.5 -41.5t-148.5 -11.5q-279 0 -438.5 194.5t-159.5 530.5q0 338 159.5 532.5t438.5 194.5q87 0 149 -11t142 -41l86 -30q17 -7 10 -23l-29 -84q-6 -18 -24 -12l-86 33q-61 23 -115 31t-133 8q-218 0 -338.5 -157.5t-120.5 -440.5 q0 -282 120.5 -440.5t338.5 -158.5q127 0 252 46l84 28q16 6 22 -10l31 -84q7 -16 -10 -23z" />
<glyph unicode="&#x422;" horiz-adv-x="1280" d="M709 1286v-1268q0 -18 -19 -18h-100q-19 0 -19 18v1268h-465q-18 0 -18 19v86q0 18 18 18h1068q18 0 18 -18v-86q0 -19 -18 -19h-465z" />
<glyph unicode="&#x423;" horiz-adv-x="1345" d="M1278 1386l-504 -1030q-18 -37 -28.5 -58t-30 -56t-33.5 -55.5t-36.5 -49t-43 -46t-48 -37t-56 -30t-64 -17.5t-74.5 -7h-75q-19 0 -19 18v86q0 19 19 19h75q97 0 157.5 65.5t60.5 147.5q0 51 -15 102t-65 148l-416 800q-6 10 -2.5 16.5t14.5 6.5h109q14 0 20 -12 l357 -688q71 -132 94 -230q2 -8 7 -11t11 -0.5t10 11.5q49 131 97 230l338 686q6 14 20 14h107q11 0 14.5 -6.5t-0.5 -16.5z" />
<glyph unicode="&#x424;" horiz-adv-x="1714" d="M926 1229h164q246 0 383 -136t137 -380q0 -243 -137 -379.5t-383 -136.5h-164v-179q0 -18 -19 -18h-98q-18 0 -18 18v179h-166q-245 0 -383 136.5t-138 379.5q0 244 138 380t383 136h166v162q0 18 18 18h98q19 0 19 -18v-162zM791 1106h-166q-179 0 -280 -103.5 t-101 -289.5q0 -185 101.5 -289.5t279.5 -104.5h166v787zM926 1106v-787h164q180 0 280 104.5t100 289.5q0 186 -100 289.5t-280 103.5h-164z" />
<glyph unicode="&#x425;" horiz-adv-x="1353" d="M1212 1386l-370 -575q-44 -67 -76 -86q-8 -4 -8 -12.5t8 -12.5q39 -21 76 -86l381 -591q6 -9 2 -16t-15 -7h-112q-14 0 -23 12l-381 596q-16 25 -35 0l-383 -596q-9 -12 -22 -12h-113q-11 0 -14.5 7t2.5 16l383 591q36 65 76 86q6 5 6.5 12.5t-6.5 12.5q-38 21 -74 86 l-373 575q-6 9 -2 16t15 7h110q14 0 23 -12l372 -576q7 -13 17 -13t18 13l371 576q9 12 22 12h113q11 0 14.5 -7t-2.5 -16z" />
<glyph unicode="&#x426;" horiz-adv-x="1449" d="M1208 123h113q18 0 18 -19v-466q0 -19 -18 -19h-94q-19 0 -19 19v362h-1009q-19 0 -19 18v1373q0 18 19 18h98q18 0 18 -18v-1268h758v1268q0 18 19 18h98q18 0 18 -18v-1268z" />
<glyph unicode="&#x427;" horiz-adv-x="1314" d="M1135 1391v-1373q0 -18 -19 -18h-98q-19 0 -19 18v578l-139 -47q-136 -43 -289 -43q-207 0 -322.5 120t-115.5 335v430q0 18 19 18h100q18 0 18 -18v-416q0 -163 81 -252.5t227 -89.5q137 0 247 37l174 57v664q0 18 19 18h98q19 0 19 -18z" />
<glyph unicode="&#x428;" horiz-adv-x="1935" d="M1755 1391v-1373q0 -18 -18 -18h-1538q-19 0 -19 18v1373q0 18 19 18h98q18 0 18 -18v-1268h584v1268q0 18 19 18h100q18 0 18 -18v-1268h584v1268q0 18 18 18h99q18 0 18 -18z" />
<glyph unicode="&#x429;" horiz-adv-x="1996" d="M1755 123h113q18 0 18 -19v-466q0 -19 -18 -19h-94q-19 0 -19 19v362h-1556q-19 0 -19 18v1373q0 18 19 18h98q18 0 18 -18v-1268h584v1268q0 18 19 18h100q18 0 18 -18v-1268h584v1268q0 18 18 18h99q18 0 18 -18v-1268z" />
<glyph unicode="&#x42a;" horiz-adv-x="1550" d="M600 866h264q287 0 434.5 -113t147.5 -329q0 -200 -123 -312t-344 -112h-496q-18 0 -18 18v1268h-408q-18 0 -18 19v86q0 18 18 18h525q18 0 18 -18v-525zM600 123h379q154 0 241 79.5t87 221.5q0 157 -111 238t-332 81h-264v-620z" />
<glyph unicode="&#x42b;" horiz-adv-x="1693" d="M180 18v1373q0 18 19 18h98q18 0 18 -18v-525h265q287 0 434 -113t147 -329q0 -200 -123 -312t-344 -112h-495q-19 0 -19 18zM1495 0h-98q-19 0 -19 18v1373q0 18 19 18h98q18 0 18 -18v-1373q0 -18 -18 -18zM315 123h379q154 0 241 79.5t87 221.5q0 157 -110.5 238 t-331.5 81h-265v-620z" />
<glyph unicode="&#x42c;" horiz-adv-x="1265" d="M694 0h-495q-19 0 -19 18v1373q0 18 19 18h98q18 0 18 -18v-525h265q287 0 434 -113t147 -329q0 -200 -123 -312t-344 -112zM315 123h379q154 0 241 79.5t87 221.5q0 157 -110.5 238t-331.5 81h-265v-620z" />
<glyph unicode="&#x42d;" horiz-adv-x="1234" d="M133 86l31 84q6 16 22 10l84 -28q125 -46 252 -46q209 0 329.5 147t129.5 409h-653q-19 0 -19 18v86q0 18 19 18h651q-17 247 -136 383t-321 136q-79 0 -133 -8t-115 -31l-86 -33q-18 -6 -24 12l-29 84q-7 16 10 23l86 30q80 30 142 41t149 11q279 0 438.5 -194.5 t159.5 -532.5q0 -336 -159.5 -530.5t-438.5 -194.5q-85 0 -148.5 11.5t-146.5 41.5l-84 30q-17 7 -10 23z" />
<glyph unicode="&#x42e;" horiz-adv-x="1896" d="M315 784h281q20 301 177 474.5t415 173.5q275 0 433.5 -196t158.5 -531t-158.5 -530t-433.5 -195q-267 0 -425 182.5t-169 499.5h-279v-644q0 -18 -18 -18h-98q-19 0 -19 18v1373q0 18 19 18h98q18 0 18 -18v-607zM1188 106q215 0 333.5 158.5t118.5 440.5t-118.5 440 t-333.5 158t-335 -158t-120 -440t120 -440.5t335 -158.5z" />
<glyph unicode="&#x42f;" horiz-adv-x="1345" d="M610 1409h537q18 0 18 -18v-1373q0 -18 -18 -18h-98q-19 0 -19 18v584h-235q-151 0 -247.5 -67t-156.5 -213l-133 -308q-6 -14 -20 -14h-107q-9 0 -12.5 6t0.5 17l149 350q80 188 211 252q39 19 -2 32q-144 47 -222.5 140.5t-78.5 230.5q0 180 115 280.5t319 100.5z M1030 1286h-420q-139 0 -218 -70t-79 -194q0 -141 110.5 -219t311.5 -78h295v561z" />
<glyph unicode="&#x430;" horiz-adv-x="1036" d="M195 948l75 23q98 30 219 30q188 0 297 -106t109 -291v-586q0 -18 -18 -18h-64q-17 0 -20 18l-7 93q-9 39 -41 2q-106 -133 -325 -133q-155 0 -241.5 78.5t-86.5 215.5t94 218.5t267 82.5h309v27q0 131 -71.5 203t-203.5 72q-106 0 -186 -25l-72 -21q-18 -6 -24 13 l-23 80q-6 18 13 24zM762 461h-309q-113 0 -170.5 -47.5t-57.5 -130.5q0 -87 53.5 -135t151.5 -48q158 0 245 87t87 247v27z" />
<glyph unicode="&#x431;" horiz-adv-x="1130" d="M883 1450l24 -82q6 -16 -10 -22l-340 -115q-145 -50 -217.5 -142t-79.5 -239q-3 -24 8.5 -31.5t28.5 10.5q57 60 134 93.5t165 33.5q197 0 313.5 -131.5t116.5 -355.5q0 -226 -120 -357.5t-326 -131.5q-207 0 -327 130t-120 357v348q0 209 93.5 339t291.5 196l340 112 q19 6 25 -12zM580 831q-147 0 -230.5 -96t-83.5 -268q0 -171 83.5 -267t230.5 -96q148 0 231.5 96t83.5 267q0 173 -83.5 268.5t-231.5 95.5z" />
<glyph unicode="&#x432;" horiz-adv-x="1040" d="M178 981h404q151 0 236 -68t85 -188q0 -80 -39.5 -134t-101.5 -79q-14 -5 -14.5 -12.5t12.5 -12.5q74 -19 126 -77t52 -148q0 -123 -88 -192.5t-246 -69.5h-426q-18 0 -18 18v945q0 18 18 18zM291 860v-305h237q117 0 179.5 41.5t62.5 118.5q0 69 -47.5 107t-132.5 38 h-299zM291 436v-315h315q95 0 147 40t52 111q0 78 -70 121t-200 43h-244z" />
<glyph unicode="&#x433;" horiz-adv-x="894" d="M293 860v-842q0 -18 -19 -18h-96q-18 0 -18 18v945q0 18 18 18h613q23 0 16 -20l-25 -84q-3 -17 -20 -17h-469z" />
<glyph unicode="&#x434;" horiz-adv-x="1185" d="M987 121h88q19 0 19 -19v-395q0 -18 -19 -18h-90q-18 0 -18 18v293h-774v-293q0 -18 -19 -18h-88q-18 0 -18 18v395q0 19 18 19h76l53 123q51 114 51 254v465q0 18 19 18h684q18 0 18 -18v-842zM399 860v-362q0 -157 -59 -287l-37 -90h551v739h-455z" />
<glyph unicode="&#x435;" horiz-adv-x="1024" d="M840 29l-66 -19q-94 -30 -221 -30q-211 0 -331 137.5t-120 374.5q0 235 120 372t329 137q174 0 272.5 -80.5t98.5 -222.5q0 -212 -275 -258l-399 -65q20 -130 100 -201.5t205 -71.5q105 0 190 27l62 18q18 3 24 -14l25 -82q3 -19 -14 -22zM238 487l387 66q163 27 163 143 q0 87 -62.5 135t-176.5 48q-145 0 -226 -99t-85 -293z" />
<glyph unicode="&#x436;" horiz-adv-x="1507" d="M1374 958l-174 -266q-42 -65 -91.5 -116t-94.5 -70q-9 -3 -9 -8.5t9 -8.5q56 -24 102 -69.5t96 -120.5l179 -276q6 -9 2 -16t-15 -7h-108q-14 0 -23 12l-155 242q-121 180 -240 180h-33v-416q0 -18 -18 -18h-94q-19 0 -19 18v416h-35q-118 0 -237 -180l-156 -242 q-9 -12 -22 -12h-109q-11 0 -14.5 7t2.5 16l178 276q90 144 197 190q7 2 9.5 5.5t0 6.5t-9.5 5q-44 20 -95 71t-92 115l-174 266q-6 9 -2.5 16t14.5 7h111q13 0 22 -12l140 -213q132 -199 241 -199h31v406q0 18 19 18h94q18 0 18 -18v-406h29q107 0 244 199l139 213 q9 12 22 12h109q11 0 14.5 -7t-2.5 -16z" />
<glyph unicode="&#x437;" horiz-adv-x="966" d="M137 952l76 21q115 28 252 28q165 0 263.5 -74.5t98.5 -197.5q0 -73 -39 -132t-120 -85q-12 -3 -12 -10t12 -10q90 -27 143 -86.5t53 -143.5q0 -128 -108.5 -205t-292.5 -77q-115 0 -250 32l-90 23q-18 3 -12 22l24 82q3 18 23 15l86 -23q114 -29 219 -29q120 0 194 47 t74 125q0 75 -76 119.5t-192 44.5h-127q-19 0 -19 19v80q0 18 19 18h125q107 0 171 44t64 120q0 70 -63.5 115t-165.5 45q-114 0 -223 -25l-74 -20q-20 -3 -23 14l-22 82q-6 19 12 22z" />
<glyph unicode="&#x438;" horiz-adv-x="1136" d="M961 0h-97q-18 0 -18 18v586q0 112 12 176q2 11 -6 14.5t-12 -8.5q-21 -46 -58 -100l-376 -532q-48 -68 -80 -140q-6 -14 -21 -14h-127q-18 0 -18 18v945q0 18 18 18h96q19 0 19 -18v-586q0 -97 -12 -176q-2 -12 6 -14t12 10q6 12 55 96l377 530q45 70 78 144q6 14 20 14 h132q18 0 18 -18v-945q0 -18 -18 -18z" />
<glyph unicode="&#x439;" horiz-adv-x="1136" d="M813 1430v-52q0 -101 -64 -158t-178 -57t-177.5 57t-63.5 158v52q0 18 18 18h72q18 0 18 -18v-52q0 -56 34.5 -86t98.5 -30t99 30t35 86v52q0 18 18 18h72q18 0 18 -18zM846 18v586q0 112 12 176q2 11 -6 14.5t-12 -8.5q-21 -46 -58 -100l-376 -532q-48 -68 -80 -140 q-6 -14 -21 -14h-127q-18 0 -18 18v945q0 18 18 18h96q19 0 19 -18v-586q0 -97 -12 -176q-2 -12 6 -14t12 10q6 12 55 96l377 530q45 70 78 144q6 14 20 14h132q18 0 18 -18v-945q0 -18 -18 -18h-97q-18 0 -18 18z" />
<glyph unicode="&#x43a;" horiz-adv-x="1028" d="M293 557h39q39 0 75 15t69.5 45t57 56t56.5 66l12 15l170 217q10 10 23 10h112q12 0 15.5 -7t-2.5 -16l-201 -262q-118 -154 -203 -186q-19 -10 0 -18q94 -37 215 -193l205 -276q6 -9 3 -16t-15 -7h-113q-13 0 -23 10l-178 236q-31 40 -45.5 58t-44.5 48.5t-53.5 44.5 t-58 25.5t-72.5 11.5h-43v-416q0 -18 -19 -18h-96q-18 0 -18 18v945q0 18 18 18h96q19 0 19 -18v-406z" />
<glyph unicode="&#x43b;" horiz-adv-x="1157" d="M997 963v-945q0 -18 -18 -18h-96q-19 0 -19 18v842h-454v-371q0 -181 -58.5 -296.5t-181.5 -180.5l-53 -30q-16 -7 -25 8l-41 78q-8 14 8 24l56 29q83 46 122 135.5t39 232.5v474q0 18 19 18h684q18 0 18 -18z" />
<glyph unicode="&#x43c;" horiz-adv-x="1300" d="M1141 963v-945q0 -18 -19 -18h-96q-18 0 -18 18v525q0 149 10 239q2 14 -6.5 16.5t-12.5 -10.5q-20 -49 -51 -116l-192 -383q-30 -69 -49 -125q-3 -14 -21 -14h-74q-17 0 -20 14q-20 66 -49 125l-193 383q-31 67 -51 116q-4 13 -12.5 10.5t-5.5 -16.5q12 -108 12 -239 v-525q0 -18 -19 -18h-96q-18 0 -18 18v945q0 18 18 18h154q17 0 20 -16q13 -45 43 -111l201 -399q36 -87 45 -123q2 -9 5.5 -12t7 0t5.5 12q8 29 46 123l202 399q25 54 41 111q3 16 21 16h153q19 0 19 -18z" />
<glyph unicode="&#x43d;" horiz-adv-x="1116" d="M958 963v-945q0 -18 -18 -18h-96q-19 0 -19 18v416h-532v-416q0 -18 -19 -18h-96q-18 0 -18 18v945q0 18 18 18h96q19 0 19 -18v-406h532v406q0 18 19 18h96q18 0 18 -18z" />
<glyph unicode="&#x43e;" horiz-adv-x="1099" d="M549 1001q207 0 326.5 -137t119.5 -372q0 -237 -119.5 -374.5t-326.5 -137.5t-327 138t-120 374q0 235 120 372t327 137zM549 879q-148 0 -230.5 -102.5t-82.5 -284.5q0 -183 82.5 -286.5t230.5 -103.5t231.5 103.5t83.5 286.5q0 182 -83.5 284.5t-231.5 102.5z" />
<glyph unicode="&#x43f;" horiz-adv-x="1105" d="M946 963v-945q0 -18 -18 -18h-97q-18 0 -18 18v842h-520v-842q0 -18 -19 -18h-96q-18 0 -18 18v945q0 18 18 18h750q18 0 18 -18z" />
<glyph unicode="&#x440;" horiz-adv-x="1132" d="M262 963l8 -123q3 -14 11.5 -14.5t17.5 12.5q117 163 313 163t307 -136t111 -373q0 -239 -117 -375.5t-325 -136.5q-131 0 -234 49l-61 28v-471q0 -18 -19 -18h-96q-18 0 -18 18v1377q0 18 18 18h64q17 0 20 -18zM291 186l84 -41q90 -43 209 -43q148 0 230.5 103.5 t82.5 286.5q0 181 -79 284t-220 103q-147 0 -227 -114t-80 -296v-283z" />
<glyph unicode="&#x441;" horiz-adv-x="956" d="M834 31l-66 -19q-106 -32 -203 -32q-222 0 -342.5 136.5t-120.5 375.5q0 238 120.5 373.5t344.5 135.5q89 0 191 -30l63 -19q19 -3 13 -22l-27 -82q-6 -15 -23 -12l-57 16q-80 27 -158 27q-165 0 -249 -101.5t-84 -285.5q0 -185 84 -287.5t245 -102.5q76 0 174 29l58 16 q18 6 24 -12l25 -80q6 -18 -12 -24z" />
<glyph unicode="&#x442;" horiz-adv-x="1009" d="M924 963v-84q0 -19 -19 -19h-336v-842q0 -18 -18 -18h-94q-19 0 -19 18v842h-336q-18 0 -18 19v84q0 18 18 18h803q19 0 19 -18z" />
</font>
</defs>
</svg>
