<?xml version="1.0" encoding="UTF-8" standalone="no"?>
<!DOCTYPE svg PUBLIC "-//W3C//DTD SVG 1.1//EN" "http://www.w3.org/Graphics/SVG/1.1/DTD/svg11.dtd">
<svg width="100%" height="100%" viewBox="0 0 408 408" version="1.1" xmlns="http://www.w3.org/2000/svg" xmlns:xlink="http://www.w3.org/1999/xlink" xml:space="preserve" xmlns:serif="http://www.serif.com/" style="fill-rule:evenodd;clip-rule:evenodd;stroke-linejoin:round;stroke-miterlimit:1.41421;">
    <g transform="matrix(1,0,0,1,-141.87,-244.15)">
        <g>
            <g opacity="0.329373">
                <g transform="matrix(1,0,0,1,362,190)">
                    <path d="M0.468,65.119C-22.716,65.119 -43.532,43.783 -43.532,60.619C-43.532,63.653 -53.92,64.571 -52.782,67.338C-115.857,77.722 -165.012,114.659 -193.562,169.428C-219.465,171.94 -206.531,187.21 -206.531,208.116C-206.531,222.592 -229.893,237.288 -215.375,244.585C-215.853,250.222 -216.094,255.918 -216.094,261.679C-216.094,372.079 -126.494,461.679 -16.094,461.679C-5.7,461.679 4.5,460.866 14.468,459.335C14.466,459.427 14.468,459.523 14.468,459.616C14.468,465.412 22.62,456.116 28.968,456.116C35.316,456.116 37.468,465.412 37.468,459.616C37.468,457.868 37.016,456.192 36.187,454.741C52.664,450.285 64.81,444.796 79.312,436.522C92.962,440.468 94.748,440.609 99.968,437.116C112.453,428.76 93.75,417.47 118.468,424.616C124.915,426.48 116.533,418.95 112.031,415.21C117.873,410.328 123.438,405.124 128.687,399.616C131.254,404.115 130.797,392.116 135.968,392.116C143.972,392.116 141.468,388.948 141.468,380.116C141.468,373.853 152.192,379.43 147.437,376.803C166.642,349.583 179.232,317.363 182.843,282.491C189.437,279.175 188.468,264.369 182.468,245.116C175.734,223.509 188.196,201.116 180.468,201.116C178.678,201.116 176.979,202.103 175.405,203.897C154.982,136.206 105.639,86.607 36.345,70.117C38.347,66.561 30.47,64.695 30.47,60.617C30.47,43.781 23.654,65.117 0.47,65.117L0.468,65.119Z" style="fill:rgb(108,110,112);fill-opacity:0.972549;fill-rule:nonzero;"/>
                </g>
                <g transform="matrix(0.30544,0,0,0.30544,194.47,315.86)">
                    <path d="M551.43,460.93C551.43,570.647 461.147,660.93 351.43,660.93C241.713,660.93 151.43,570.647 151.43,460.93C151.43,351.213 241.713,260.93 351.43,260.93C461.147,260.93 551.43,351.213 551.43,460.93Z" style="fill:rgb(99,100,102);fill-rule:nonzero;"/>
                </g>
                <path d="M293.95,401.68C265.749,405.8 245.441,430.054 245.441,457.74C251.874,433.855 272.37,417.904 298.39,414.103C317.583,411.299 335.597,414.294 349.177,426.106C337.363,408.624 316.213,398.427 293.949,401.68L293.95,401.68Z" style="fill:rgb(76,76,78);fill-rule:nonzero;"/>
                <path d="M290.7,391.89C262.501,396.018 240.453,416.349 240.46,444.035C246.887,420.148 266.941,401.138 292.961,397.33C312.153,394.521 330.605,400.566 344.188,412.374C332.369,394.895 312.962,388.631 290.699,391.89L290.7,391.89Z" style="fill:rgb(157,159,162);fill-rule:nonzero;"/>
                <path d="M363.16,455.25C362.923,461.406 361.788,467.458 359.848,473.219C361.338,472.308 362.944,471.586 364.66,471.094C364.823,465.748 364.339,460.411 363.16,455.25ZM375.598,476.75C375.29,484.739 370.336,492.179 362.41,495.25C356.356,497.193 351.019,498.408 350.379,491.219C349.371,492.565 348.308,493.858 347.192,495.125C346.509,494.848 345.81,494.535 345.16,494.188C345.678,494.671 346.24,495.12 346.817,495.563C340.315,502.809 332.044,508.682 322.348,512.438C304.261,519.445 284.937,517.679 269.067,509.188C284.477,523.601 309.118,532.754 330.098,524.626C340.916,520.434 349.412,512.634 355.286,503.032C356.126,499.686 357.664,501.255 364.911,499.188C373.5,495.86 377.591,485.474 375.599,476.75L375.598,476.75Z" style="fill:rgb(76,76,78);fill-rule:nonzero;"/>
                <g transform="matrix(0.13119,0,0,0.13119,265.51,542.98)">
                    <path d="M551.43,460.93C551.43,570.647 461.147,660.93 351.43,660.93C241.713,660.93 151.43,570.647 151.43,460.93C151.43,351.213 241.713,260.93 351.43,260.93C461.147,260.93 551.43,351.213 551.43,460.93Z" style="fill:rgb(99,100,102);fill-rule:nonzero;"/>
                </g>
                <path d="M308.24,579.84C296.128,581.61 287.405,592.027 287.405,603.918C290.168,593.659 298.971,586.808 310.147,585.175C318.391,583.971 326.128,585.257 331.961,590.33C326.887,582.822 317.803,578.442 308.24,579.839L308.24,579.84Z" style="fill:rgb(76,76,78);fill-rule:nonzero;"/>
                <path d="M306.85,575.63C294.738,577.403 285.268,586.136 285.272,598.027C288.033,587.767 296.646,579.602 307.822,577.967C316.065,576.76 323.99,579.357 329.825,584.429C324.749,576.921 316.413,574.231 306.851,575.631L306.85,575.63Z" style="fill:rgb(157,159,162);fill-rule:nonzero;"/>
                <path d="M323.98,632.86C335.394,628.438 340.829,614.653 338.181,603.06C337.772,613.677 331.19,623.553 320.658,627.633C312.89,630.643 304.585,629.874 297.769,626.227C304.388,632.417 314.969,636.351 323.98,632.859L323.98,632.86Z" style="fill:rgb(76,76,78);fill-rule:nonzero;"/>
                <path d="M317.07,627.04C328.953,624.103 336.624,612.889 335.47,601.053C333.715,611.532 326.682,619.367 315.718,622.077C307.63,624.076 298.741,623.383 292.444,618.9C298.223,625.881 307.689,629.358 317.071,627.039L317.07,627.04Z" style="fill:rgb(157,159,162);fill-rule:nonzero;"/>
                <g transform="matrix(0.06262,0,0,0.06262,192.84,475.64)">
                    <path d="M551.43,460.93C551.43,570.647 461.147,660.93 351.43,660.93C241.713,660.93 151.43,570.647 151.43,460.93C151.43,351.213 241.713,260.93 351.43,260.93C461.147,260.93 551.43,351.213 551.43,460.93Z" style="fill:rgb(99,100,102);fill-rule:nonzero;"/>
                </g>
                <path d="M213.23,493.23C207.449,494.075 203.285,499.047 203.285,504.723C204.604,499.826 208.806,496.556 214.14,495.777C218.075,495.202 221.768,495.816 224.552,498.238C222.13,494.654 217.794,492.563 213.23,493.23L213.23,493.23Z" style="fill:rgb(76,76,78);fill-rule:nonzero;"/>
                <path d="M212.57,491.23C206.789,492.076 202.269,496.245 202.27,501.92C203.588,497.023 207.699,493.126 213.033,492.345C216.968,491.769 220.75,493.008 223.535,495.429C221.112,491.846 217.133,490.561 212.569,491.23L212.57,491.23Z" style="fill:rgb(157,159,162);fill-rule:nonzero;"/>
                <path d="M220.74,518.54C226.188,516.429 228.782,509.849 227.518,504.316C227.323,509.383 224.181,514.098 219.154,516.045C215.446,517.482 211.483,517.115 208.229,515.374C211.389,518.329 216.439,520.206 220.74,518.54L220.74,518.54Z" style="fill:rgb(76,76,78);fill-rule:nonzero;"/>
                <path d="M217.45,515.77C223.122,514.368 226.784,509.015 226.233,503.366C225.395,508.368 222.038,512.108 216.804,513.401C212.944,514.355 208.701,514.024 205.695,511.884C208.454,515.217 212.972,516.876 217.45,515.77L217.45,515.77Z" style="fill:rgb(157,159,162);fill-rule:nonzero;"/>
                <g transform="matrix(0.11832,0,0,0.11832,215.45,297.93)">
                    <path d="M551.43,460.93C551.43,531.271 514.321,593.624 458.774,629.32C427.679,649.302 390.806,660.93 351.43,660.93C241.713,660.93 151.43,570.647 151.43,460.93C151.43,395.799 183.245,337.516 232.055,300.903C265.468,275.839 306.844,260.93 351.43,260.93C461.147,260.93 551.43,351.213 551.43,460.93Z" style="fill:rgb(99,100,102);fill-rule:nonzero;"/>
                </g>
                <path d="M253.99,331.17C243.066,332.766 235.2,342.161 235.2,352.885C237.692,343.633 245.631,337.454 255.71,335.982C263.145,334.896 270.122,336.056 275.383,340.632C270.807,333.86 262.614,329.91 253.99,331.17L253.99,331.17Z" style="fill:rgb(76,76,78);fill-rule:nonzero;"/>
                <path d="M252.73,327.38C241.807,328.979 233.266,336.855 233.269,347.579C235.759,338.326 243.527,330.963 253.606,329.487C261.04,328.399 268.188,330.74 273.449,335.315C268.871,328.544 261.353,326.118 252.73,327.38L252.73,327.38Z" style="fill:rgb(157,159,162);fill-rule:nonzero;"/>
                <path d="M268.18,378.99C278.474,375.002 283.375,362.57 280.987,352.115C280.618,361.69 274.682,370.597 265.184,374.277C258.178,376.991 250.689,376.298 244.541,373.009C250.51,378.592 260.053,382.139 268.18,378.991L268.18,378.99Z" style="fill:rgb(128,128,128);fill-rule:nonzero;"/>
                <path d="M261.95,373.74C272.667,371.091 279.585,360.977 278.544,350.304C276.962,359.754 270.619,366.821 260.73,369.265C253.436,371.068 245.419,370.443 239.74,366.4C244.952,372.695 253.489,375.831 261.95,373.74L261.95,373.74Z" style="fill:rgb(157,159,162);fill-rule:nonzero;"/>
                <g transform="matrix(0.06262,0,0,0.06262,375.84,287.64)">
                    <path d="M551.43,460.93C551.43,570.647 461.147,660.93 351.43,660.93C241.713,660.93 151.43,570.647 151.43,460.93C151.43,351.213 241.713,260.93 351.43,260.93C461.147,260.93 551.43,351.213 551.43,460.93Z" style="fill:rgb(99,100,102);fill-rule:nonzero;"/>
                </g>
                <path d="M396.23,305.23C390.449,306.075 386.285,311.047 386.285,316.723C387.604,311.826 391.806,308.556 397.14,307.777C401.075,307.202 404.768,307.816 407.552,310.238C405.13,306.654 400.794,304.563 396.23,305.23L396.23,305.23Z" style="fill:rgb(90,91,93);fill-rule:nonzero;"/>
                <path d="M395.57,303.23C389.789,304.076 385.269,308.245 385.27,313.92C386.588,309.023 390.699,305.126 396.033,304.345C399.968,303.769 403.75,305.008 406.535,307.429C404.112,303.846 400.133,302.561 395.569,303.23L395.57,303.23Z" style="fill:rgb(157,159,162);fill-rule:nonzero;"/>
                <path d="M403.74,330.54C409.188,328.429 411.782,321.85 410.518,316.316C410.323,321.384 407.181,326.098 402.154,328.045C398.446,329.482 394.483,329.115 391.229,327.374C394.389,330.329 399.439,332.206 403.74,330.54L403.74,330.54Z" style="fill:rgb(88,89,91);fill-rule:nonzero;"/>
                <path d="M400.45,327.77C406.122,326.368 409.784,321.015 409.233,315.366C408.395,320.368 405.038,324.108 399.804,325.401C395.944,326.355 391.701,326.024 388.695,323.884C391.454,327.217 395.972,328.876 400.45,327.77L400.45,327.77Z" style="fill:rgb(157,159,162);fill-rule:nonzero;"/>
                <g transform="matrix(0.708,0.14107,-0.16809,0.84361,236.98,12.64)">
                    <g transform="matrix(0.11832,0,0,0.11832,443.45,470.93)">
                        <path d="M551.43,460.93C551.43,570.647 461.147,660.93 351.43,660.93C241.713,660.93 151.43,570.647 151.43,460.93C151.43,351.213 241.713,260.93 351.43,260.93C461.147,260.93 551.43,351.213 551.43,460.93Z" style="fill:rgb(99,100,102);fill-rule:nonzero;"/>
                    </g>
                    <path d="M481.99,504.17C471.066,505.766 463.2,515.161 463.2,525.885C465.692,516.633 473.631,510.454 483.71,508.982C491.145,507.896 498.122,509.056 503.383,513.632C498.807,506.86 490.614,502.91 481.99,504.17L481.99,504.17Z" style="fill:rgb(76,76,78);fill-rule:nonzero;"/>
                    <path d="M480.73,500.38C469.807,501.979 461.266,509.855 461.269,520.579C463.759,511.326 471.527,503.963 481.606,502.487C489.04,501.399 496.188,503.74 501.449,508.314C496.871,501.544 489.353,499.117 480.73,500.38L480.73,500.38Z" style="fill:rgb(157,159,162);fill-rule:nonzero;"/>
                    <path d="M496.18,551.99C506.474,548.002 511.375,535.57 508.987,525.115C508.618,534.69 502.682,543.597 493.184,547.277C486.178,549.991 478.689,549.298 472.541,546.009C478.51,551.592 488.053,555.139 496.18,551.991L496.18,551.99Z" style="fill:rgb(76,76,78);fill-rule:nonzero;"/>
                    <path d="M489.95,546.74C500.667,544.091 507.585,533.977 506.544,523.304C504.962,532.754 498.619,539.821 488.73,542.265C481.436,544.068 473.419,543.443 467.74,539.4C472.952,545.695 481.489,548.831 489.95,546.74L489.95,546.74Z" style="fill:rgb(157,159,162);fill-rule:nonzero;"/>
                </g>
                <g transform="matrix(0.098724,0,0,0.098724,321.4,432.05)">
                    <path d="M551.43,460.93C551.43,570.647 461.147,660.93 351.43,660.93C241.713,660.93 151.43,570.647 151.43,460.93C151.43,351.213 241.713,260.93 351.43,260.93C461.147,260.93 551.43,351.213 551.43,460.93Z" style="fill:rgb(92,93,95);fill-rule:nonzero;"/>
                </g>
                <path d="M369.09,480.75C368.782,488.739 355.578,492.179 346.152,490.75C335.026,498.493 328.501,500.517 313.34,506.688C291.753,510.946 273.929,504.679 258.059,496.188C273.469,510.601 298.11,519.754 319.09,511.626C329.908,507.434 340.404,503.133 346.278,493.532C349.368,493.936 351.406,495.505 356.903,495.188C360.492,495.61 369.083,496.475 369.091,480.75L369.09,480.75Z" style="fill:rgb(157,159,162);fill-rule:nonzero;"/>
                <g transform="matrix(0.12384,0,0,0.12384,336.62,481.09)">
                    <path d="M551.43,460.93C551.43,570.647 461.147,660.93 351.43,660.93C241.713,660.93 151.43,570.647 151.43,460.93C151.43,351.213 241.713,260.93 351.43,260.93C461.147,260.93 551.43,351.213 551.43,460.93Z" style="fill:rgb(99,100,102);fill-rule:nonzero;"/>
                </g>
                <path d="M376.95,515.88C365.516,517.551 357.282,527.384 357.282,538.61C359.89,528.926 368.201,522.458 378.751,520.917C386.533,519.78 393.837,520.995 399.343,525.784C394.553,518.696 385.978,514.562 376.951,515.88L376.95,515.88Z" style="fill:rgb(76,76,78);fill-rule:nonzero;"/>
                <path d="M375.64,511.91C364.206,513.584 355.267,521.827 355.27,533.053C357.876,523.368 366.007,515.66 376.557,514.116C384.339,512.977 391.82,515.428 397.328,520.216C392.536,513.129 384.667,510.589 375.641,511.91L375.64,511.91Z" style="fill:rgb(157,159,162);fill-rule:nonzero;"/>
                <path d="M391.81,565.93C402.585,561.755 407.715,548.743 405.215,537.799C404.828,547.821 398.615,557.144 388.673,560.996C381.34,563.837 373.501,563.112 367.066,559.669C373.314,565.513 383.302,569.226 391.809,565.93L391.81,565.93Z" style="fill:rgb(76,76,78);fill-rule:nonzero;"/>
                <path d="M385.29,560.44C396.508,557.668 403.749,547.081 402.66,535.909C401.004,545.801 394.365,553.198 384.014,555.756C376.379,557.643 367.988,556.989 362.043,552.757C367.498,559.347 376.434,562.629 385.291,560.44L385.29,560.44Z" style="fill:rgb(157,159,162);fill-rule:nonzero;"/>
                <g transform="matrix(0.097159,-0.01751,0.0079452,0.044087,261.22,274.57)">
                    <path d="M551.43,460.93C551.43,570.647 461.147,660.93 351.43,660.93C241.713,660.93 151.43,570.647 151.43,460.93C151.43,380.745 199.652,310.94 268.44,279.171C293.774,267.471 321.898,260.93 351.43,260.93C461.147,260.93 551.43,351.213 551.43,460.93Z" style="fill:rgb(99,100,102);fill-opacity:0.972549;fill-rule:nonzero;"/>
                </g>
                <path d="M295.09,281.26C286.227,283.471 280.398,288.136 281.118,292.132C282.543,288.316 288.648,284.839 296.826,282.798C302.858,281.293 308.666,280.693 313.293,281.619C309.08,279.773 302.088,279.514 295.09,281.26L295.09,281.26Z" style="fill:rgb(88,89,91);fill-rule:nonzero;"/>
                <path d="M293.81,280.03C284.947,282.242 278.463,286.441 279.186,290.436C280.609,286.62 286.494,282.726 294.671,280.685C300.703,279.179 306.729,278.994 311.357,279.92C307.143,278.074 300.807,278.283 293.81,280.03L293.81,280.03Z" style="fill:rgb(157,159,162);fill-rule:nonzero;"/>
                <path d="M309.96,296.98C318.145,293.97 321.335,288.613 318.672,285.07C319.012,288.692 314.736,292.89 307.183,295.667C301.612,297.715 295.416,298.565 290.147,298.249C295.424,299.446 303.498,299.356 309.96,296.98L309.96,296.98Z" style="fill:rgb(88,89,91);fill-rule:nonzero;"/>
                <path d="M304.49,295.94C313.113,293.367 318.115,288.575 316.543,284.751C315.878,288.506 311.144,292.078 303.188,294.453C297.319,296.204 290.694,297.157 285.759,296.491C290.462,298.066 297.683,297.971 304.491,295.94L304.49,295.94Z" style="fill:rgb(157,159,162);fill-rule:nonzero;"/>
                <g transform="matrix(0.043895,-0.019239,0.044616,0.10179,178.48,545.14)">
                    <path d="M551.43,460.93C551.43,570.647 461.147,660.93 351.43,660.93C241.713,660.93 151.43,570.647 151.43,460.93C151.43,351.213 241.713,260.93 351.43,260.93C461.147,260.93 551.43,351.213 551.43,460.93Z" style="fill:rgb(99,100,102);fill-rule:nonzero;"/>
                </g>
                <path d="M205.31,567.47C201.859,570.619 202.483,579.981 206.528,589.208C203.963,580.843 204.579,574.236 207.763,571.33C210.111,569.187 213.137,569.05 216.815,572.131C212.563,567.049 208.034,564.983 205.31,567.47L205.31,567.47Z" style="fill:rgb(76,76,78);fill-rule:nonzero;"/>
                <path d="M203.42,564.42C199.97,567.572 199.772,575.736 203.817,584.962C201.252,576.597 201.357,568.998 204.54,566.09C206.887,563.945 210.422,564.797 214.099,567.877C209.847,562.796 206.143,561.931 203.42,564.42L203.42,564.42Z" style="fill:rgb(157,159,162);fill-rule:nonzero;"/>
                <path d="M228.61,606.3C230.925,601.195 228.055,589.702 223.227,581.096C226.701,589.394 227.857,598.022 225.721,602.732C224.145,606.207 221.106,606.828 217.585,604.998C221.904,608.83 226.782,610.331 228.61,606.3L228.61,606.3Z" style="fill:rgb(76,76,78);fill-rule:nonzero;"/>
                <path d="M224.32,602.8C227.297,598.779 226.05,588.952 221.639,579.939C224.615,588.327 224.927,595.438 222.18,599.149C220.154,601.886 216.944,602.652 213.312,600.097C217.62,604.666 221.97,605.976 224.32,602.801L224.32,602.8Z" style="fill:rgb(157,159,162);fill-rule:nonzero;"/>
                <g transform="matrix(0.9134,-0.24403,0.21007,0.78629,-32.955,180.35)">
                    <g transform="matrix(0.17954,0,0,0.17954,370.24,308.37)">
                        <path d="M551.43,460.93C551.43,570.647 461.147,660.93 351.43,660.93C241.713,660.93 151.43,570.647 151.43,460.93C151.43,351.213 241.713,260.93 351.43,260.93C461.147,260.93 551.43,351.213 551.43,460.93Z" style="fill:rgb(99,100,102);fill-rule:nonzero;"/>
                    </g>
                    <path d="M428.71,358.82C412.134,361.242 400.196,375.498 400.196,391.772C403.978,377.732 416.025,368.357 431.32,366.122C442.602,364.474 453.19,366.234 461.173,373.178C454.229,362.902 441.797,356.908 428.71,358.82L428.71,358.82Z" style="fill:rgb(76,76,78);fill-rule:nonzero;"/>
                    <path d="M426.8,353.06C410.224,355.486 397.265,367.437 397.269,383.711C401.047,369.67 412.835,358.496 428.129,356.257C439.41,354.606 450.256,358.159 458.241,365.1C451.294,354.826 439.886,351.144 426.8,353.059L426.8,353.06Z" style="fill:rgb(157,159,162);fill-rule:nonzero;"/>
                    <path d="M450.24,431.38C465.861,425.328 473.298,406.463 469.674,390.598C469.114,405.127 460.106,418.643 445.693,424.228C435.062,428.347 423.697,427.295 414.369,422.304C423.427,430.776 437.907,436.159 450.24,431.381L450.24,431.38Z" style="fill:rgb(76,76,78);fill-rule:nonzero;"/>
                    <path d="M440.8,423.42C457.063,419.401 467.561,404.053 465.981,387.856C463.58,402.197 453.955,412.92 438.949,416.629C427.881,419.364 415.716,418.416 407.097,412.281C415.006,421.835 427.961,426.593 440.8,423.42L440.8,423.42Z" style="fill:rgb(157,159,162);fill-rule:nonzero;"/>
                    <g transform="matrix(0.10015,0,0,0.10015,386.4,347.37)">
                        <path d="M329.56,392.23C297.246,396.951 273.974,424.743 273.975,456.468C281.347,429.098 304.832,410.821 334.648,406.465C356.641,403.252 377.282,406.684 392.844,420.219C379.306,400.186 355.072,388.503 329.56,392.23Z" style="fill:rgb(76,76,78);fill-rule:nonzero;"/>
                        <path d="M325.84,381.01C293.527,385.74 268.263,409.037 268.272,440.762C275.637,413.39 298.616,391.607 328.431,387.243C350.423,384.024 371.566,390.951 387.131,404.482C373.588,384.453 351.35,377.276 325.84,381.01Z" style="fill:rgb(157,159,162);fill-rule:nonzero;"/>
                        <path d="M371.54,533.68C401.992,521.882 416.49,485.106 409.426,454.178C408.334,482.502 390.775,508.85 362.677,519.737C341.952,527.767 319.798,525.716 301.613,515.986C319.271,532.501 347.499,542.995 371.541,533.68L371.54,533.68Z" style="fill:rgb(76,76,78);fill-rule:nonzero;"/>
                        <path d="M353.12,518.16C384.824,510.325 405.288,480.406 402.209,448.831C397.528,476.787 378.765,497.692 349.512,504.921C327.935,510.253 304.22,508.405 287.419,496.444C302.837,515.068 328.091,524.345 353.121,518.159L353.12,518.16Z" style="fill:rgb(157,159,162);fill-rule:nonzero;"/>
                    </g>
                    <g transform="matrix(0.072158,0,0,0.072158,413.73,346.21)">
                        <path d="M329.56,392.23C297.246,396.951 273.974,424.743 273.975,456.468C281.347,429.098 304.832,410.821 334.648,406.465C356.641,403.252 377.282,406.684 392.844,420.219C379.306,400.186 355.072,388.503 329.56,392.23Z" style="fill:rgb(76,76,78);fill-rule:nonzero;"/>
                        <path d="M325.84,381.01C293.527,385.74 268.263,409.037 268.272,440.762C272.717,424.243 282.849,409.759 296.738,399.911C305.863,393.442 316.61,388.973 328.431,387.243C335.647,386.187 342.772,386.223 349.638,387.226C363.698,389.281 376.673,395.391 387.131,404.482C373.588,384.453 351.35,377.276 325.84,381.01Z" style="fill:rgb(157,159,162);fill-rule:nonzero;"/>
                        <path d="M371.54,533.68C401.992,521.882 416.49,485.106 409.426,454.178C408.334,482.502 390.775,508.85 362.677,519.737C341.952,527.767 319.798,525.716 301.613,515.986C319.271,532.501 347.499,542.995 371.541,533.68L371.54,533.68Z" style="fill:rgb(76,76,78);fill-rule:nonzero;"/>
                        <path d="M353.12,518.16C384.824,510.325 405.288,480.406 402.209,448.831C397.528,476.787 378.765,497.692 349.512,504.921C327.935,510.253 304.22,508.405 287.419,496.444C302.837,515.068 328.091,524.345 353.121,518.159L353.12,518.16Z" style="fill:rgb(157,159,162);fill-rule:nonzero;"/>
                    </g>
                </g>
                <g transform="matrix(0.079762,0,0,0.073759,275.26,400.9)">
                    <path d="M551.43,460.93C551.43,570.647 461.147,660.93 351.43,660.93C241.713,660.93 151.43,570.647 151.43,460.93C151.43,351.213 241.713,260.93 351.43,260.93C461.147,260.93 551.43,351.213 551.43,460.93Z" style="fill:rgb(92,93,95);fill-rule:nonzero;"/>
                </g>
                <path d="M301.23,421.62C293.866,422.615 288.562,428.472 288.563,435.157C290.243,429.389 295.595,425.537 302.39,424.619C307.402,423.942 312.106,424.665 315.652,427.518C312.567,423.296 307.044,420.834 301.23,421.619L301.23,421.62Z" style="fill:rgb(76,76,78);fill-rule:nonzero;"/>
                <path d="M300.39,419.26C293.026,420.257 287.269,425.167 287.271,431.852C288.949,426.084 294.186,421.493 300.981,420.573C305.993,419.895 310.811,421.354 314.358,424.206C311.272,419.985 306.204,418.472 300.39,419.259L300.39,419.26Z" style="fill:rgb(157,159,162);fill-rule:nonzero;"/>
                <path d="M310.8,451.43C317.74,448.944 321.044,441.194 319.434,434.676C319.185,440.645 315.183,446.198 308.78,448.492C304.057,450.184 299.008,449.752 294.864,447.702C298.888,451.182 305.321,453.393 310.8,451.43L310.8,451.43Z" style="fill:rgb(76,76,78);fill-rule:nonzero;"/>
                <path d="M306.61,448.16C313.835,446.509 318.499,440.204 317.797,433.55C316.73,439.441 312.454,443.847 305.788,445.37C300.871,446.494 295.466,446.104 291.637,443.584C295.151,447.509 300.906,449.464 306.61,448.16L306.61,448.16Z" style="fill:rgb(157,159,162);fill-rule:nonzero;"/>
                <g transform="matrix(0.3876,0,0,0.3876,251.07,351.95)">
                    <g transform="matrix(0.13119,0,0,0.13119,265.51,542.98)">
                        <path d="M551.43,460.93C551.43,570.647 461.147,660.93 351.43,660.93C241.713,660.93 151.43,570.647 151.43,460.93C151.43,351.213 241.713,260.93 351.43,260.93C461.147,260.93 551.43,351.213 551.43,460.93Z" style="fill:rgb(99,100,102);fill-rule:nonzero;"/>
                    </g>
                    <path d="M308.24,579.84C296.128,581.61 287.405,592.027 287.405,603.918C290.168,593.659 298.971,586.808 310.147,585.175C318.391,583.971 326.128,585.257 331.961,590.33C326.887,582.822 317.803,578.442 308.24,579.839L308.24,579.84Z" style="fill:rgb(76,76,78);fill-rule:nonzero;"/>
                    <path d="M306.85,575.63C294.738,577.403 285.268,586.136 285.272,598.027C288.033,587.767 296.646,579.602 307.822,577.967C316.065,576.76 323.99,579.357 329.825,584.429C324.749,576.921 316.413,574.231 306.851,575.631L306.85,575.63Z" style="fill:rgb(157,159,162);fill-rule:nonzero;"/>
                    <path d="M323.98,632.86C335.394,628.438 340.829,614.653 338.181,603.06C337.772,613.677 331.19,623.553 320.658,627.633C312.89,630.643 304.585,629.874 297.769,626.227C304.388,632.417 314.969,636.351 323.98,632.859L323.98,632.86Z" style="fill:rgb(76,76,78);fill-rule:nonzero;"/>
                    <path d="M317.07,627.04C328.953,624.103 336.624,612.889 335.47,601.053C333.715,611.532 326.682,619.367 315.718,622.077C307.63,624.076 298.741,623.383 292.444,618.9C298.223,625.881 307.689,629.358 317.071,627.039L317.07,627.04Z" style="fill:rgb(157,159,162);fill-rule:nonzero;"/>
                </g>
                <g transform="matrix(0.2952,0,0,0.2952,212.02,418.68)">
                    <g transform="matrix(0.13119,0,0,0.13119,265.51,542.98)">
                        <path d="M551.43,460.93C551.43,570.647 461.147,660.93 351.43,660.93C241.713,660.93 151.43,570.647 151.43,460.93C151.43,351.213 241.713,260.93 351.43,260.93C461.147,260.93 551.43,351.213 551.43,460.93Z" style="fill:rgb(92,93,95);fill-rule:nonzero;"/>
                    </g>
                    <path d="M308.24,579.84C296.128,581.61 287.405,592.027 287.405,603.918C290.168,593.659 298.971,586.808 310.147,585.175C318.391,583.971 326.128,585.257 331.961,590.33C326.887,582.822 317.803,578.442 308.24,579.839L308.24,579.84Z" style="fill:rgb(76,76,78);fill-rule:nonzero;"/>
                    <path d="M306.85,575.63C294.738,577.403 285.268,586.136 285.272,598.027C288.033,587.767 296.646,579.602 307.822,577.967C316.065,576.76 323.99,579.357 329.825,584.429C324.749,576.921 316.413,574.231 306.851,575.631L306.85,575.63Z" style="fill:rgb(157,159,162);fill-rule:nonzero;"/>
                    <path d="M323.98,632.86C335.394,628.438 340.829,614.653 338.181,603.06C337.772,613.677 331.19,623.553 320.658,627.633C312.89,630.643 304.585,629.874 297.769,626.227C304.388,632.417 314.969,636.351 323.98,632.859L323.98,632.86Z" style="fill:rgb(76,76,78);fill-rule:nonzero;"/>
                    <path d="M317.07,627.04C328.953,624.103 336.624,612.889 335.47,601.053C333.715,611.532 326.682,619.367 315.718,622.077C307.63,624.076 298.741,623.383 292.444,618.9C298.223,625.881 307.689,629.358 317.071,627.039L317.07,627.04Z" style="fill:rgb(157,159,162);fill-rule:nonzero;"/>
                </g>
                <g transform="matrix(0.2292,0,0,0.2292,275.39,444.62)">
                    <g transform="matrix(0.13119,0,0,0.13119,265.51,542.98)">
                        <path d="M551.43,460.93C551.43,570.647 461.147,660.93 351.43,660.93C241.713,660.93 151.43,570.647 151.43,460.93C151.43,351.213 241.713,260.93 351.43,260.93C461.147,260.93 551.43,351.213 551.43,460.93Z" style="fill:rgb(99,100,102);fill-rule:nonzero;"/>
                    </g>
                    <path d="M308.24,579.84C296.128,581.61 287.405,592.027 287.405,603.918C290.168,593.659 298.971,586.808 310.147,585.175C318.391,583.971 326.128,585.257 331.961,590.33C326.887,582.822 317.803,578.442 308.24,579.839L308.24,579.84Z" style="fill:rgb(76,76,78);fill-rule:nonzero;"/>
                    <path d="M306.85,575.63C294.738,577.403 285.268,586.136 285.272,598.027C288.033,587.767 296.646,579.602 307.822,577.967C316.065,576.76 323.99,579.357 329.825,584.429C324.749,576.921 316.413,574.231 306.851,575.631L306.85,575.63Z" style="fill:rgb(157,159,162);fill-rule:nonzero;"/>
                    <path d="M323.98,632.86C335.394,628.438 340.829,614.653 338.181,603.06C337.772,613.677 331.19,623.553 320.658,627.633C312.89,630.643 304.585,629.874 297.769,626.227C304.388,632.417 314.969,636.351 323.98,632.859L323.98,632.86Z" style="fill:rgb(76,76,78);fill-rule:nonzero;"/>
                    <path d="M317.07,627.04C328.953,624.103 336.624,612.889 335.47,601.053C333.715,611.532 326.682,619.367 315.718,622.077C307.63,624.076 298.741,623.383 292.444,618.9C298.223,625.881 307.689,629.358 317.071,627.039L317.07,627.04Z" style="fill:rgb(157,159,162);fill-rule:nonzero;"/>
                </g>
                <g transform="matrix(0.47889,-0.14303,0.11382,0.38109,228.17,414.01)">
                    <g transform="matrix(0.13119,0,0,0.13119,265.51,542.98)">
                        <path d="M551.43,460.93C551.43,570.647 461.147,660.93 351.43,660.93C241.713,660.93 151.43,570.647 151.43,460.93C151.43,351.213 241.713,260.93 351.43,260.93C461.147,260.93 551.43,351.213 551.43,460.93Z" style="fill:rgb(99,100,102);fill-rule:nonzero;"/>
                    </g>
                    <path d="M308.24,579.84C296.128,581.61 287.405,592.027 287.405,603.918C290.168,593.659 298.971,586.808 310.147,585.175C318.391,583.971 326.128,585.257 331.961,590.33C326.887,582.822 317.803,578.442 308.24,579.839L308.24,579.84Z" style="fill:rgb(76,76,78);fill-rule:nonzero;"/>
                    <path d="M306.85,575.63C294.738,577.403 285.268,586.136 285.272,598.027C288.033,587.767 296.646,579.602 307.822,577.967C316.065,576.76 323.99,579.357 329.825,584.429C324.749,576.921 316.413,574.231 306.851,575.631L306.85,575.63Z" style="fill:rgb(153,155,158);fill-rule:nonzero;"/>
                    <path d="M323.98,632.86C335.394,628.438 340.829,614.653 338.181,603.06C337.772,613.677 331.19,623.553 320.658,627.633C312.89,630.643 304.585,629.874 297.769,626.227C304.388,632.417 314.969,636.351 323.98,632.859L323.98,632.86Z" style="fill:rgb(108,110,112);fill-rule:nonzero;"/>
                    <path d="M317.07,627.04C328.953,624.103 336.624,612.889 335.47,601.053C333.715,611.532 326.682,619.367 315.718,622.077C307.63,624.076 298.741,623.383 292.444,618.9C298.223,625.881 307.689,629.358 317.071,627.039L317.07,627.04Z" style="fill:rgb(157,159,162);fill-rule:nonzero;"/>
                </g>
                <g transform="matrix(0.48375,0,0,0.61575,358.14,66.551)">
                    <g transform="matrix(0.13119,0,0,0.13119,265.51,542.98)">
                        <path d="M551.43,460.93C551.43,570.647 461.147,660.93 351.43,660.93C241.713,660.93 151.43,570.647 151.43,460.93C151.43,351.213 241.713,260.93 351.43,260.93C461.147,260.93 551.43,351.213 551.43,460.93Z" style="fill:rgb(99,100,102);fill-rule:nonzero;"/>
                    </g>
                    <path d="M308.24,579.84C296.128,581.61 287.405,592.027 287.405,603.918C290.168,593.659 298.971,586.808 310.147,585.175C318.391,583.971 326.128,585.257 331.961,590.33C326.887,582.822 317.803,578.442 308.24,579.839L308.24,579.84Z" style="fill:rgb(76,76,78);fill-rule:nonzero;"/>
                    <path d="M306.85,575.63C294.738,577.403 285.268,586.136 285.272,598.027C288.033,587.767 296.646,579.602 307.822,577.967C316.065,576.76 323.99,579.357 329.825,584.429C324.749,576.921 316.413,574.231 306.851,575.631L306.85,575.63Z" style="fill:rgb(157,159,162);fill-rule:nonzero;"/>
                    <path d="M323.98,632.86C335.394,628.438 340.829,614.653 338.181,603.06C337.772,613.677 331.19,623.553 320.658,627.633C312.89,630.643 304.585,629.874 297.769,626.227C304.388,632.417 314.969,636.351 323.98,632.859L323.98,632.86Z" style="fill:rgb(76,76,78);fill-rule:nonzero;"/>
                    <path d="M317.07,627.04C328.953,624.103 336.624,612.889 335.47,601.053C333.715,611.532 326.682,619.367 315.718,622.077C307.63,624.076 298.741,623.383 292.444,618.9C298.223,625.881 307.689,629.358 317.071,627.039L317.07,627.04Z" style="fill:rgb(157,159,162);fill-rule:nonzero;"/>
                </g>
                <path d="M346.04,466.25C339.928,470.476 337.857,478.101 340.888,484.06C339.77,478.157 342.794,472.298 348.434,468.398C352.594,465.522 357.115,464.034 361.569,464.968C356.905,462.604 350.866,462.914 346.04,466.25L346.04,466.25Z" style="fill:rgb(76,76,78);fill-rule:nonzero;"/>
                <path d="M346.79,462.58C339.937,465.454 335.651,471.69 337.388,478.146C337.512,472.14 341.378,466.347 347.701,463.696C352.365,461.74 357.398,461.899 361.563,463.732C357.487,460.457 352.201,460.312 346.79,462.581L346.79,462.58Z" style="fill:rgb(157,159,162);fill-rule:nonzero;"/>
            </g>
        </g>
    </g>
</svg>
